<svg xmlns="http://www.w3.org/2000/svg" xmlns:xlink="http://www.w3.org/1999/xlink" id="Layer_1" x="0" y="0" version="1.1" viewBox="0 0 110.9 128" xml:space="preserve" style="enable-background:new 0 0 110.9 128"><style type="text/css">.st0{fill:#766a68}.st1{opacity:.38;fill:#df9079}.st2{opacity:.13}.st3{fill:#df9079}.st4{fill:#e6d9a5}.st5{fill:none;stroke:#df9079;stroke-width:3;stroke-miterlimit:10}</style><g><g><polygon points="55.4 0 0 32 0 96 55.4 128 55.4 128 110.9 96 110.9 32" class="st0"/><path d="M9.4,90.6V37.4l46-26.6l46,26.6v53.1l-46,26.6L9.4,90.6z M0,32v64l55.4,32h0l55.4-32V32L55.4,0L0,32z" class="st1"/><g class="st2"><path d="M11.8,89.2V38.8l43.7-25.2l43.7,25.2v50.4l-43.7,25.2L11.8,89.2z M55.4,10.9l-46,26.6v53.1l46,26.6l46-26.6 V37.4L55.4,10.9z" class="st3"/></g></g><polygon points="57.3 67.3 57.3 97.5 74.9 77.5" class="st3"/><polygon points="53.5 67.3 35.9 77.5 53.5 97.5" class="st4"/><polygon points="62.5 62.1 85.1 62.1 77.5 53.4" class="st3"/><polygon points="62.5 65.9 77.5 74.6 85.1 65.9" class="st4"/><polygon points="48.4 65.9 25.8 65.9 33.4 74.6" class="st3"/><polygon points="48.4 62.1 33.4 53.4 25.7 62.1" class="st4"/><polygon points="53.5 30.5 35.9 50.5 53.5 60.7" class="st3"/><polygon points="78 48.8 94.9 39 57.3 17.3 57.3 25.2" class="st3"/><polygon points="30.3 51.7 14 42.3 14 62.1 21.1 62.1" class="st3"/><polygon points="80.6 76.3 96.8 85.7 96.8 65.9 89.7 65.9" class="st3"/><polygon points="57.3 102.8 57.3 110.7 94.9 89 78 79.2" class="st4"/><polygon points="57.3 60.7 74.9 50.5 57.3 30.5" class="st4"/><polygon points="80.6 51.7 89.7 62.1 96.8 62.1 96.8 42.3" class="st4"/><polygon points="53.5 25.2 53.5 17.3 15.9 39 32.8 48.8" class="st4"/><polygon points="32.8 79.2 15.9 89 53.5 110.7 53.5 102.8" class="st3"/><polygon points="21.1 65.9 14 65.9 14 85.7 30.3 76.3" class="st4"/><circle cx="55.4" cy="64" r="13.9" class="st0"/><circle cx="55.4" cy="64" r="3.7" class="st4"/><circle cx="55.4" cy="64" r="8.7" class="st5"/></g></svg>