<svg xmlns="http://www.w3.org/2000/svg" xmlns:xlink="http://www.w3.org/1999/xlink" id="Layer_1" x="0" y="0" version="1.1" viewBox="0 0 110.9 128" xml:space="preserve" style="enable-background:new 0 0 110.9 128"><style type="text/css">.st0{fill:#766a68}.st1{opacity:.38;fill:#df9079}.st2{opacity:.13}.st3{fill:#df9079}.st4{fill:#e6d9a5}</style><g><polygon points="55.4 0 0 32 0 96 55.4 128 55.4 128 110.9 96 110.9 32" class="st0"/><path d="M9.4,90.6V37.4l46-26.6l46,26.6v53.1l-46,26.6L9.4,90.6z M0,32v64l55.4,32h0l55.4-32V32L55.4,0L0,32z" class="st1"/><g class="st2"><path d="M11.8,89.2V38.8l43.7-25.2l43.7,25.2v50.4l-43.7,25.2L11.8,89.2z M55.4,10.9l-46,26.6v53.1l46,26.6l46-26.6 V37.4L55.4,10.9z" class="st3"/></g><g><path d="M81.5,49.4c-0.7,0-1.4,0.2-2,0.5v-2.4c0-2.5-2-4.6-4.6-4.6c-0.7,0-1.4,0.2-2,0.5c-0.4-2.1-2.2-3.8-4.5-3.8 s-4.1,1.6-4.5,3.8c-0.6-0.3-1.3-0.5-2-0.5c-2.5,0-4.6,2-4.6,4.6v2.4c-0.6-0.3-1.3-0.5-2-0.5V52c1.1,0,2,0.9,2,2v9.1H60V54v-6.5 c0-1.1,0.9-2,2-2c1.1,0,2,0.9,2,2v15.6h2.6V47.5v-3.3c0-1.1,0.9-2,2-2c1.1,0,2,0.9,2,2v3.3v15.6H73V47.5c0-1.1,0.9-2,2-2 s2,0.9,2,2V54v9.1h2.6V54c0-1.1,0.9-2,2-2c1.1,0,2,0.9,2,2v9.1H86V54C86,51.5,84,49.4,81.5,49.4z" class="st4"/><path d="M27.4,54c0-1.1,0.9-2,2-2s2,0.9,2,2v9.1h2.6V47.5c0-1.1,0.9-2,2-2c1.1,0,2,0.9,2,2v15.6h2.6V47.5v-3.3 c0-1.1,0.9-2,2-2c1.1,0,2,0.9,2,2v3.3v14.1v1.5H47v-1.5V47.5c0-1.1,0.9-2,2-2c1.1,0,2,0.9,2,2V54v9.1h2.6V54c0-1.1,0.9-2,2-2v-2.6 c-0.7,0-1.4,0.2-2,0.5v-2.4c0-2.5-2-4.6-4.6-4.6c-0.7,0-1.4,0.2-2,0.5c-0.4-2.1-2.2-3.8-4.5-3.8s-4.1,1.6-4.5,3.8 c-0.6-0.3-1.3-0.5-2-0.5c-2.5,0-4.6,2-4.6,4.6v2.4c-0.6-0.3-1.3-0.5-2-0.5c-2.5,0-4.6,2-4.6,4.6v9.1h2.6V54z" class="st3"/><path d="M83.4,67c0,1.1-0.9,2-2,2c-1.1,0-2-0.9-2-2v-3.9h-2.6V67v6.5c0,1.1-0.9,2-2,2s-2-0.9-2-2V63.1h-2.6v10.4V80 c0,1.1-0.9,2-2,2c-1.1,0-2-0.9-2-2v-6.4V63.1h-2.6v10.5V80v3.3c0,1.1-0.9,2-2,2c-1.1,0-2-0.9-2-2V63.1h-2.6v20.2v6.5 c0,1.1-0.9,2-2,2v2.6c2.5,0,4.6-2,4.6-4.6v-2.4c0,0,0.1,0,0.1,0c0.2,0.1,0.4,0.1,0.6,0.2c0.1,0,0.2,0.1,0.3,0.1 c0.3,0.1,0.6,0.1,1,0.1c2.2,0,4.1-1.6,4.5-3.8c0.6,0.3,1.3,0.5,2,0.5c2.5,0,4.6-2,4.6-4.6v-2.4c0.6,0.3,1.3,0.5,2,0.5 c2.5,0,4.6-2,4.6-4.6v-2.4c0.6,0.3,1.3,0.5,2,0.5c2.5,0,4.6-2,4.6-4.6v-3.9h-2.6V67z" class="st3"/><path d="M53.5,89.8v-6.2v-0.3v-0.6v-9.2V63.1h-2.6v10.4v9.2v0.6c0,1.1-0.9,2-2,2c-1.1,0-2-0.9-2-2V63.1h-2.6V80 c0,1.1-0.9,2-2,2c-1.1,0-2-0.9-2-2v-6.5V63.1h-2.6v10.4c0,1.1-0.9,2-2,2c-1.1,0-2-0.9-2-2V63.1h-2.6V67c0,1.1-0.9,2-2,2 s-2-0.9-2-2v-3.9h-2.6V67c0,2.5,2,4.6,4.6,4.6c0.7,0,1.4-0.2,2-0.5v2.4c0,2.5,2,4.6,4.6,4.6c0.7,0,1.4-0.2,2-0.5V80 c0,2.5,2,4.6,4.6,4.6c0.7,0,1.4-0.2,2-0.5c0.4,2.1,2.2,3.8,4.5,3.8c0.7,0,1.4-0.2,2-0.5v2.4c0,2.5,2,4.6,4.6,4.6v-2.6 C54.3,91.7,53.5,90.9,53.5,89.8z" class="st4"/></g></g></svg>