<svg xmlns="http://www.w3.org/2000/svg" xmlns:xlink="http://www.w3.org/1999/xlink" id="Layer_1" x="0" y="0" version="1.1" viewBox="0 0 110.9 128" xml:space="preserve" style="enable-background:new 0 0 110.9 128"><style type="text/css">.st0{fill:#766a68}.st1{opacity:.38;fill:#df9079}.st2{opacity:.13}.st3{fill:#df9079}.st4{fill:#e6d9a5}</style><g><polygon points="55.4 128 110.9 96 110.9 32 55.4 0 55.4 0 0 32 0 96" class="st0"/><path d="M101.4,37.4l0,53.1l-46,26.6l-46-26.6l0-53.1l46-26.6L101.4,37.4z M110.9,96l0-64L55.4,0l0,0L0,32l0,64 l55.4,32L110.9,96z" class="st1"/><g class="st2"><path d="M99.1,38.8l0,50.4l-43.7,25.2L11.8,89.2l0-50.4l43.7-25.2L99.1,38.8z M55.4,117.1l46-26.6l0-53.1l-46-26.6 l-46,26.6l0,53.1L55.4,117.1z" class="st3"/></g><g><polygon points="74.5 44.5 74.7 75.3 78 77.3 77.9 38.4 56.8 50.7 60.3 52.7" class="st4"/><polygon points="72.9 51 72.9 47.1 61.8 53.6 65.2 55.5" class="st4"/><polygon points="57.6 63.6 31.2 48.1 31.3 89.6 27.3 87.5 27.3 41.8 61.1 61.6" class="st3"/><polygon points="45.7 72.4 37.9 77 37.9 80.9 49.1 74.4 49.1 74.3 49.1 74.3" class="st3"/><polygon points="50.6 75.2 36.3 83.5 36.2 52.7 32.8 50.7 32.9 89.6 54.1 77.2" class="st3"/><polygon points="44.3 57.9 38.4 61.4 38.4 65.5 47.8 60" class="st4"/><polygon points="79.1 89.6 82.7 87.5 54.5 70.9 54.5 70.9 46.7 66.4 52.7 62.9 49.3 60.9 39.2 66.7 50.3 73.1 50.3 73.1" class="st4"/><polygon points="83.6 86.2 83.6 40.5 79.6 38.4 79.6 79.9 60.8 68.8 60.8 68.8 53.2 64.4 49.8 66.4 55.8 69.9 55.8 69.9" class="st4"/><g><polygon points="66 70.3 72.4 66.6 72.4 62.5 62.5 68.3" class="st3"/><polygon points="60.8 67.3 60.8 67.3 61 67.4 71.6 61.3 31.8 38.4 28.1 40.5 64.1 61.6 57.7 65.4" class="st3"/></g></g></g></svg>