<svg xmlns="http://www.w3.org/2000/svg" xmlns:xlink="http://www.w3.org/1999/xlink" id="Layer_1" x="0" y="0" version="1.1" viewBox="0 0 110.9 128" xml:space="preserve" style="enable-background:new 0 0 110.9 128"><style type="text/css">.st0{fill:#766a68}.st1{opacity:.38;fill:#df9079}.st2{opacity:.13}.st3{fill:#df9079}.st4{fill:#e6d9a5}</style><g><g><polygon points="55.4 0 0 32 0 96 55.4 128 55.4 128 110.9 96 110.9 32" class="st0"/><path d="M9.4,90.6V37.4l46-26.6l46,26.6v53.1l-46,26.6L9.4,90.6z M0,32v64l55.4,32h0l55.4-32V32L55.4,0L0,32z" class="st1"/><g class="st2"><path d="M11.8,89.2V38.8l43.7-25.2l43.7,25.2v50.4l-43.7,25.2L11.8,89.2z M55.4,10.9l-46,26.6v53.1l46,26.6l46-26.6 V37.4L55.4,10.9z" class="st3"/></g></g><g><path d="M41.4,95.1c-0.7,0-1.3,0-1.9-0.1c-0.8-0.1-1.4-0.9-1.2-1.7c0.1-0.8,0.9-1.4,1.7-1.2c1.4,0.2,3.7,0,5.7-0.3 c1.4-0.2,2.7-0.3,3.8-0.3c3.1,0,3.5-0.8,4.1-2.1c1.2-2.5,2.6-4.5,9.1-4.5c5.5,0,6.5,3.2,7.2,5.2c0.5,1.4,0.7,1.8,1.3,2 c0.8,0.2,1.3,1,1.1,1.8c-0.2,0.8-1,1.3-1.8,1.1c-2.4-0.6-3-2.5-3.5-4c-0.6-1.9-1-3.2-4.4-3.2c-5.1,0-5.7,1.3-6.4,2.8 c-1,2.1-2.2,3.9-6.8,3.9c-0.9,0-2.1,0.1-3.5,0.3C44.5,94.9,42.9,95.1,41.4,95.1z" class="st3"/></g><g><path d="M47.2,91.3c-1.4,0-3-0.2-4.8-0.7c-3.5-0.9-7.2-1.5-10.1-1.5c-0.8,0-1.5-0.7-1.5-1.5c0-0.8,0.7-1.5,1.5-1.5 c0,0,0,0,0,0c1.8,0,5.7,0.3,10.8,1.6c7.3,1.9,9.6-1.2,11.9-4.5c1.5-2.1,3-4.3,5.8-4.6c3.1-0.4,7,1.7,12.7,6.7 c0.6,0.5,0.7,1.5,0.1,2.1c-0.5,0.6-1.5,0.7-2.1,0.1c-4.8-4.2-8.3-6.2-10.4-6c-1.4,0.2-2.3,1.4-3.8,3.4 C55.6,87.7,53.1,91.3,47.2,91.3z" class="st3"/></g><g><path d="M41.5,85.1c-2.4,0-4.8-0.3-7.2-1.1l-0.1-0.1c-2.6-1.2-4.8-1-6.8-0.8c-0.7,0.1-1.3,0.1-1.9,0.1 c-0.8,0-1.5-0.7-1.5-1.5c0-0.8,0.7-1.5,1.5-1.5c0,0,0,0,0,0c0.5,0,1,0,1.6-0.1c2-0.2,4.9-0.4,8.2,1c6.6,2.2,12.8,0.3,19.4-1.6 c6.7-2,13.6-4,21-1.6c0.8,0.3,1.6,0.5,2.3,0.8c2.5,0.9,4.2,1.5,7.4,1.5c0.8,0,1.5,0.7,1.5,1.5c0,0.8-0.7,1.5-1.5,1.5c0,0,0,0,0,0 c-3.7,0-5.9-0.8-8.4-1.7c-0.7-0.2-1.4-0.5-2.2-0.7c-6.5-2.1-12.7-0.3-19.2,1.6C51,83.7,46.3,85.1,41.5,85.1z" class="st3"/></g><g><path d="M40,82.3c-4.8,0-10-1.7-15.1-5.1c-0.7-0.5-0.9-1.4-0.4-2.1c0.5-0.7,1.4-0.9,2.1-0.4 c6.6,4.4,12.9,5.7,18.7,3.8c3-0.8,5.9-1.9,8.8-2.9c10.3-3.6,20.9-7.4,32.1-1.2c0.7,0.4,1,1.3,0.6,2c-0.4,0.7-1.3,1-2,0.6 c-10.1-5.6-19.6-2.2-29.7,1.4c-2.9,1-5.9,2.1-8.9,2.9C44.1,82,42.1,82.3,40,82.3z" class="st3"/></g><g><path d="M39,76.7c-4.6,0-9.4-1.5-14.5-5.5c-0.6-0.5-0.8-1.5-0.2-2.1c0.5-0.6,1.5-0.8,2.1-0.2 c10.3,8.3,18.8,4.5,28.7,0.1c5-2.2,10.1-4.5,15.7-5.3l0.2,0c4.6,0,10.5,0.6,15.3,5.1c0.6,0.6,0.6,1.5,0.1,2.1 c-0.6,0.6-1.5,0.6-2.1,0.1c-4-3.7-8.9-4.3-13.1-4.3c-5.2,0.8-10.1,2.9-14.8,5C50.8,74.1,45.1,76.7,39,76.7z" class="st3"/></g><g><path d="M39,71.1c-4.3,0-9.4-2-14.5-5.7c-0.7-0.5-0.8-1.4-0.3-2.1c0.5-0.7,1.4-0.8,2.1-0.3c5.8,4.2,11.6,6,15.6,4.6 c2.1-0.7,4.6-1.9,7.2-3.1c9.9-4.6,23.4-10.9,36.6-2.1c0.8,0.1,1.4,0.7,1.4,1.5c0,0.8-0.7,1.5-1.5,1.5l-0.8,0l-0.4-0.3 c-11.9-8.2-24.2-2.5-34.1,2.1c-2.7,1.3-5.3,2.5-7.5,3.2C41.7,70.9,40.4,71.1,39,71.1z" class="st3"/></g><g><path d="M37.6,64.1c-1.9,0-11.6-1.4-13.5-5.2c-0.4-0.7-0.1-1.6,0.7-2c0.7-0.4,1.6-0.1,2,0.7c0.9,1.8,8,3.6,10.8,3.6 c6.8,0,12.5-2.8,18-5.5c9.1-4.5,18.5-9.1,30.7,1.4c0.6,0.5,0.7,1.5,0.2,2.1c-0.5,0.6-1.5,0.7-2.1,0.2c-10.7-9.2-18.1-5.6-27.4-1 C51.1,61.1,45.1,64.1,37.6,64.1z" class="st3"/></g><g><path d="M35.4,56.4c-3.5,0-7.1-0.8-10.7-2.8c-0.7-0.4-1-1.3-0.6-2c0.4-0.7,1.3-1,2-0.6c7.8,4.4,15.4,1.9,23.4-0.7 c7.1-2.4,14.5-4.8,22.6-2.6c1.8,0.4,3.6,0.9,5.4,1.4c2.9,0.8,5.6,1.5,7.9,1.7c0.8,0.1,1.4,0.8,1.4,1.6c-0.1,0.8-0.8,1.4-1.6,1.4 c-2.6-0.2-5.4-1-8.5-1.8c-1.7-0.5-3.5-0.9-5.3-1.3c-7.3-2-14.2,0.3-21,2.5C45.6,54.7,40.6,56.4,35.4,56.4z" class="st3"/></g><g><path d="M39.1,51.8c-1.2,0-2.3-0.1-3.3-0.3c-1.2-0.2-2.4-0.9-3.7-1.6c-1.9-1-4.2-2.1-6.5-2.1c-0.8,0-1.5-0.7-1.5-1.5 c0-0.8,0.7-1.5,1.5-1.5c0,0,0,0,0,0c3.1,0,5.8,1.4,7.9,2.5c1.1,0.6,2.2,1.1,3,1.3c4.2,0.9,10-0.6,16.1-2.2 c8.5-2.2,18.1-4.7,26.4-1.5c0.8,0.3,1.2,1.2,0.9,1.9c-0.3,0.8-1.2,1.2-1.9,0.9c-7.4-2.8-16.1-0.5-24.6,1.6 C48.1,50.6,43.3,51.8,39.1,51.8z" class="st3"/></g><g><path d="M49,48c-3.5,0-7.3-1.5-11.5-5.8c-0.6-0.6-0.6-1.5,0-2.1c0.6-0.6,1.5-0.6,2.1,0c7.3,7.5,12.4,4.8,18.4,1.8 c4.1-2.1,8.2-4.2,13.1-3h0.4c0.8,0,1.5,0.7,1.5,1.5s-0.7,1.5-1.5,1.5l-1,0c-3.9-1-7.4,0.8-11.2,2.7C56.2,46.2,52.8,48,49,48z" class="st3"/></g><g><path d="M32.4,89.1c0.8,0,1.5-0.7,1.5-1.5s-0.7-1.5-1.5-1.5H11.8v3H32.4z" class="st4"/><path d="M25.5,83.2c0.8,0,1.5-0.7,1.5-1.5s-0.7-1.5-1.5-1.5H11.8v3H25.5z" class="st4"/><path d="M13.7,77.3c3.3,0,7.1,0,11.4,0c0.2,0.1,0.4,0.1,0.6,0.1c0.5,0,1-0.2,1.2-0.7c0.5-0.7,0.3-1.6-0.4-2.1L26,74.3 l-0.5,0c-4.5,0-8.5,0-11.9,0h-1.9v3H13.7z" class="st4"/><path d="M71,91.9c-0.8,0-1.5,0.7-1.5,1.5s0.7,1.5,1.5,1.5h18.1l5.2-3H71z" class="st4"/><polygon points="79 100.8 84.2 97.8 26.7 97.8 31.9 100.8" class="st4"/><path d="M39.8,94.9c0.8,0,1.5-0.7,1.5-1.5s-0.7-1.5-1.5-1.5H16.5l5.2,3H39.8z" class="st4"/><path d="M13.7,59.6c3.1,0,6.7,0,10.6,0.1l1.1,0c0,0,0,0,0,0c0.8,0,1.5-0.7,1.5-1.5c0-0.8-0.7-1.5-1.5-1.5l-1.1,0 c-4,0-7.6-0.1-10.7-0.1h-1.9v3H13.7z" class="st4"/><path d="M13.7,53.7c3.4,0,7.4,0,11.8,0c0,0,0,0,0,0c0.8,0,1.5-0.7,1.5-1.5c0-0.8-0.7-1.5-1.5-1.5c-4.4,0-8.4,0-11.8,0 h-1.9v3H13.7z" class="st4"/><path d="M25.5,47.8c0.8,0,1.5-0.7,1.5-1.5s-0.7-1.5-1.5-1.5H11.8v3H25.5z" class="st4"/><path d="M25.5,41.9c4.3,0,9.1,0,12.9,0.7c0.1,0,0.2,0,0.3,0c0.7,0,1.3-0.5,1.5-1.2c0.1-0.8-0.4-1.6-1.2-1.7 c-4-0.7-9-0.7-13.4-0.7H11.8v3H25.5z" class="st4"/><path d="M13.7,65.6c3.1,0,6.7,0,10.6,0.1l1.1,0c0,0,0,0,0,0c0.8,0,1.5-0.7,1.5-1.5c0-0.8-0.7-1.5-1.5-1.5l-1.1,0 c-4,0-7.6-0.1-10.7-0.1h-1.9v3H13.7z" class="st4"/><path d="M13.7,71.4c3.1,0,6.6,0,10.6,0.1l1.2,0c0,0,0,0,0,0c0.8,0,1.5-0.7,1.5-1.5c0-0.8-0.7-1.5-1.5-1.5l-1.2,0 c-4,0-7.6-0.1-10.6-0.1h-1.9v3H13.7z" class="st4"/><path d="M85.4,86.1c-4.2,0-9,0-12.2-1.1c-0.8-0.3-1.6,0.1-1.9,0.9c-0.3,0.8,0.1,1.6,0.9,1.9c3.7,1.3,8.7,1.3,13.2,1.3 h13.7v-3H85.4z" class="st4"/><path d="M97.2,50.7c-3.4,0-7.4,0-11.8,0c0,0,0,0,0,0c-0.8,0-1.5,0.7-1.5,1.5c0,0.8,0.7,1.5,1.5,1.5 c4.4,0,8.5,0,11.8,0h1.9v-3H97.2z" class="st4"/><polygon points="42.1 21.3 36.9 24.3 74 24.3 68.8 21.3" class="st4"/><path d="M85.4,80.2c-0.8,0-1.5,0.7-1.5,1.5s0.7,1.5,1.5,1.5h13.7v-3H85.4z" class="st4"/><polygon points="31.9 27.2 26.7 30.2 84.2 30.2 79 27.2" class="st4"/><polygon points="74 103.7 36.9 103.7 42.1 106.7 68.8 106.7" class="st4"/><polygon points="47.1 18.4 63.8 18.4 58.6 15.4 52.3 15.4" class="st4"/><polygon points="63.8 109.6 47.1 109.6 52.3 112.6 58.6 112.6" class="st4"/><polygon points="21.7 33.1 16.5 36.1 94.4 36.1 89.2 33.1" class="st4"/><path d="M71.6,38.9c-0.8,0-1.5,0.7-1.5,1.5s0.7,1.5,1.5,1.5h27.5v-3H71.6z" class="st4"/><path d="M97.2,62.5c-3.3,0-7.2,0-11.4-0.1c-0.9,0-1.5,0.7-1.5,1.5c0,0.8,0.7,1.5,1.5,1.5c4.3,0,8.2,0.1,11.5,0.1h1.9 v-3H97.2z" class="st4"/><path d="M97.2,74.3c-3.4,0-7.4,0-11.8,0c0,0,0,0,0,0c-0.8,0-1.5,0.7-1.5,1.5c0,0.8,0.7,1.5,1.5,1.5 c4.4,0,8.4,0,11.8,0h1.9v-3H97.2z" class="st4"/><path d="M97.2,68.4c-3.4,0-7.4,0-11.8-0.1c0,0,0,0,0,0c-0.8,0-1.5,0.7-1.5,1.5c0,0.8,0.7,1.5,1.5,1.5 c4.4,0,8.4,0.1,11.8,0.1h1.9v-3H97.2z" class="st4"/><path d="M85.4,44.8c-2.2,0-4.6,0-7-0.1c-0.8,0-1.5,0.6-1.5,1.5c0,0.8,0.6,1.5,1.5,1.5c2.5,0.1,4.9,0.1,7.1,0.1h13.7 v-3H85.4z" class="st4"/><path d="M97.2,56.6c-3.4,0-7.4,0-11.8,0c-0.9,0-1.5,0.7-1.5,1.5s0.7,1.5,1.5,1.5c4.4,0,8.5,0,11.8,0h1.9v-3H97.2z" class="st4"/></g></g></svg>