<svg xmlns="http://www.w3.org/2000/svg" xmlns:xlink="http://www.w3.org/1999/xlink" id="Layer_1" x="0" y="0" version="1.1" viewBox="0 0 110.9 128" xml:space="preserve" style="enable-background:new 0 0 110.9 128"><style type="text/css">.st0{fill:#766a68}.st1{opacity:.38;fill:#df9079}.st2{opacity:.13}.st3{fill:#df9079}.st4{fill:#e6d9a5}</style><g><polygon points="55.4 128 110.9 96 110.9 32 55.4 0 55.4 0 0 32 0 96" class="st0"/><path d="M101.4,37.4l0,53.1l-46,26.6l-46-26.6l0-53.1l46-26.6L101.4,37.4z M110.9,96l0-64L55.4,0l0,0L0,32l0,64 l55.4,32L110.9,96z" class="st1"/><g class="st2"><path d="M99.1,38.8l0,50.4l-43.7,25.2L11.8,89.2l0-50.4l43.7-25.2L99.1,38.8z M55.4,117.1l46-26.6l0-53.1l-46-26.6 l-46,26.6l0,53.1L55.4,117.1z" class="st3"/></g><g><polygon points="52.5 46 27.7 88.2 84.8 88.2 87.5 83.2 35.5 83.3 54.9 50.3" class="st3"/><polygon points="26 87.2 52.5 42.1 71.7 74.9 76.5 74.9 52 32.7 23.4 82.6" class="st3"/><polygon points="87.4 81.2 58.7 31.8 53.6 31.8 79.9 76.9 41.3 77.1 38.7 81.3" class="st4"/></g></g></svg>