<svg xmlns="http://www.w3.org/2000/svg" xmlns:xlink="http://www.w3.org/1999/xlink" style="enable-background:new 0 0 110.9 128.2" id="Layer_1" x="0" y="0" version="1.1" viewBox="0 0 110.9 128.2" xml:space="preserve"><style type="text/css">.st0{fill:#3d5c6b}.st1{fill:#fff}.st2{opacity:.13}.st3,.st4{fill-rule:evenodd;clip-rule:evenodd;fill:#6cd8af}.st4{fill:url(#Fill-18_1_)}.st5{fill:#59d1a0}.st10{fill-rule:evenodd;clip-rule:evenodd}.st6{fill:url(#Fill-22_1_)}.st6,.st7,.st8,.st9{fill-rule:evenodd;clip-rule:evenodd}.st7{fill:url(#Fill-3_1_)}.st8{fill:#93e5cf}.st9{fill:url(#Fill-5_1_)}.st10{fill:url(#Fill-6_2_)}.st11{fill:url(#Fill-8_1_)}.st11,.st12,.st13,.st14,.st15,.st16{fill-rule:evenodd;clip-rule:evenodd}.st12{fill:url(#Fill-9_1_)}.st13{fill:#3d5c6b}.st14{fill:url(#Fill-19_1_)}.st15{fill:url(#SVGID_1_)}.st16{fill:url(#SVGID_2_)}.st17{fill:none;stroke:#59d1a0;stroke-width:.5}</style><polygon points="55.4 .3 .1 32.2 .1 96 55.4 127.9 110.6 96 110.6 32.2" class="st0"/><polygon points="55.4 11.7 9.9 37.9 9.9 90.3 55.4 116.5 100.8 90.3 100.8 37.9" class="st1"/><g class="st2"><polygon points="55.4 12.7 10.8 38.4 10.8 89.8 55.4 115.6 99.9 89.8 99.9 38.4" class="st1"/><path d="M55.4,116.7L9.8,90.4V37.8l45.6-26.3l45.6,26.3v52.6L55.4,116.7z M11.8,89.3l43.6,25.1l43.6-25.1V39L55.4,13.8L11.8,39 V89.3z"/></g><g id="pegasys-kudos"><g id="Group-12"><g id="Group-11" transform="translate(18.000000, 35.000000)"><g id="Group-9"><g id="Group-6"><g><g id="Group-7" transform="translate(8.510491, 22.279808) rotate(-9.000000) translate(-8.510491, -22.279808) translate(1.233895, 14.171700)"><g transform="translate(6.381083, 7.471734) rotate(-15.000000) translate(-6.381083, -7.471734) translate(1.530019, 1.390653)"><g id="Group-5" transform="translate(0.056711, 0.014205)"><path id="Line" d="M3.2,4.5L6,5.3l2-2.1L4.5-0.1L3.2,4.5z M4.6-0.6l3.8,3.7c0.1,0.1,0.1,0.2,0,0.3L6.2,5.7 C6.1,5.8,6,5.8,6,5.8L2.8,4.9c-0.1,0-0.2-0.1-0.1-0.3l1.5-5.1C4.3-0.7,4.5-0.7,4.6-0.6z" class="st0"/><path id="Path-2" d="M3,4.8c-0.1,0.1-0.2,0.1-0.3,0c0-0.1,0-0.2,0.1-0.3l2.4-1.9c0,0,0.1-0.1,0.2,0l3,0.4 c0.1,0,0.2,0.1,0.2,0.2S8.4,3.4,8.3,3.4L5.3,3L3,4.8z" class="st0"/><path id="Path-3" d="M6.9,8.5l1.2-3.3L6.5,6.8c0,0-0.1,0-0.2,0L4.1,6.2L6.9,8.5z M6.3,6.4l2.2-2.2 c0.2-0.2,0.4,0,0.3,0.2L7.1,8.9C7.1,9,6.9,9.1,6.8,9L3.1,5.9c-0.2-0.1,0-0.4,0.2-0.4L6.3,6.4z" class="st0"/></g></g><path id="Fill-17" d="M14.9,9.4l0.3,0.1c0.1,0,0.1,0.2,0,0.3l-0.3,0.1c-0.5,0.1-0.9,0.5-1,1l-0.1,0.3 c0,0.1-0.2,0.1-0.3,0l-0.1-0.3c-0.1-0.5-0.5-0.9-1-1l-0.3-0.1c-0.1,0-0.1-0.2,0-0.3l0.3-0.1c0.5-0.1,0.9-0.5,1-1l0.1-0.3 c0-0.1,0.2-0.1,0.3,0l0.1,0.3C14,8.9,14.4,9.3,14.9,9.4" class="st3"/><linearGradient id="Fill-18_1_" x1="-291.509" x2="-291.089" y1="76.433" y2="76.623" gradientTransform="matrix(1.9469 1.626977e-05 -4.206021e-05 1.9355 574.2639 -134.8812)" gradientUnits="userSpaceOnUse"><stop style="stop-color:#3d5c6b" offset="0"/><stop style="stop-color:#3d5c6b" offset="1"/></linearGradient><path id="Fill-18" d="M7.8,13.2H8c0.1,0,0.1,0.1,0,0.2H7.8c-0.3,0.1-0.5,0.3-0.6,0.6l0,0.2c0,0.1-0.1,0.1-0.2,0 V14c-0.1-0.3-0.3-0.5-0.6-0.6H6.2c-0.1,0-0.1-0.1,0-0.2h0.2c0.3-0.1,0.5-0.3,0.6-0.6v-0.2c0-0.1,0.1-0.1,0.2,0v0.2 C7.3,12.9,7.5,13.2,7.8,13.2" class="st4"/></g><g id="Group-2" transform="translate(60.075682, 12.715264)"><g transform="translate(7.859435, 7.811028) rotate(-330.000000) translate(-7.859435, -7.811028) translate(3.008371, 1.729947)"><g id="Group-3"><path d="M2.7-0.6L1.4,4l2.8,0.8l2-2.1L2.7-0.6z M2.8-1.1l3.9,3.6c0.1,0.1,0.1,0.2,0,0.3L4.4,5.2 c-0.1,0-0.1,0.1-0.2,0L1,4.3C0.9,4.3,0.8,4.2,0.9,4l1.5-5C2.5-1.2,2.7-1.2,2.8-1.1z" class="st5" transform="translate(0.098737, 0.082760)"/><path d="M1.2,4.3C1.1,4.4,1,4.4,0.9,4.3c0-0.1,0-0.2,0.1-0.3l2.4-1.9c0,0,0.1-0.1,0.2,0l3,0.4 c0.1,0,0.2,0.1,0.2,0.2c0,0.1-0.1,0.2-0.2,0.2l-3-0.4L1.2,4.3z" class="st5" transform="translate(0.098737, 0.082760)"/><path d="M5,8l1.2-3.3L4.7,6.3c-0.1,0-0.2,0-0.2,0L2.3,5.7L5,8z M6.7,3.7c0.2-0.2,0.4,0,0.3,0.2L5.3,8.4 C5.2,8.5,5.1,8.6,5,8.5L1.3,5.4C1.1,5.3,1.2,5,1.4,5.1l3,0.8L6.7,3.7z" class="st5" transform="translate(0.098737, 0.082760)"/></g></g><linearGradient id="Fill-22_1_" x1="-427.913" x2="-427.493" y1="62.928" y2="63.114" gradientTransform="matrix(2.5327 0 0 2.4953 1086.1351 -147.179)" gradientUnits="userSpaceOnUse"><stop style="stop-color:#3d5c6b" offset="0"/><stop style="stop-color:#3d5c6b" offset="1"/></linearGradient><path id="Fill-22" d="M1.9,9.9L1.7,10c-0.1,0-0.1,0.2,0,0.2l0.2,0.1c0.4,0,0.7,0.3,0.8,0.7l0.1,0.2 c0,0.1,0.2,0.1,0.2,0V11c0.1-0.4,0.4-0.7,0.8-0.8L4,10.1c0.1,0,0.1-0.2,0-0.2L3.8,9.8C3.4,9.7,3.1,9.4,3,9L2.9,8.8 c0-0.1-0.2-0.1-0.2,0v0.3C2.6,9.5,2.3,9.8,1.9,9.9" class="st6"/><path id="Fill-23" d="M7.6,12.7L7.6,12.7c-0.1,0-0.1,0.1,0,0.2C8,13,8.3,13.3,8.4,13.7c0,0.1,0.1,0.1,0.2,0 C8.7,13.3,9,13,9.4,12.9c0.1,0,0.1-0.1,0-0.2c-0.4-0.1-0.7-0.4-0.8-0.8c0-0.1-0.1-0.1-0.2,0C8.3,12.3,8,12.6,7.6,12.7" class="st3"/></g><linearGradient id="Fill-3_1_" x1="-476.928" x2="-476.928" y1="2.737" y2="3.738" gradientTransform="matrix(52.5657 0 0 57.0088 25108.6152 -155.1856)" gradientUnits="userSpaceOnUse"><stop style="stop-color:#59d1a0" offset="0"/><stop style="stop-color:#bcf3f0" offset="1"/></linearGradient><path id="Fill-3" d="M23.5,8.3c0,0.2-0.1,0.4-0.3,0.6c-0.3,0.4-0.9,0.6-1.4,0.4c-0.2-0.1-0.6-0.2-0.7-0.4 c-0.1-0.3,0.2-0.5,0.4-0.4c0.4,0.1,0.8,0.2,1.1-0.1c0.1-0.1,0.2-0.3,0.2-0.5c0.1-0.2,0.3-0.4,0.5-0.2 C23.6,7.8,23.6,8.1,23.5,8.3z M16.4,11.4c-0.1,0.1-0.1,0.2-0.2,0.3c-0.2,0.2-0.7,0.3-0.8-0.1c-0.1-0.2,0.2-0.5,0.3-0.6 s0.5-0.3,0.7-0.1C16.5,11,16.5,11.3,16.4,11.4z M43.7,16.6c0.8,0,4.4-0.2,4.7-0.2c2.4-0.1,5-0.4,7.2-1.4 c1.1-0.5,2.1-1.2,2.8-2.3c0.3-0.4,0.5-0.8,0.6-1.2s-0.2-0.7-0.6-0.5c-2.1,1.2-4.6,1.8-6.9,2c-1.3,0.1-8.7,0.8-8.7,0.7 c0.2,0.4,0.4,1.2,0.8,2.6L43.7,16.6z M42.1,23.7c-0.8,0.9-1.9,1.7-3.1,2.1c-0.2,0.1-0.7,0.1-0.8,0c-0.5-0.3,0.2-0.4,0.4-0.5 c0.6-0.2,1.2-0.6,1.7-1c2.2-1.6,3.1-4.1,2.8-6.8c-0.3-2.4-1.3-4.6-2.3-6.8c-0.4-1,0.3-1.9,1.3-1.9c0.6,0,1.3,0,1.9,0 c3.8-0.1,7.5-0.5,11.2-1.4c2.2-0.6,4.4-1.4,6.4-2.6c1.3-0.8,2.5-1.9,3.3-3.2c0.3-0.5-0.2-1-0.7-0.8c-2.7,1.4-5.6,2.3-8.5,3 c-3.5,0.9-7,1.4-10.6,1.7c-0.9,0.1-1.8,0.2-2.7,0.2c-0.8,0.1-1.7,0-2.5,0.2c-0.7,0.1-1.5,0.4-1.9,1c-0.5,0.7-0.5,1.5-0.4,2.3 c0.2,1.8,1,3.4,1.7,5c0.9,1.9,1.8,3.8,0.9,6.2c-0.3,0.9-0.9,1.7-1.6,2.4c-1.1,1-2.5,1.5-4,1.3c-0.9-0.1-1.7-0.6-2.4-1.3 c-1.4-1.5-2-3.9-1.5-6.5c1.2-6.5-0.4-10.2-5.3-11.8c-0.1,0-0.2-0.1-0.2-0.2c-0.7-1.1-2.2-2.2-3.3-2.5l0.8,2.4 c0.1,0.2,0,0.4-0.2,0.5c0,0-3.7,2.7-7.4,5.9c-0.8,0.7-0.8,2-0.1,2.7c0.1,0.1,0.2,0.2,0.3,0.3c0.6-0.2,1.1-0.3,1.6-0.7 c0.3-0.2,0.6-0.4,0.8-0.7c0.1-0.1,0.2-0.3,0.3-0.4c0.1-0.1,0.1-0.2,0.2-0.3s0.3,0,0.4,0.1s0,0.3,0,0.4 c-0.1,0.3-0.3,0.7-0.6,0.9c-0.4,0.5-1,0.8-1.6,1C16.3,14,16.1,14,16,14c0.4,0.2,0.9,0.3,1.5,0.1c3.3-0.9,4.2-0.6,5.9-0.9 c0.7-0.2,1.2-0.5,1.6-0.9c0.2-0.2,0.4,0.4-0.1,0.8c-0.4,0.4-0.8,0.6-1.3,0.8c0,1.6-0.6,4.1-1.4,6.7c-0.8,2.8-1.5,5.7-1.5,7.7 c0,0.5,0,1,0.1,1.5c0,0.1,0,0.2,0,0.3c-0.1,0.2-0.3,0.3-0.5,0.2c-0.1,0-6.1-1.9-7.6,2.1c-0.8,2.2-0.8,6.4,1.6,9.6 c0.7,0.9,1.3,0.2,2.4,0.8c0,0-0.6-3.2-0.7-3.3c-0.8-0.7-0.8-2.7-0.8-3c0-1,0.4-1.8,1-2.3c0.7-0.5,1.7-0.5,2.9,0 c0.5,0.2,1.2,0.6,1.9,1.1c2.2,1.3,5.1,3.1,9.1,3.1c4.2,0,8.3-1.4,10.7-2.3c-0.4-0.8-0.4-2-0.2-2.1s0.5,1.2,1,2.1l0,0 c1.3,2.3,2.8,3.6,5,5.3l0.3,0.3c3.1,2.4,5.1,4,6.7,8c0.8,2,1,3.9,0.5,5.5c-0.3,0.9-0.5,1.3-1.2,2.2l2.9,0.4 c0.3,0,0.6-0.2,0.7-0.4c0.1-0.3,0.3-0.7,0.4-1.1c0.5-1.7,0.8-4.6-0.7-8.6c-0.7-1.9-1.3-3.2-1.7-4.2c-1-2.2-1.5-3.4-1.7-6.9 c-0.1-1.5,0-2.6,0.2-3.7c0.1-0.8,0.2-1.5,0.2-2.3c0-3.1-2-5.7-4.8-6.9c-0.5,0.3-1,0.4-1.6,0.6c-0.6,0.1-1.3,0.2-1.9,0.2 c-0.2,0-0.6,0-0.7-0.2c-0.1-0.2,0.1-0.3,0.3-0.4c0.5-0.1,1.1-0.2,1.6-0.3c0.7-0.1,1.3-0.4,1.9-0.7c0.4-0.2,0.7-0.5,1-0.9 c0.2-0.2,0.4-0.5,0.5-0.8s-0.1-0.6-0.4-0.6H49c-0.8,0.1-4.8,0.1-5.6,0C43.1,22.1,42.6,23.1,42.1,23.7z" class="st7"/><path id="Fill-4" d="M29.9,3.3c1.3,0.6,2.4,1.7,3.1,3c0.3,0.5,0.5,1,0.7,1.5c0.2,0.7,0.4,1.5,0.6,2.2 c0.2,0.9,0.1,1.4,0.1,2.4c-0.1,2.6-3,7.5-3,5.9c0-0.6,0-1.2,0.2-1.9c0.4-2.3,0.5-4.3,0.2-6C31.3,7,29.6,3.1,29.9,3.3" class="st8"/><linearGradient id="Fill-5_1_" x1="-423.517" x2="-423.147" y1="20.483" y2="20.675" gradientTransform="matrix(7.2565 0 0 7.7419 3100.7402 -153.595)" gradientUnits="userSpaceOnUse"><stop style="stop-color:#588296" offset="0"/><stop style="stop-color:#3d5c6b" offset="1"/></linearGradient><path id="Fill-5" d="M29.8,3.3c-0.4-0.2-0.7-0.3-1.1-0.4c-1.3-0.4-2.6-0.5-4-0.4c0.4,0.3,0.7,0.7,1,1.1 c3.5,1.2,5.5,3.3,6.1,6.6C32.5,5.9,31.1,4.1,29.8,3.3" class="st9"/><linearGradient id="Fill-6_2_" x1="-379.526" x2="-379.483" y1="12.181" y2="12.373" gradientTransform="matrix(4.2477 0 0 13.3724 1645.1866 -146.3814)" gradientUnits="userSpaceOnUse"><stop style="stop-color:#588296" offset="0"/><stop style="stop-color:#3d5c6b" offset="1"/></linearGradient><path id="Fill-6_1_" d="M33.7,20.4c-0.6-2.6,0.8-5.1,0.9-7.7c0-1-0.1-1.9-0.3-2.9c0-0.1,0-0.1,0-0.2 c0.6,3.6-2.7,5.9-3,8.6c0.1,1.5,0.5,2.8,1.4,3.7c0.8,0.8,1.8,1.2,2.6,1c0.1,0,0.1,0,0.2,0C34.6,22.3,34,21.5,33.7,20.4" class="st10"/><path id="Fill-7" d="M56.4,29.1c-0.6-2.8-3-4.1-4.8-4.5c-0.2-0.2-0.4-0.6-0.7-0.8c1.9-0.9,5.5-1.1,8.7,1.2 c4.3,3.1,2.5,8,3.2,11.4c0.9,4.2,3.7,6.9,3.7,6.9s-6.7,0.5-8.8-7.5C57,33.1,56.7,30.5,56.4,29.1" class="st8"/><linearGradient id="Fill-8_1_" x1="-456.567" x2="-456.326" y1="7.91" y2="8.102" gradientTransform="matrix(15.575 0 0 20.5865 7169.7207 -133.189)" gradientUnits="userSpaceOnUse"><stop style="stop-color:#588296" offset="0"/><stop style="stop-color:#3d5c6b" offset="1"/></linearGradient><path id="Fill-8" d="M60.2,27.4c2.5,6.5-0.9,11.9,6.3,16c-0.3-0.4-2.1-2.7-2.9-6.6c-0.7-3.4,0.2-9.4-4.1-12.6 c-3.2-2.4-6.6-1.3-8.5-0.4c0.1,0.1,0.2,0.2,0.3,0.3C54.7,22.7,58.6,23.4,60.2,27.4" class="st11"/><linearGradient id="Fill-9_1_" x1="-455.288" x2="-455.031" y1="8.594" y2="8.788" gradientTransform="matrix(14.8671 0 0 19.1789 6826.021 -131.7853)" gradientUnits="userSpaceOnUse"><stop style="stop-color:#588296" offset="0"/><stop style="stop-color:#3d5c6b" offset="1"/></linearGradient><path id="Fill-9" d="M61.1,40.6c-4-4.4-1-7.8-4.2-13.7c-1-1.9-3.6-3.1-5.6-2.6c0.1,0.1,0.1,0.2,0.3,0.3 c2.1,0.5,3.7,2.6,4.2,5.1c0.3,1.4,0.3,4,1.1,6.9c1.6,6.1,6.4,6.8,8.5,6.8c0.3,0,1.2,0,1.1,0C64.6,42.9,62.6,42.3,61.1,40.6" class="st12"/><path id="Fill-10" d="M30.5,39.3c1.1,3.3,2.4,8.6,1.7,13.9c-0.1,1.1-0.4,1.9-0.6,2.6c-0.1,0.4-0.3,0.9-0.4,1.2 s-3-1.2-2.6-2.1c0.9-2.2,1.1-4.3,0.8-6.2c-0.5-2.5-1.4-5.2-4.6-10.4l0,0c1.6,0.6,3.4,1,5.5,1C30.3,39.3,30.4,39.3,30.5,39.3" class="st8"/><path id="Fill-11" d="M41.3,37.1c1.1,1.9,2.3,3.1,4,4.4c0.4,1.1,0.9,2.2,1.5,3.6c1.3,3.3,1,7.3-0.6,10.3L46,55.7 c0,0.1-0.1,0.2-0.1,0.3c-0.3,0.5-0.5,1-0.8,1.3c-0.2,0.2-2.6-1.3-2.1-2.2c1.8-3.1,1.7-5.6,1.3-7.2c-0.4-1.6-1.8-3.2-3.3-4.9 c-0.5-0.5-1-1.1-1.4-1.6c-0.9-1.1-1.5-2.1-2-3.1C39,37.9,40.3,37.5,41.3,37.1" class="st8"/><path id="Fill-12" d="M17.2,44.5c0.4-0.1,0.3-2.8,0.3-2.8c-0.1-1.1-0.3-1.4-1.1-1.9c-0.1-0.1-0.2-0.2-0.3-0.2 c-0.7,0.7-1.3,1.6-1.8,2.5C15,43.1,16.8,44.6,17.2,44.5" class="st13"/><path id="Fill-13" d="M21.7,4.3c-0.2,0.2-0.7,0.5-1.2,1c0,0-4.1-5.5-5-6.9c-0.2-0.3-0.1-0.4,0.2-0.2 c3.2,2.6,5,4.3,5.6,4.8c0.1,0.1,0.2,0.2,0.2,0.3L21.7,4.3" class="st13"/><path id="Fill-14" d="M28.6,54.8c-0.3,0.6-1.9,2.8-1.5,2.8c1.4,0.2,2.7,0.2,3.3,0.1c0.3,0,0.6-0.3,0.7-0.6 c0.1-0.4,0.2-1,0.3-1.3C30,55.7,28.6,54.8,28.6,54.8" class="st13"/><path id="Fill-15" d="M43,55c-0.3,0.6-2.1,2.5-1.7,2.6c0.8,0.3,2.9,0.2,3.2,0.1c0.2-0.1,0.4-0.2,0.6-0.3 c0.3-0.4,0.6-1,0.8-1.5C44.2,55.8,43,55,43,55" class="st13"/><path id="Fill-16" d="M54.5,55c-0.3,0.7-1.9,2.6-1.6,2.7c1.3,0.4,2.7,0.2,3.4,0.1c0.3-0.1,0.5-0.2,0.6-0.5 c0.1-0.4,0.3-0.9,0.4-1.3C55.6,55.8,54.5,55,54.5,55" class="st13"/><linearGradient id="Fill-19_1_" x1="-231.052" x2="-230.631" y1="89.023" y2="89.213" gradientTransform="matrix(1.7699 0 0 1.7595 431.4076 -111.5426)" gradientUnits="userSpaceOnUse"><stop style="stop-color:#3d5c6b" offset="0"/><stop style="stop-color:#3d5c6b" offset="1"/></linearGradient><path id="Fill-19" d="M23.5,45.2h0.2c0.1,0,0.1,0.1,0,0.1L23.5,45.2c-0.3,0.2-0.5,0.4-0.5,0.6V46 c0,0.1-0.1,0.1-0.1,0v-0.2c-0.1-0.3-0.3-0.5-0.5-0.5h-0.2c-0.1,0-0.1-0.1,0-0.1h0.2c0.3-0.1,0.5-0.3,0.5-0.5v-0.2 c0-0.1,0.1-0.1,0.1,0v0.2C23,45,23.2,45.2,23.5,45.2" class="st14"/><path id="Fill-20" d="M37.9,47.1h0.2c0.1,0,0.1,0.2,0,0.2h-0.2c-0.3,0.1-0.6,0.3-0.7,0.6v0.2c0,0.1-0.2,0.1-0.2,0 v-0.2c-0.1-0.3-0.3-0.6-0.7-0.6h-0.2c-0.1,0-0.1-0.2,0-0.2h0.2c0.3-0.1,0.6-0.3,0.7-0.6v-0.2c0-0.1,0.2-0.1,0.2,0v0.2 C37.3,46.8,37.6,47.1,37.9,47.1" class="st3"/><linearGradient id="SVGID_1_" x1="-463.401" x2="-462.98" y1="22.115" y2="22.139" gradientTransform="matrix(20.1767 0 0 7.2141 9396.7705 -150.2622)" gradientUnits="userSpaceOnUse"><stop style="stop-color:#588296" offset="0"/><stop style="stop-color:#3d5c6b" offset="1"/></linearGradient><path d="M42.8,13c0.8-0.1,6-0.6,6.5-0.6c2.8-0.2,5.6-0.8,8.1-2c1.8-0.8,3.4-2.2,4.3-4.1c0.2-0.4-0.2-0.7-0.6-0.6 c-1.7,0.9-3.6,1.7-5.5,2.1c-4.5,1.1-9,1.5-13.6,1.5c-0.1,0-0.5,0.2-0.5,0.4c0,0.3,0.2,0.6,0.3,0.8c0.2,0.5,0.5,1.1,0.7,1.6 L42.8,13z" class="st15"/><linearGradient id="SVGID_2_" x1="-442.582" x2="-442.162" y1="47.188" y2="47.208" gradientTransform="matrix(10.4423 0 0 3.3431 4667.9771 -139.5237)" gradientUnits="userSpaceOnUse"><stop style="stop-color:#588296" offset="0"/><stop style="stop-color:#3d5c6b" offset="1"/></linearGradient><path d="M43.7,19.8c1,0.1,2.8,0.1,3,0.1c0.8,0,1.6,0,2.5-0.1c0.8-0.1,1.6-0.3,2.4-0.6c0.7-0.3,1.4-0.8,2-1.3 c0.3-0.2,0.5-0.5,0.6-0.7c0.2-0.3-0.1-0.7-0.4-0.6c-0.9,0.2-1.8,0.3-2.7,0.4c-1.1,0.1-4.8,0.4-7.2,0.3 C43.9,18.4,43.9,18.9,43.7,19.8z" class="st16"/></g></g><polygon id="Line-6" points="8.7 20.6 8.4 20.8 4.5 16.2 4.8 15.9" class="st0"/><polygon id="Line-7" points="10.8 23.2 10.5 23.5 9 21.6 9.3 21.3" class="st0"/></g><g id="Group-8" transform="translate(61.767161, 15.405405)"><g id="Group-10"><path id="Path-9" d="M6.2,4l1.6-6" class="st17"/></g><path id="Path-10" d="M5.4,7.2L6,5" class="st17"/></g></g></g></g></svg>