<svg xmlns="http://www.w3.org/2000/svg" xmlns:xlink="http://www.w3.org/1999/xlink" id="Layer_1" width="110.913" height="128.047" x="0" y="0" enable-background="new 0 0 110.913 128.047" version="1.1" viewBox="0 0 110.913 128.047" xml:space="preserve"><switch><g><g><defs><polygon id="SVGID_1_" points="101.52 90.631 101.52 37.43 55.42 10.831 9.319 37.43 9.319 90.631 55.42 117.23"/></defs><clipPath id="SVGID_2_"><use overflow="visible" xlink:href="#SVGID_1_"/></clipPath><g clip-path="url(#SVGID_2_)"><rect width="135.699" height="108.029" x="-12.73" y="9.536" fill="#343433"/><polygon fill="#989897" points="86.279 69.282 46.067 69.282 39.582 60.634 86.495 60.634"/><polygon fill="#FFF" points="86.447 62.519 86.495 60.634 39.582 60.634 40.996 62.519"/><rect width="99.44" height="25.363" x="-12.73" y="92.201" fill="#989897"/><rect width="99.44" height="1.007" x="-12.73" y="92.201" fill="#FFF"/><rect width="99.44" height="8.648" x="-12.73" y="81.822" fill="#989897"/><rect width="99.44" height=".898" x="-12.73" y="81.822" fill="#FFF"/><rect width="135.699" height="8.649" x="-12.73" y="35.558" fill="#989897"/><rect width="135.699" height="1.11" x="-12.73" y="35.558" fill="#FFF"/><polygon fill="#989897" points="31.366 79.876 -12.73 79.876 -12.73 71.229 24.88 71.229"/><polygon fill="#989897" points="24.447 69.282 -12.73 69.282 -12.73 60.634 17.746 60.634"/><polygon fill="#FFF" points="23.312 69.283 24.447 69.283 17.746 60.634 -12.73 60.634 -12.73 62.1 17.746 62.1"/><polygon fill="#989897" points="16.882 59.338 -12.73 59.338 -12.73 46.367 7.369 46.367"/><polygon fill="#FFF" points="16.113 59.548 16.882 59.548 7.369 46.577 -12.73 46.577 -12.73 47.624 7.369 47.624"/><polygon fill="#989897" points="68.767 33.613 -12.73 33.613 -12.73 21.29 59.254 21.29"/><polygon fill="#FFF" points="67.634 33.613 68.767 33.613 59.254 21.29 -12.73 21.29 -12.73 22.757 59.254 22.757"/><polygon fill="#989897" points="122.969 34.046 71.144 34.046 60.96 19.484 -12.73 19.563 -12.73 9.536 68.764 9.536 81.088 25.397 122.969 25.397"/><polygon fill="#FFF" points="81.088 22.898 68.764 9.536 -12.73 9.536 -12.73 11.084 68.764 10.868 81.088 24.365 122.969 24.365 122.969 22.898"/><rect width="33.883" height="35.956" x="89.086" y="81.608" fill="#989897"/><rect width="33.883" height=".709" x="89.086" y="81.608" fill="#FFF"/><rect width="33.883" height="22.916" x="89.086" y="46.801" fill="#989897"/><rect width="33.883" height="1.345" x="89.086" y="46.801" fill="#FFF"/><polygon fill="#989897" points="122.969 23.669 81.957 23.669 71.147 9.536 122.969 9.536"/><polygon fill="#FFF" points="71.147 9.536 72.274 11.084 122.969 11.084 122.969 9.536"/><polygon fill="#989897" points="86.71 59.338 38.285 59.338 28.124 46.367 86.71 46.367"/><polygon fill="#FFF" points="28.124 46.367 29.106 47.624 86.71 47.624 86.71 46.367"/><polygon fill="#989897" points="122.969 80.094 34.823 80.094 9.963 46.154 24.664 45.938 44.769 71.446 122.969 71.446"/><polygon fill="#FFF" points="44.769 71.446 24.664 45.938 9.963 46.154 11.178 47.81 24.664 47.613 44.769 73.122 122.969 73.122 122.969 71.446"/><linearGradient id="SVGID_3_" x1="15.039" x2="61.115" y1="96.106" y2="96.106" gradientUnits="userSpaceOnUse"><stop offset="0" style="stop-color:#989897"/><stop offset="1" style="stop-color:#f9ec23"/></linearGradient><rect width="46.077" height="1.228" x="15.039" y="95.491" fill="url(#SVGID_3_)"/><linearGradient id="SVGID_4_" x1="99.859" x2="116.614" y1="94.43" y2="94.43" gradientUnits="userSpaceOnUse"><stop offset="0" style="stop-color:#989897"/><stop offset="1" style="stop-color:#f9ec23"/></linearGradient><rect width="16.755" height="1.228" x="99.859" y="93.815" fill="url(#SVGID_4_)"/><linearGradient id="SVGID_5_" x1="99.859" x2="116.614" y1="97.571" y2="97.571" gradientUnits="userSpaceOnUse"><stop offset="0" style="stop-color:#989897"/><stop offset="1" style="stop-color:#f9ec23"/></linearGradient><rect width="16.755" height="1.227" x="99.859" y="96.958" fill="url(#SVGID_5_)"/><linearGradient id="SVGID_6_" x1="99.859" x2="116.614" y1="100.713" y2="100.713" gradientUnits="userSpaceOnUse"><stop offset="0" style="stop-color:#989897"/><stop offset="1" style="stop-color:#f9ec23"/></linearGradient><rect width="16.755" height="1.228" x="99.859" y="100.1" fill="url(#SVGID_6_)"/><linearGradient id="SVGID_7_" x1="99.859" x2="116.614" y1="103.853" y2="103.853" gradientUnits="userSpaceOnUse"><stop offset="0" style="stop-color:#989897"/><stop offset="1" style="stop-color:#f9ec23"/></linearGradient><rect width="16.755" height="1.228" x="99.859" y="103.24" fill="url(#SVGID_7_)"/><linearGradient id="SVGID_8_" x1="99.859" x2="116.614" y1="106.996" y2="106.996" gradientUnits="userSpaceOnUse"><stop offset="0" style="stop-color:#989897"/><stop offset="1" style="stop-color:#f9ec23"/></linearGradient><rect width="16.755" height="1.228" x="99.859" y="106.382" fill="url(#SVGID_8_)"/><linearGradient id="SVGID_9_" x1="15.039" x2="61.115" y1="99.695" y2="99.695" gradientUnits="userSpaceOnUse"><stop offset="0" style="stop-color:#989897"/><stop offset="1" style="stop-color:#f9ec23"/></linearGradient><rect width="46.077" height="1.228" x="15.039" y="99.081" fill="url(#SVGID_9_)"/><linearGradient id="SVGID_10_" x1="15.039" x2="61.115" y1="104.093" y2="104.093" gradientUnits="userSpaceOnUse"><stop offset="0" style="stop-color:#989897"/><stop offset="1" style="stop-color:#000"/></linearGradient><rect width="46.077" height="1.227" x="15.039" y="103.479" fill="url(#SVGID_10_)"/><linearGradient id="SVGID_11_" x1="15.039" x2="61.115" y1="107.025" y2="107.025" gradientUnits="userSpaceOnUse"><stop offset="0" style="stop-color:#989897"/><stop offset="1" style="stop-color:#000"/></linearGradient><rect width="46.077" height="1.226" x="15.039" y="106.412" fill="url(#SVGID_11_)"/><linearGradient id="SVGID_12_" x1="15.039" x2="61.115" y1="109.957" y2="109.957" gradientUnits="userSpaceOnUse"><stop offset="0" style="stop-color:#989897"/><stop offset="1" style="stop-color:#000"/></linearGradient><rect width="46.077" height="1.228" x="15.039" y="109.344" fill="url(#SVGID_12_)"/><linearGradient id="SVGID_13_" x1="-10.511" x2="35.563" y1="42.101" y2="42.101" gradientUnits="userSpaceOnUse"><stop offset="0" style="stop-color:#989897"/><stop offset="1" style="stop-color:#000"/></linearGradient><rect width="46.075" height="1.227" x="-10.511" y="41.487" fill="url(#SVGID_13_)"/><linearGradient id="SVGID_14_" x1="-10.511" x2="35.563" y1="39.169" y2="39.169" gradientUnits="userSpaceOnUse"><stop offset="0" style="stop-color:#989897"/><stop offset="1" style="stop-color:#000"/></linearGradient><rect width="46.075" height="1.226" x="-10.511" y="38.556" fill="url(#SVGID_14_)"/></g></g><g><linearGradient id="SVGID_15_" x1="55.419" x2="55.419" y1="115.781" y2="12.887" gradientUnits="userSpaceOnUse"><stop offset=".002" style="stop-color:#85262d"/><stop offset="1" style="stop-color:#8d3a2d;stop-opacity:0"/></linearGradient><polygon fill="url(#SVGID_15_)" points="101.52 90.631 101.52 37.43 55.42 10.831 9.319 37.43 9.319 90.631 55.42 117.23"/></g><g opacity=".35"><linearGradient id="SVGID_16_" x1="55.419" x2="55.419" y1="113.781" y2="12.539" gradientUnits="userSpaceOnUse"><stop offset="0" style="stop-color:#0ff;stop-opacity:0"/><stop offset=".998" style="stop-color:#29abe2"/></linearGradient><polygon fill="url(#SVGID_16_)" points="101.52 90.631 101.52 37.43 55.42 10.831 9.319 37.43 9.319 90.631 55.42 117.23"/></g><g><path d="M56.59,122.578l-14.56-8.836c0,0-1.872-15.147-3.65-15.579c-1.782-0.432-15.581,1.016-18.987-3.897 c-3.744-5.4-0.749-7.479-0.749-9.643c0-2.158-2.07-3.845-1.914-6.918c0.093-1.772,2.82-1.718,2.82-1.718s-3.498,2.082-3.77-2.283 c-0.081-1.31,1.315-3.106,1.762-5.27c0.442-2.161-7.561-0.012-6.991-6.979c0.078-0.957,12.625-4.995,13.462-10.194 c0.636-3.938-0.793-16.029,9.974-21.563c9.858-5.068,21.854-6.665,36.726-3.843c13.771,2.613,25.511,15.229,24.246,36.139 c-1.101,18.146-15.942,20.838-16.556,31.08c-0.63,10.606,6.211,17.133,6.211,17.133L56.59,122.578z" opacity=".5"/><radialGradient id="SVGID_17_" cx="60.2" cy="48.282" r="44.835" gradientUnits="userSpaceOnUse"><stop offset="0" style="stop-color:#0ff"/><stop offset="1" style="stop-color:#b3b3b3"/></radialGradient><path fill="url(#SVGID_17_)" d="M60.503,122.578l-15.595-9.554c0,0-3.125-19.696-4.739-20.1 c-1.615-0.403-15.823,1.651-18.649-1.981c-2.824-3.633,0.416-6.819,0.416-8.839c0-2.017-2.296-2.388-2.153-5.259 c0.083-1.654,2.557-1.604,2.557-1.604s-3.563-0.264-3.419-2.132c0.097-1.222,1.4-3.52,1.805-5.538 c0.401-2.02-6.33-0.671-6.546-5.901c-0.038-0.895,11.449-4.664,12.208-9.52c0.577-3.678-0.718-14.994,9.045-20.163 c8.941-4.733,19.821-6.224,33.307-3.589c12.491,2.44,21.679,14.275,20.531,33.802C88.27,79.147,74.266,81.386,73.711,90.948 c-0.571,9.906,6.991,21.404,6.991,21.404L60.503,122.578z" opacity=".5"/><g><path d="M90.867,62.202C92.016,42.676,82.828,30.84,70.338,28.4c-4.675-0.914-9.029-1.32-13.104-1.279 c3.636,0.064,7.49,0.478,11.589,1.279c12.49,2.44,21.679,14.275,20.531,33.802c-0.998,16.945-15.003,19.184-15.557,28.746 c-0.573,9.906,6.021,20.269,6.021,20.269l2.15,0.148c0,0-7.229-10.511-6.657-20.417C75.865,81.386,89.869,79.147,90.867,62.202z" opacity=".5"/></g><g><linearGradient id="SVGID_18_" x1="40.037" x2="48.005" y1="107.535" y2="107.535" gradientUnits="userSpaceOnUse"><stop offset=".002" style="stop-color:#0ff"/><stop offset="1" style="stop-color:#0ff;stop-opacity:0"/></linearGradient><path fill="url(#SVGID_18_)" d="M41.785,92.925c-0.269-0.067-0.892-0.065-1.748-0.033 c0.092,0.008,0.174,0.019,0.233,0.033c1.613,0.403,6.22,29.274,6.22,29.274h1.515C48.005,122.199,43.398,93.328,41.785,92.925z" opacity=".5"/><linearGradient id="SVGID_19_" x1="14.278" x2="57.252" y1="60.129" y2="60.129" gradientUnits="userSpaceOnUse"><stop offset=".002" style="stop-color:#0ff"/><stop offset="1" style="stop-color:#0ff;stop-opacity:0"/></linearGradient><path fill="url(#SVGID_19_)" d="M23.135,90.943c-2.824-3.633,0.416-6.819,0.416-8.839 c0-2.017-2.296-2.388-2.153-5.259c0.083-1.654,0.941-1.604,0.941-1.604s-1.947-0.264-1.803-2.132 c0.097-1.222,1.401-3.52,1.805-5.538c0.4-2.02-6.33-0.671-6.547-5.901c-0.037-0.895,11.449-4.664,12.208-9.52 c0.577-3.678-0.718-14.994,9.046-20.163c5.841-3.093,12.519-4.791,20.205-4.868c-8.33-0.146-15.496,1.572-21.72,4.868 c-9.764,5.168-8.468,16.485-9.045,20.163c-0.76,4.855-12.246,8.625-12.208,9.52c0.217,5.23,6.947,3.881,6.547,5.901 c-0.404,2.019-1.708,4.316-1.805,5.538c-0.144,1.868,3.419,2.132,3.419,2.132s-2.474-0.051-2.557,1.604 c-0.143,2.871,2.153,3.242,2.153,5.259c0,2.02-3.239,5.206-0.416,8.839c1.487,1.911,6.125,2.248,10.421,2.196 C28.218,93.091,24.449,92.631,23.135,90.943z" opacity=".5"/></g><g><path fill="none" stroke="#000" stroke-width=".505" d="M46.111,119.17c0,0-4.11-25.842-5.725-26.245 c-1.613-0.403-15.821,1.651-18.648-1.981c-2.825-3.633,0.415-6.819,0.415-8.839c0-2.017-2.296-2.388-2.152-5.259 c0.083-1.654,2.557-1.604,2.557-1.604s-3.564-0.264-3.418-2.132c0.094-1.222,1.398-3.52,1.805-5.538 c0.4-2.02-6.333-0.671-6.549-5.901c-0.035-0.895,11.451-4.664,12.21-9.52c0.576-3.678-4.438-18.87,21.148-24.425"/><path fill="none" stroke="#0C0A09" stroke-width=".505" d="M49.52,122.578c0,0-4.954-28.812-6.556-29.606 c-1.407-0.696-14.573,1.181-17.108-2.382c-2.491-3.502,0.636-6.605,0.674-8.51c0.04-1.898-1.942-2.392-1.744-5.097 c0.115-1.582,2.516-1.674,2.535-1.704c0.019-0.028-3.162-0.438-2.991-2.219c0.113-1.19,1.374-3.405,1.783-5.423 c0.39-1.928-5.781-0.91-5.958-5.962c-0.037-1.06,10.713-4.692,11.242-9.516c0.451-4.115-4.491-19.474,16.757-24.484" opacity=".923"/><path fill="none" stroke="#181512" stroke-width=".505" d="M52.423,121.442c0,0-5.537-26.819-6.883-28.423 c-1.361-0.597-13.319,0.716-15.566-2.783c-2.159-3.363,0.855-6.392,0.933-8.179c0.078-1.784-1.585-2.399-1.335-4.936 c0.149-1.512,2.474-1.745,2.513-1.804c0.039-0.058-2.757-0.612-2.562-2.309c0.133-1.158,1.345-3.291,1.759-5.308 c0.377-1.836-5.215-1.148-5.366-6.021c-0.038-1.224,9.943-4.731,10.273-9.512c0.314-4.561-4.545-20.079,12.366-24.545" opacity=".846"/><path fill="none" stroke="#231F1B" stroke-width=".505" d="M55.075,120.938c0,0-5.745-25.667-6.957-27.87 c-1.236-0.694-12.064,0.263-14.025-3.186c-1.828-3.214,1.076-6.177,1.193-7.847c0.118-1.667-1.228-2.405-0.927-4.775 c0.184-1.44,2.433-1.815,2.491-1.902c0.058-0.088-2.352-0.787-2.134-2.396c0.153-1.127,1.318-3.178,1.738-5.193 c0.364-1.745-4.647-1.389-4.775-6.083c-0.038-1.388,9.15-4.774,9.306-9.508c0.165-5.011-4.599-20.682,7.974-24.605" opacity=".769"/><path fill="none" stroke="#2F2924" stroke-width=".505" d="M57.979,120.685c0,0-6.206-24.766-7.285-27.57 c-1.108-0.79-10.807-0.177-12.482-3.585c-1.503-3.057,1.296-5.965,1.452-7.518c0.155-1.552-0.868-2.413-0.519-4.611 c0.218-1.372,2.391-1.889,2.469-2.005c0.078-0.117-1.946-0.962-1.706-2.485c0.173-1.095,1.291-3.063,1.716-5.077 c0.35-1.653-4.073-1.628-4.185-6.144c-0.039-1.553,8.336-4.82,8.337-9.504c0.002-5.466-4.653-21.286,3.583-24.665" opacity=".692"/><path fill="none" stroke="#3B342D" stroke-width=".505" d="M60.503,119.422c0,0-6.287-22.855-7.232-26.26 c-0.983-0.887-9.552-0.606-10.942-3.987c-1.187-2.885,1.517-5.75,1.711-7.187c0.195-1.435-0.506-2.42-0.11-4.45 c0.253-1.302,2.351-1.958,2.448-2.104c0.096-0.146-1.539-1.138-1.278-2.575c0.192-1.063,1.26-2.949,1.692-4.962 c0.335-1.563-3.499-1.866-3.593-6.204c-0.037-1.716,7.506-4.866,7.369-9.5c-0.175-5.921-4.706-21.89-0.808-24.725" opacity=".615"/><path fill="none" stroke="#473E36" stroke-width=".505" d="M63.659,118.791c0,0-7-21.576-7.812-25.581 c-0.857-0.984-8.303-1.021-9.401-4.389c-0.881-2.7,1.738-5.536,1.972-6.857c0.232-1.318-0.14-2.427,0.297-4.288 c0.291-1.232,2.309-2.029,2.426-2.203c0.117-0.175-1.13-1.313-0.851-2.663c0.214-1.031,1.233-2.835,1.671-4.847 c0.321-1.472-2.922-2.106-3.002-6.265c-0.035-1.881,6.665-4.914,6.4-9.496c-0.368-6.376-4.759-22.495-5.198-24.786" opacity=".538"/><path fill="none" stroke="#52483F" stroke-width=".505" d="M64.922,114.499c0,0-5.821-16.637-6.497-21.241 c-0.731-1.083-7.063-1.421-7.859-4.79c-0.592-2.504,1.958-5.322,2.23-6.526c0.272-1.202,0.228-2.435,0.706-4.127 c0.33-1.163,2.268-2.099,2.404-2.304c0.136-0.204-0.722-1.487-0.422-2.75c0.236-1,1.203-2.723,1.649-4.732 c0.306-1.383-2.345-2.347-2.411-6.327c-0.034-2.044,5.813-4.958,5.431-9.492c-0.574-6.829-4.813-23.098-9.591-24.846" opacity=".462"/><path fill="none" stroke="#5E5248" stroke-width=".505" d="M67.019,112.61c0,0-5.475-14.1-6.018-19.306 c-0.604-1.18-5.846-1.807-6.318-5.189c-0.321-2.298,2.179-5.109,2.49-6.197c0.312-1.086,0.601-2.442,1.115-3.965 c0.369-1.095,2.226-2.171,2.381-2.403c0.155-0.233-0.311-1.662,0.006-2.84c0.261-0.968,1.176-2.607,1.627-4.616 c0.292-1.292-1.766-2.586-1.819-6.387c-0.03-2.209,4.954-5.003,4.463-9.488c-0.798-7.28-4.866-23.702-13.982-24.906" opacity=".385"/><path fill="none" stroke="#6A5D51" stroke-width=".505" d="M69.755,112.56c0,0-4.936-13.521-6.176-19.208 c-0.292-1.331-4.657-2.186-4.777-5.591c-0.075-2.087,2.399-4.895,2.749-5.867c0.351-0.969,0.976-2.448,1.523-3.803 c0.413-1.023,2.185-2.24,2.359-2.503s0.102-1.835,0.435-2.929c0.284-0.936,1.144-2.494,1.604-4.5 c0.275-1.203-1.188-2.827-1.229-6.448c-0.026-2.373,4.091-5.045,3.494-9.484c-1.036-7.727-4.919-24.306-18.373-24.966" opacity=".308"/><path fill="none" stroke="#76675A" stroke-width=".505" d="M72.493,112.508c0,0-5.4-12.767-6.339-19.107 c-0.207-1.403-3.509-2.567-3.234-5.993c0.15-1.878,2.62-4.682,3.009-5.535c0.388-0.854,1.357-2.455,1.932-3.642 c0.46-0.954,2.143-2.313,2.338-2.604c0.193-0.291,0.515-2.009,0.861-3.017c0.311-0.903,1.115-2.381,1.582-4.385 c0.259-1.112-0.606-3.066-0.637-6.509c-0.023-2.538,3.22-5.085,2.525-9.48c-1.291-8.172-4.974-24.91-22.765-25.027" opacity=".231"/><path fill="none" stroke="#817163" stroke-width=".505" d="M75.229,112.456c0,0-5.89-12.027-6.497-19.009 c-0.128-1.481-2.416-2.969-1.693-6.394c0.354-1.681,2.84-4.468,3.268-5.205c0.427-0.737,1.741-2.455,2.34-3.48 c0.513-0.88,2.103-2.383,2.316-2.703c0.213-0.32,0.932-2.184,1.289-3.104c0.339-0.871,1.084-2.269,1.561-4.271 c0.244-1.022-0.025-3.307-0.046-6.57c-0.017-2.701,2.347-5.122,1.558-9.476c-1.56-8.609-5.026-25.514-27.156-25.086" opacity=".154"/><path fill="none" stroke="#8D7C6C" stroke-width=".505" d="M77.965,112.404c0,0-6.411-11.309-6.656-18.909 c-0.051-1.568-1.376-3.41-0.152-6.795c0.543-1.503,3.062-4.254,3.527-4.875c0.467-0.621,2.134-2.451,2.748-3.317 c0.569-0.802,2.061-2.455,2.294-2.805c0.232-0.349,1.35-2.355,1.718-3.193c0.368-0.836,1.05-2.155,1.537-4.155 c0.228-0.932,0.556-3.546,0.546-6.63c-0.009-2.866,1.471-5.157,0.589-9.472c-1.846-9.042-5.08-26.118-31.546-25.147" opacity=".077"/><path fill="none" stroke="#998675" stroke-width=".505" d="M80.702,112.353c0,0-6.943-10.604-6.817-18.811 c0.026-1.662-0.378-3.913,1.39-7.196c0.729-1.355,3.282-4.039,3.787-4.544s2.525-2.441,3.156-3.156 c0.631-0.716,2.02-2.525,2.271-2.903c0.252-0.379,1.768-2.525,2.146-3.282c0.4-0.8,1.016-2.043,1.516-4.04 c0.21-0.842,1.136-3.785,1.136-6.691c0-3.03,0.591-5.188-0.379-9.468c-2.146-9.468-5.134-26.722-35.938-25.208" opacity="0"/></g><linearGradient id="SVGID_20_" x1="58.077" x2="58.077" y1="30.575" y2="99.846" gradientUnits="userSpaceOnUse"><stop offset=".002" style="stop-color:#0ff"/><stop offset="1" style="stop-color:#0ff;stop-opacity:0"/></linearGradient><path fill="url(#SVGID_20_)" d="M88.094,54.77c0-4.854-2.658-8.963-6.337-10.411c0.112-0.681,0.174-1.382,0.174-2.101 c0-6.061-4.139-10.973-9.246-10.973c-1.881,0-3.624,0.667-5.08,1.806c-1.671-2.836-4.439-4.694-7.573-4.694 c-3.125,0-5.885,1.843-7.56,4.653c-1.493-1.233-3.308-1.959-5.267-1.959c-4.169,0-7.693,3.277-8.845,7.775 c-0.346-0.044-0.694-0.075-1.051-0.075c-5.105,0-9.249,4.914-9.249,10.974s4.143,10.972,9.249,10.972 c1.313,0,2.564-0.33,3.695-0.916c1.327,4.132,4.686,7.075,8.636,7.075c1.52,0,2.95-0.442,4.215-1.212 c0.863,0.739,4.275,4.584,3.24,10.94c-1.768,10.858,1.4,20.411,3.673,23.952c-2.215-7.554-3.984-17.658-1.655-26.836 c1.387-5.468-4.343-9.471-5.121-10.118c-1.138,0.673-2.428,1.061-3.795,1.061c-3.559,0-6.584-2.572-7.778-6.184 c-1.019,0.511-2.145,0.801-3.328,0.801c-4.599,0-8.329-4.295-8.329-9.591c0-5.296,3.73-9.591,8.329-9.591 c0.322,0,0.636,0.025,0.945,0.066c1.04-3.933,4.211-6.796,7.967-6.796c1.764,0,3.397,0.635,4.744,1.712 c1.507-2.457,3.988-4.067,6.803-4.067c2.822,0,5.316,1.624,6.822,4.103c1.313-0.996,2.881-1.579,4.574-1.579 c4.598,0,8.326,4.293,8.326,9.591c0,0.629-0.059,1.242-0.156,1.837c3.314,1.265,5.707,4.857,5.707,9.098 c0,4.079-2.215,7.557-5.333,8.942c0.138,0.696,0.221,1.417,0.221,2.164c0,2.107-0.599,4.051-1.599,5.633 c-0.035,0.147-0.083,0.287-0.156,0.42c-2.045,3.705-6.291,6.627-8.041,10.769c-1.822,4.315-1.166,10.44,0.168,16.011 c-0.374-4.013-0.278-11.653,1.031-14.888c1.925-4.744,10.133-8.583,11.304-15.658c0.139-0.842-0.093-1.681-0.244-2.475 C85.635,63.415,88.094,59.437,88.094,54.77z"/><linearGradient id="SVGID_21_" x1="57.793" x2="57.793" y1="61.226" y2="104.6" gradientUnits="userSpaceOnUse"><stop offset="0" style="stop-color:#fff"/><stop offset="1" style="stop-color:#b3b3b3;stop-opacity:0"/></linearGradient><path fill="url(#SVGID_21_)" d="M84.823,54.083c0-4.241-2.393-7.833-5.707-9.098c0.098-0.595,0.156-1.208,0.156-1.837 c0-5.297-3.729-9.591-8.326-9.591c-1.693,0-3.262,0.583-4.574,1.579c-1.506-2.479-4-4.103-6.822-4.103 c-2.814,0-5.296,1.61-6.803,4.067c-1.347-1.077-2.98-1.712-4.744-1.712c-3.756,0-6.927,2.863-7.967,6.796 c-0.31-0.041-0.623-0.066-0.945-0.066c-4.599,0-8.329,4.294-8.329,9.591c0,5.295,3.73,9.591,8.329,9.591 c1.183,0,2.309-0.29,3.328-0.801c1.194,3.612,4.22,6.184,7.778,6.184c1.367,0,2.657-0.388,3.795-1.061 c0.777,0.647,6.507,4.65,5.121,10.118c-4.452,17.542,6.063,38.485,6.063,38.485l9.594-0.502c0,0-9.075-19.716-4.854-29.714 c1.75-4.142,5.996-7.063,8.041-10.769c0.073-0.133,0.121-0.272,0.156-0.42c1-1.582,1.599-3.525,1.599-5.633 c0-0.747-0.083-1.468-0.221-2.164C82.608,61.64,84.823,58.162,84.823,54.083z"/><g><path fill="#CCC" d="M74.435,39.95H45.845c-0.837,0-1.517,0.681-1.517,1.519v18.996c0,0.838,0.68,1.519,1.517,1.519h28.589 c0.839,0,1.518-0.681,1.518-1.519V41.469C75.952,40.631,75.273,39.95,74.435,39.95z"/><path fill="#CCC" d="M56.091,36.305c0-0.393,0.317-0.712,0.711-0.712h6.678c0.392,0,0.713,0.319,0.713,0.712v2.997h1.066 v-3.619c0-0.655-0.532-1.187-1.186-1.187h-7.865c-0.655,0-1.188,0.531-1.188,1.187v3.619h1.071V36.305z"/></g><g><path fill="#2E3192" d="M74.691,58.91c0,0.805-0.651,1.458-1.455,1.458H45.777c-0.804,0-1.458-0.653-1.458-1.458V40.664 c0-0.805,0.654-1.458,1.458-1.458h27.459c0.804,0,1.455,0.653,1.455,1.458V58.91z"/><path fill="#2E3192" d="M55.616,38.583v-2.879c0-0.377,0.306-0.683,0.684-0.683h6.415c0.376,0,0.683,0.306,0.683,0.683v2.879 h1.025v-3.477c0-0.63-0.512-1.14-1.14-1.14h-7.554c-0.629,0-1.139,0.509-1.139,1.14v3.477H55.616z"/><path fill="#0071BC" stroke="#FFF" stroke-dasharray=".879" stroke-width=".22" d="M73.251,57.925 c0,0.485-0.395,0.88-0.879,0.88H46.596c-0.485,0-0.878-0.395-0.878-0.88V41.55c0-0.486,0.393-0.88,0.878-0.88h25.776 c0.484,0,0.879,0.395,0.879,0.88V57.925z"/></g><g><circle cx="59.464" cy="49.609" r="7.237" fill="#AF890E"/><linearGradient id="SVGID_22_" x1="59.464" x2="59.464" y1="56.296" y2="42.763" gradientUnits="userSpaceOnUse"><stop offset="0" style="stop-color:#c7a315"/><stop offset="1" style="stop-color:#ebd065"/></linearGradient><circle cx="59.464" cy="49.609" r="6.845" fill="url(#SVGID_22_)"/><linearGradient id="SVGID_23_" x1="59.464" x2="59.464" y1="43.946" y2="55.312" gradientUnits="userSpaceOnUse"><stop offset="0" style="stop-color:#c7a315"/><stop offset="1" style="stop-color:#ebd065"/></linearGradient><circle cx="59.463" cy="49.609" r="5.664" fill="url(#SVGID_23_)"/><linearGradient id="SVGID_24_" x1="59.463" x2="59.463" y1="54.801" y2="44.417" gradientUnits="userSpaceOnUse"><stop offset="0" style="stop-color:#c7a315"/><stop offset="1" style="stop-color:#ebd065"/></linearGradient><circle cx="59.464" cy="49.609" r="5.192" fill="url(#SVGID_24_)"/><g><g><linearGradient id="SVGID_25_" x1="59.353" x2="59.353" y1="54.604" y2="51.653" gradientUnits="userSpaceOnUse"><stop offset="0" style="stop-color:#c7a315"/><stop offset="1" style="stop-color:#ebd065"/></linearGradient><polygon fill="url(#SVGID_25_)" points="59.354 50.442 57.435 49.359 59.354 46.035 61.273 49.359"/></g><g><linearGradient id="SVGID_26_" x1="59.353" x2="59.353" y1="54.605" y2="51.654" gradientUnits="userSpaceOnUse"><stop offset="0" style="stop-color:#c7a315"/><stop offset="1" style="stop-color:#ebd065"/></linearGradient><polygon fill="url(#SVGID_26_)" points="59.354 50.866 57.435 49.773 59.354 53.097 61.273 49.773"/></g></g><g><g><polygon fill="#AF890E" points="59.354 50.455 57.6 49.464 57.435 49.751 59.354 50.835 61.273 49.751 61.107 49.464"/></g><g><polygon fill="#AF890E" points="59.354 53.11 57.762 50.352 57.435 50.166 59.354 53.49 61.273 50.166 60.945 50.352"/></g></g><g opacity=".6"><g><polygon fill="#FFF" points="59.354 46.408 61.111 49.451 61.273 49.359 59.354 46.035 57.435 49.359 57.598 49.451"/></g><g><polygon fill="#FFF" points="59.354 51.24 60.951 50.329 61.273 49.773 59.354 50.866 57.435 49.773 57.756 50.329"/></g></g><path fill="#FFF" d="M59.464,55.063c-3.083,0-5.583-2.461-5.657-5.525c-0.001,0.045-0.007,0.091-0.007,0.136 c0,3.128,2.536,5.666,5.664,5.666c3.129,0,5.663-2.537,5.663-5.666c0-0.045-0.004-0.091-0.008-0.136 C65.046,52.602,62.545,55.063,59.464,55.063z" opacity=".6"/></g></g><g><path fill="#333" d="M55.42,10.832l46.099,26.599v53.201l-46.099,26.6L9.319,90.631v-53.2L55.42,10.832z M110.92,32.032 l-55.5-32l-55.401,32v63.999l55.401,32l55.5-31.999V32.032z"/><g><g opacity=".13"><g><path d="M99.119,89.231l-43.7,25.2l-43.6-25.201v-50.4l43.6-25.2l43.7,25.2V89.231z M101.42,90.631V37.43l-46-26.6l-46,26.6 v53.101l46,26.6L101.42,90.631z"/></g></g></g></g></g></switch></svg>