<svg xmlns="http://www.w3.org/2000/svg" id="svg415" x="0" y="0" version="1.1" viewBox="0 0 110.979 128.417" xml:space="preserve"><defs id="defs419"><clipPath id="clipPath1625" clipPathUnits="userSpaceOnUse"/></defs><g id="g5" fill="#e8dcc1" fill-opacity=".962" stroke="#000" stroke-dasharray="none" stroke-miterlimit="4" stroke-opacity="1" stroke-width="1.8" transform="translate(.154 .374)"><path id="polygon3" fill="#e8dcc1" fill-opacity=".962" stroke="#000" stroke-dasharray="none" stroke-miterlimit="4" stroke-opacity="1" stroke-width="1.8" d="M55.556 127.881L.417 96.047v-63.67L55.556.542l55.14 31.835v63.669z"/></g><g id="g9" fill="#fff" fill-opacity=".338" transform="translate(.154 .374)"><path id="polygon7" fill="#fff" fill-opacity=".338" d="M55.422 116.822L10.109 90.66V38.337l45.313-26.162 45.314 26.162V90.66z"/></g><g id="g13" fill="#242424" fill-opacity="1" transform="translate(.154 .374)"><path id="path11" fill="#242424" fill-opacity="1" d="M55.555 10.618L9.073 37.416V91.01l46.482 26.795L102.04 91.01V37.416zm44.603 79.312l-44.603 25.716L10.951 89.93V38.506L55.555 12.79l44.603 25.716z"/></g><style id="style1103"/><g id="g148" transform="matrix(.1629 0 0 .1629 15.459 20.784)"><g id="g2161" stroke-dasharray="none" stroke-miterlimit="4" stroke-opacity="1" transform="matrix(.6837 0 0 .6837 536.339 84.282)"><path id="path1014" fill="#04b7ff" fill-opacity="1" stroke="#303030" stroke-width="12.833" d="M-421.171 608.375l97.356-108.22h-194.96z"/><path id="polygon1016" fill="#b449b5" fill-opacity="1" stroke="#303030" stroke-width="12.833" d="M-421.172 436.777s-203.025-79.47-214.573-79.468l116.97 142.845h194.96L-206.6 357.308z"/><path id="polygon1018" fill="#e34b4f" fill-opacity="1" stroke="#303030" stroke-width="12.833" d="M-622.07 268.836l-23.476 42.18 224.374 83.105 224.37-83.104-23.975-42.181z"/><path id="polygon1020" fill="#f6933d" fill-opacity="1" stroke="#303030" stroke-width="12.833" d="M-553.803 153.424l-68.266 115.412h401.292l-67.243-114.9z"/><path id="polygon1022" fill="#fdbd36" fill-opacity="1" stroke="#303030" stroke-width="12.833" d="M-488.787 39.927l-65.017 113.497 265.784.511c-132.57-228.507 0 0-66.22-113.859z"/><path id="path1024" fill="#7cc665" fill-opacity="1" stroke="#303030" stroke-width="12.833" d="M-420.59-74.572c-78.83 132.492 19.655-32.504-68.197 114.499l134.546.15c-40.79-66.44-36.876-65.748-66.349-114.649z"/><g id="g48" fill="#000" fill-opacity=".161" fill-rule="nonzero" stroke="none" stroke-width="1.9" transform="matrix(1.33333 0 0 1.33333 -645.547 -74.29)"><path id="path8" d="M336.559 288.98L168.28 351.31V0zm0 0"/><path id="path6" d="M168.281 383.3l160.93-59.6L168.28 512zm0 0"/></g></g></g></svg>