<svg xmlns="http://www.w3.org/2000/svg" xmlns:xlink="http://www.w3.org/1999/xlink" width="110.979" height="128.417" x="0" y="0" enable-background="new 0 0 110.979 128.417" version="1.1" viewBox="0 0 110.979 128.417" xml:space="preserve"><g id="Layer_1"><g id="Layer_63"><polygon fill="#5385EA" points="110.849 96.417 55.423 128.417 0 96.417 0 32.417 55.423 .417 110.849 32.417"/></g></g><g id="Layer_6"><polygon fill="#9CE5FF" points="101.923 38.139 101.923 91.279 101.914 91.289 100.494 92.098 94.213 95.718 91.494 97.289 91.253 97.418 91.124 97.468 91.013 97.539 87.984 99.279 87.814 99.378 87.314 99.659 86.814 99.949 86.114 100.348 86.074 100.378 82.824 102.258 81.954 102.779 80.574 103.569 79.114 104.418 78.933 104.508 78.914 104.529 77.204 105.508 76.244 106.069 71.624 108.739 70.994 109.098 70.933 109.128 67.433 111.159 63.393 113.489 63.383 113.499 62.954 113.749 55.874 117.829 48.304 113.458 48.264 113.428 46.193 112.239 40.833 109.128 40.144 108.739 35.054 105.789 34.664 105.569 34.173 105.289 33.843 105.088 31.994 104.029 31.423 103.699 29.713 102.708 27.204 101.249 24.293 99.579 24.253 99.558 24.204 99.529 23.753 99.268 23.253 98.978 19.534 96.829 17.423 95.598 9.923 91.279 9.923 38.139 24.253 29.869 26.244 28.708 31.173 25.878 32.753 24.958 32.923 24.869 34.583 23.918 35.744 23.249 37.284 22.338 37.804 22.039 40.083 20.738 40.773 20.329 42.233 19.499 47.954 16.199 48.414 15.929 54.483 12.418 55.923 11.588 56.984 12.208 63.473 15.958 78.003 24.338 79.043 24.949 81.343 26.258 82.213 26.758 83.734 27.639 85.103 28.429 85.904 28.889 85.994 28.949 87.803 29.988 91.583 32.168 91.624 32.199 91.624 32.208 91.883 32.349 92.543 32.738 94.003 33.579 95.944 34.699 96.723 35.139 97.164 35.389 99.103 36.508"/><rect width="3.125" height="16" x="18.083" y="67.708" fill="#82C5D8"/><rect width="3.125" height="16" x="94.708" y="72.708" fill="#82C5D8"/><rect width="3.125" height="16" x="87.396" y="54.333" fill="#82C5D8"/><rect width="3.125" height="16" x="94.833" y="42.792" fill="#82C5D8"/><rect width="3.125" height="16" x="56.083" y="17.333" fill="#82C5D8"/><rect width="3.125" height="16" x="65.458" y="28.958" fill="#82C5D8"/><rect width="3.125" height="16" x="33.583" y="32.208" fill="#82C5D8"/><rect width="3.125" height="16" x="43.708" y="28.458" fill="#82C5D8"/><rect width="3.125" height="16" x="14.583" y="41.458" fill="#82C5D8"/></g><g id="Layer_4"><g><polygon fill="#F9F6E8" points="87.314 44.539 87.314 99.659 86.814 99.949 86.114 100.348 86.074 100.378 82.824 102.258 81.954 102.779 80.574 103.569 79.114 104.418 78.933 104.508 78.914 104.529 77.204 105.508 76.244 106.069 71.624 108.739 70.994 109.098 70.933 109.128 67.433 111.159 63.393 113.489 63.383 113.499 62.954 113.749 55.874 117.829 48.304 113.458 48.264 113.428 46.193 112.239 40.833 109.128 40.144 108.739 35.054 105.789 34.664 105.569 34.173 105.289 33.843 105.088 31.994 104.029 31.423 103.699 29.713 102.708 27.204 101.249 24.293 99.579 24.253 99.558 24.204 99.529 23.753 99.268 23.753 44.539"/><path fill="#004776" d="M23.253,44.039v54.939l0.5,0.29l0.45,0.261l0.05,0.029v-54.52h62.561v54.91l0.5-0.29l0.5-0.28v-55.34 H23.253z"/></g><rect width="64.594" height="7.125" x="23.208" y="37.333" fill="#004776"/><rect width="24.771" height="7.728" x="29.604" y="54.074" fill="#E0E0E0"/><rect width="29.407" height="6.437" x="52.552" y="63.949" fill="#7A94A0"/><rect width="48.958" height="8.104" x="29.604" y="82.365" fill="#E0E0E0"/><rect width="29.709" height="7.437" x="52.25" y="92.781" fill="#7A94A0"/><rect width="52.833" height=".583" x="29.417" y="72.458" fill="#E0E0E0"/><rect width="62.455" height="1.545" x="24.253" y="45.039" fill="#E0E0E0"/><text fill="#004776" font-family="'Futura-Medium'" font-size="2.994" transform="matrix(1 0 0 1 31.1172 57.5542)">hey whats up?</text><text fill="#FFF" font-family="'Futura-Medium'" font-size="4.944" transform="matrix(1 0 0 1 24.8921 43.0981)">John</text><text fill="#3D5866" font-family="'Futura-Medium'" font-size="2.294" transform="matrix(1 0 0 1 31.2129 60.6758)">14:45</text><text fill="#FFF" font-family="'Futura-Medium'" font-size="2.294" transform="matrix(1 0 0 1 74.9009 69.5913)">14:45</text><text fill="#FFF" font-family="'Futura-Medium'" font-size="2.294" transform="matrix(1 0 0 1 74.9009 99.1753)">09:21</text><text fill="#3D5866" font-family="'Futura-Medium'" font-size="2.294" transform="matrix(1 0 0 1 30.6509 89.1147)">09:21</text><g><text fill="#3D5866" font-family="'Futura-Medium'" font-size="2.56" transform="matrix(1 0 0 1 56.6704 66.7134)">not much just chilling.</text></g><text fill="#004776" font-family="'Futura-Medium'" font-size="2.294" transform="matrix(1 0 0 1 49.5835 76.521)">Wed 27.</text><g><text fill="#004776" font-family="'Futura-Medium'" font-size="2.78" transform="matrix(1 0 0 1 30.5308 85.7173)">wanna join us for basketball today?</text></g><g><text fill="#3D5866" font-family="'Futura-Medium'" font-size="2.56" transform="matrix(1 0 0 1 65.2505 95.9692)">sure why not.</text></g></g><g id="border"><g id="Layer_2_6_"><g id="Layer_16_5_"><path d="M9.826,38.141v53.121l46.072,26.559l46.074-26.559V38.141L55.898,11.58 L9.826,38.141z M100.107,39.221v50.971l-44.209,25.489L11.687,90.192V39.221l44.211-25.489L100.107,39.221z" enable-background="new" opacity=".13"/></g></g></g></svg>