<svg xmlns="http://www.w3.org/2000/svg" xmlns:xlink="http://www.w3.org/1999/xlink" id="Layer_1" width="110.913" height="128.047" x="0" y="0" enable-background="new 0 0 110.913 128.047" version="1.1" viewBox="0 0 110.913 128.047" xml:space="preserve"><switch><g><g><linearGradient id="SVGID_1_" x1="55.419" x2="55.419" y1="94.781" y2="45.016" gradientUnits="userSpaceOnUse"><stop offset="0" style="stop-color:#fff"/><stop offset="1" style="stop-color:#26a9e0"/></linearGradient><polygon fill="url(#SVGID_1_)" points="55.42 10.831 9.319 37.43 9.319 90.631 55.42 117.23 101.52 90.631 101.52 37.43"/></g><g><defs><polygon id="SVGID_2_" points="55.42 10.831 9.319 37.43 9.319 90.631 55.42 117.23 101.52 90.631 101.52 37.43"/></defs><clipPath id="SVGID_3_"><use overflow="visible" xlink:href="#SVGID_2_"/></clipPath><g clip-path="url(#SVGID_3_)"><g><path fill="#E54698" d="M106.581,58.489c0.377,0.111,0.758,0.259,1.115,0.419c-0.137-1.215,0.031-2.328,0.703-3.771 c0.432-1.012,2.15-3.871,4.454-5.844c2.229-2.076,4.905-3.061,4.96-3.044c-0.016-0.031,1.969-0.517,4.045-1.569 c-0.983,0.297-1.618,0.391-1.583,0.399c-0.004,0.03-3.528,0.628-6.972,2.433c-3.544,1.67-6.356,4.854-7.014,6.041 c-1.09,1.7-1.76,2.848-2.454,4.324c0.313,0.038,0.507,0.07,0.508,0.091C104.343,57.97,105.415,58.124,106.581,58.489z"/><path fill="#F8BFC8" d="M73.873,48.875c0.074,0.281,0.119,0.437,0.134,0.434c0.043-0.023,0.782,3.252,2.284,6.896 c0.673,0.849,1.354,1.697,2.234,2.812c0.833,1.114,3.716,4.201,7.737,4.24c1.896,0.249,3.699,0.125,4.879-0.264 c1.191-0.379,1.737-0.934,1.749-0.915c-0.068,0.026,0.617-0.453,1.214-1.56c0.645-1.088,1.152-2.842,1.553-4.771 c0.399-1.852,0.778-3.865,1.439-5.576c-0.353,0.436-0.795,1.201-1.344,2.345c-0.82,1.419-1.805,2.94-3.566,3.942 c-1.729,0.969-3.61,0.896-4.812,0.779c-1.241-0.137-1.976-0.3-2.006-0.312c0,0.036-3.245-0.726-6.047-2.811 C76.948,52.509,74.902,50.227,73.873,48.875z"/><path fill="#F8BFC8" d="M57.661,39.021c-0.396,1.464-1.028,2.96-1.412,3.756c1.283,0.188,2.455,0.273,3.697,0.531 c1.566,0.338,3.509,0.965,5.03,2.913c1.599,1.929,4.54,8.366,8.324,13.344c1.926,2.479,4.11,4.515,5.981,5.558 c1.85,1.082,3.213,1.385,3.203,1.393c0.002-0.01,0.287,0.093,0.808,0.213c-0.899-0.408-2.25-1.08-3.638-2.279 c-1.725-1.495-3.197-3.721-4.245-5.939c-2.071-4.475-3.006-8.759-3.063-8.738c-0.063,0.033-1.01-4.297-2.558-8.668 c-1.498-4.466-4.856-8.376-6.315-8.947c-2.037-1.14-3.683-1.619-5.457-2.512c0.179,0.753,0.336,1.622,0.383,2.472 c0.154,1.841-0.08,3.497-0.065,3.496C58.331,35.609,58.162,37.27,57.661,39.021z"/><path fill="#E54698" d="M95.608,61.363c-0.755,1.379-1.607,1.999-1.628,2.049c-0.002-0.025-0.805,0.748-2.313,1.225 c-1.495,0.49-3.563,0.605-5.613,0.34c-1.385-0.127-2.944-0.469-4.274-1.068c0.89,0.879,1.834,1.641,2.626,2.006 c1.614,0.822,2.832,1.188,4.11,1.088c1.685-0.156,3.534-0.577,5.12-1.617c2.346-1.438,3.615-4.108,4.125-6.645 c-0.107-0.083,1.231-5.791,1.629-6.928c0.705-2.102,1.566-3.727,2.812-4.95c0.155-0.157,0.319-0.307,0.493-0.445 c-0.652,0.32-1.291,0.724-1.98,1.288c-0.48,0.396-1.336,1.359-1.933,2.908c-0.623,1.527-1.012,3.537-1.433,5.5 C96.938,58.074,96.396,60.02,95.608,61.363z"/><path fill="#FFF" d="M75.323,38.46c0.153,0.263,0.345,0.632,0.469,1.048c0.321,0.791,0.35,1.681,0.399,1.968 c0,0.248-0.067,0.45-0.191,0.634c0.222,0.128,0.445,0.274,0.65,0.439c0.701,0.529,1.175,1.169,1.18,1.161 c0.153-0.086,1.597,2.699,1.498,3.382c0.029,0.2,0.011,0.376-0.048,0.538c0.229,0.119,0.452,0.268,0.653,0.45 c0.737,0.627,1.076,1.425,1.069,1.415c0,0,0.011,0.021,0.027,0.059c0.272-0.724,0.478-1.194,1.058-1.693 c0.34-0.293,1.393-1.217,2.065-2.179c0.754-1.038,0.598-1.656,0.577-1.579c-0.004-0.007-0.014-0.098-0.173-0.261 c-0.213-0.2-0.588-0.36-1.058-0.395c-1.025-0.044-2.357,0.474-2.78,0.62c-0.657,0.24-2.173,0.005-2.278-0.025 c0.127-0.196,0.599-1.547,0.979-2.051c0.277-0.369,1.159-1.498,1.582-2.578c0.473-1.112,0.174-1.865,0.144-1.84 c-0.071-0.075-0.04-0.578-1.194-0.407c-1.079,0.193-2.4,0.892-2.834,1.077C76.492,38.526,75.952,38.59,75.323,38.46z"/><path fill="#E54698" d="M91.35,54.939c2.59-1.368,3.465-5.225,4.744-6.219c0.333-0.311,0.646-0.563,0.952-0.775 c0.025-0.71,0.437-2.211,0.633-2.709c-0.709,0.428-1.508,0.985-2.19,1.63c-1.387,1.268-2.286,2.733-2.311,2.745 c-0.017-0.012-0.939,1.527-2.216,3.178c-0.828,1.145-2.028,2.168-2.973,2.777C89.017,55.619,90.247,55.514,91.35,54.939z"/><path fill="#FFF" d="M73.57,26.543c-1.021,0.278-2.025,1.077-2.301,1.349c-0.277,0.262-0.529,0.411-0.816,0.546 c0.458,0.866,0.581,1.833,0.606,2.156c0.021,0.289-0.031,0.524-0.136,0.736c0.658,0.421,1.081,0.911,1.078,0.904 c-0.006-0.002,0.634,0.665,1.02,1.541c0.417,0.862,0.598,1.839,0.655,2.159c0.033,0.217,0.018,0.405-0.038,0.581 c0.135,0.106,0.27,0.219,0.396,0.343c0.47,0.41,0.828,0.892,0.979,1.098c0.295-0.411,0.53-0.732,0.917-1.007 c0.143-0.336,0.348-0.647,0.644-0.972c0.343-0.384,1.463-1.495,2.136-2.588c0.747-1.143,0.506-1.923,0.478-1.866 c-0.091-0.051-0.021-0.763-1.231-0.471c-1.155,0.276-2.449,1.172-2.838,1.44c-0.749,0.535-1.314,0.607-2.268,0.805 c0.165-0.968,0.456-1.598,1.268-2.206c0.168-0.115,0.453-0.323,0.829-0.56c0.057-0.092,0.116-0.187,0.191-0.284 c0.229-0.282,0.921-1.385,0.851-2.309c0.007-0.882-0.804-1.32-0.771-1.301C75.24,26.639,74.623,26.219,73.57,26.543z"/><path fill="#FFF" d="M57.424,27.697c0.105,0.256,0.272,0.74,0.438,1.346c2.092,0.223,3.863,0.227,6.489,1.631 c1.873,0.783,5.498,5.142,7.059,9.813c0.455,1.295,0.853,2.556,1.191,3.699c0.678,0.928,1.317,1.74,2.164,2.973 c0.584,0.896,2.579,3.358,5.011,5.154c0.02-0.836-0.198-2.15-0.33-2.08c0.007-0.002-0.224-0.485-0.633-0.828 c-0.391-0.365-1.004-0.489-1.209-0.529c-0.388-0.058-0.598-0.34-1.075-0.859c0.307-0.495,0.612-0.81,1.08-0.848 c-0.152-0.746-1.03-2.451-1.128-2.387c0.093-0.111-1.729-1.594-2.258-1.588c-0.406-0.135-0.563-0.463-0.931-1.064 c0.396-0.411,0.751-0.643,1.186-0.617c-0.009-0.656-0.719-2.548-0.818-2.495c0.094-0.067-1.558-1.631-2.079-1.8 c-0.403-0.208-0.493-0.584-0.644-1.268c0.345-0.191,0.628-0.313,0.898-0.339c-0.088-0.341-0.214-0.749-0.387-1.104 c-0.29-0.663-0.722-1.105-0.718-1.109c-0.001,0.003-0.408-0.464-1.019-0.767c-0.598-0.331-1.396-0.442-1.657-0.483 c-0.491-0.066-0.754-0.358-1.237-0.907c0.448-0.551,0.819-0.857,1.44-0.802c0.185,0.02,0.592,0.071,1.07,0.198 c-0.05-0.354-0.181-1.063-0.526-1.588c-0.36-0.624-0.928-1.007-0.918-1.017c-0.004,0.009-0.537-0.408-1.29-0.654 c-0.737-0.271-1.641-0.36-1.934-0.399c-0.554-0.048-0.853-0.348-1.375-0.887c0.484-0.559,0.867-0.858,1.514-0.828 c0.297,0.024,1.105,0.101,1.926,0.337c-0.102-0.391-0.276-0.934-0.549-1.357c-0.371-0.629-0.918-0.992-0.913-0.998 c-0.005,0.007-0.523-0.393-1.285-0.608c-0.742-0.239-1.667-0.309-1.968-0.343c-0.563-0.054-0.873-0.353-1.373-0.911 c0.502-0.542,0.872-0.837,1.504-0.806c0.342,0.025,1.38,0.095,2.347,0.405c0.376,0.105,0.725,0.257,1.014,0.406 c0.04-1.245,0.237-2.183,0.918-3.502c0.414-0.796,1.71-3.163,3.221-5.171c1.427-2.059,3.448-3.533,3.513-3.483 c0.004,0.006,0.051-0.027,0.144-0.083c0.37-0.999,0.758-1.991,1.166-3.258c0.178-0.628,0.501-1.921,0.157-3.437 c-0.191-0.762-0.442-1.185-0.987-1.162c-0.623-0.016-1.522,0.413-2.287,0.895c-3.14,2.114-5.533,4.834-5.499,4.813 c-0.007-0.015-2.378,2.622-4.317,6c-2.013,3.337-3.433,7.358-3.812,8.709c-0.521,1.802-1.002,3.012-1.498,4.354 C56.725,26.454,57.109,26.932,57.424,27.697z"/><path fill="#FFF" d="M73.244,21.363c0.014,0.002-0.738-0.026-1.669,0.398c-0.914,0.375-1.859,1.023-2.159,1.24 c-0.528,0.375-0.977,0.406-1.702,0.435c0.532,0.89,0.738,1.906,0.796,2.237c0.045,0.259,0.026,0.479-0.041,0.685 c0.274,0.169,0.443,0.295,0.442,0.292c-0.009,0.004,0.319,0.226,0.702,0.626c0.113-0.221,0.267-0.434,0.479-0.641 c0.364-0.365,1.562-1.359,3.012-1.761c0.218-0.082,0.438-0.129,0.657-0.157c-0.028-0.408,0.024-0.755,0.208-1.143 c0.164-0.274,0.636-1.49,0.379-1.74c-0.077-0.15-0.363-0.301-0.708-0.4C73.435,21.354,73.232,21.378,73.244,21.363z"/><path fill="#FFF" d="M74.042,10.706c0.003-0.068-1.633,1.085-3.015,3.046c-1.415,1.883-2.678,4.183-3.09,4.943 c-0.686,1.28-1.295,1.949-2.162,2.839c0.306,0.175,0.495,0.313,0.492,0.312c-0.011-0.002,0.758,0.513,1.308,1.365 c0.076-0.694,0.269-1.176,0.828-1.603c0.337-0.257,1.379-0.983,2.504-1.446c1.089-0.521,2.396-0.54,2.396-0.52 c0.005,0.028,0.102,0.027,0.261,0.038c0.205-1.085,0.419-1.931,1-3.125c0.318-0.73,1.61-3.23,1.608-5.248 C76.181,9.475,73.873,10.709,74.042,10.706z"/><path fill="#FFF" d="M127.673,67.096c-0.121,0.135-0.24,0.271-0.432,0.432c-0.1,0.076-0.215,0.177-0.474,0.271 c-0.036,0.005-0.066,0.014-0.094,0.02c0.118,0.135,0.22,0.283,0.293,0.447c0.25,0.613,0.231,1.147,0.185,1.591 c-0.016,0.122-0.034,0.241-0.054,0.356c0.319-0.479,1.116-1.708,3.04-3.036c0.457-0.261,1.005-0.431,1.596-0.46 c-0.01-0.24,0.031-0.395,0.06-0.502c1.382-3.146,2.991-5.134,3.746-7.262c0.189-0.482,0.29-0.996,0.255-1.202 c0.009-0.021,0.018-0.032,0.027-0.042c-0.036,0.023-0.107,0.049-0.233,0.007c-0.458,0.021-1.129,0.528-1.551,0.923 c-0.893,0.848-1.337,1.461-1.341,1.447c-0.047-0.021-1.763,2.279-4.425,6.246C128.089,66.578,127.904,66.828,127.673,67.096z"/><path fill="#F2808C" d="M141.485,65.699C141.443,65.724,141.441,65.742,141.485,65.699L141.485,65.699z"/><path fill="#FFF" d="M133.849,67.223c-0.04,0.025-0.074,0.051-0.106,0.076c0.203,0.182,0.383,0.401,0.499,0.643 c0.249,0.584,0.282,1.148,0.234,1.625c-0.013,0.163-0.032,0.324-0.057,0.482c0.577-0.941,1.248-1.893,2.227-2.683 c0.92-0.714,2.096-1.005,3.248-0.771c0.351,0.073,0.648,0.224,0.898,0.422c-0.099-0.134-0.136-0.272-0.176-0.415 c-0.002-1.052,0.245-1.1,0.381-1.556c1.253-2.716,3.154-5.512,3.785-8.363c-0.017-0.816,0.111-0.581-0.228-0.601 c-0.48,0.113-1.165,0.594-1.744,1.104c-1.191,1.041-2.299,2.291-3.364,3.535c-1.067,1.252-2.092,2.529-3.117,3.773 c-0.515,0.621-1.026,1.234-1.572,1.834C134.473,66.629,134.205,66.923,133.849,67.223z"/><path fill="#F2808C" d="M133.729,72.956C133.737,72.98,133.746,72.986,133.729,72.956L133.729,72.956z"/><path fill="#F8BFC8" d="M118.332,47.891c0.064-0.047-2.302,0.805-4.325,2.693c-2.099,1.803-3.668,4.415-4.06,5.308 c-0.646,1.355-1.14,2.176-1.701,3.281c0.503,0.259,0.899,0.516,1.079,0.679c0.3,0.232,0.496,0.484,0.616,0.766 c0.502-0.723,1.063-1.418,1.725-2.08c0.721-0.587,1.306-1.211,2.638-1.378c0.369-0.048,1.005,0.265,1.182,0.704 c0.204,0.414,0.197,0.729,0.198,1.012c-0.017,0.562-0.127,1.039-0.246,1.517c-0.206,0.788-0.477,1.554-0.765,2.331 c0.273-0.359,0.563-0.736,0.866-1.133c0.644-0.836,1.349-1.748,2.189-2.691c-0.365-1.201-0.397-2.225,0.39-3.53 c0.374-0.752,2.049-2.603,3.875-3.695c1.791-1.151,3.45-1.978,3.444-1.993c-0.01-0.012,1.661-0.864,3.311-1.941 c1.694-1.05,3.058-2.597,3.381-3.18c0.224-0.344,0.426-0.631,0.626-0.9c0.126-0.917,0.267-2.06,0.381-3.286 c0.109-1.935,0.742-4.037,1.43-5.479c-0.04,0.025-0.077,0.048-0.119,0.074c-0.584,0.349-1.685,1.18-2.841,2.412 c-0.718,0.771-1.517,1.694-2.394,2.604c-0.126,0.186-0.263,0.379-0.414,0.582c-0.597,0.764-2.451,3.645-5.227,5.154 C120.92,47.25,118.306,47.85,118.332,47.891z"/><path fill="#F2808C" d="M132.895,72.47C132.802,72.495,132.854,72.554,132.895,72.47L132.895,72.47z"/><path fill="#F2808C" d="M121.054,58.177C121.063,58.141,121.059,58.146,121.054,58.177L121.054,58.177z"/><path fill="#E54698" d="M126.263,51.189c0.011,0.013-1.665,0.862-3.321,1.933c-1.705,1.04-3.06,2.577-3.365,3.162 c-0.636,1.021-1.107,1.556-1.818,2.581c0.052-0.059,0.104-0.115,0.157-0.174c0.474-0.506,0.962-1.023,1.639-1.508 c0.348-0.229,0.729-0.508,1.435-0.566c0.392-0.034,0.781,0.141,1.081,0.393c0.966-0.818,1.785-1.428,3.128-2.188 c0.878-0.492,3.521-2.122,5.1-4.354c0.774-1.022,1.282-2.124,1.605-3.001c-0.642,0.609-1.403,1.231-2.197,1.716 C127.919,50.343,126.258,51.175,126.263,51.189z"/><path fill="#FFF" d="M120.635,67.76c-0.149,0.102-0.199,0.182-0.488,0.306c-0.066,0.042-0.322,0.128-0.637,0.08 c-0.068-0.011-0.134-0.032-0.197-0.062c0.116,0.461,0.063,0.805,0.078,1.158c-0.015,0.487-0.054,0.945-0.063,1.365 c-0.015,0.094-0.015,0.195-0.01,0.291c0.019-0.018,0.036-0.037,0.051-0.059c0.303-0.271,0.615-0.593,0.929-0.918 c0.632-0.656,1.275-1.342,2.043-1.95c0.406-0.293,0.805-0.596,1.368-0.786c0.599-0.215,1.204-0.186,1.716-0.086 c0.021,0.004,0.045,0.012,0.066,0.016c-0.117-1.023,0.142-1.004,0.215-1.443c0.124-0.334,0.259-0.648,0.396-0.969 c0.552-1.268,1.167-2.559,1.725-3.918c0.274-0.68,0.546-1.376,0.735-2.066c0.211-0.442,0.153-0.915,0.187-1.216 c-0.196,0.214-0.5,0.511-0.784,0.781c-0.52,0.563-1.024,1.2-1.52,1.849c-0.99,1.303-1.952,2.674-2.935,4.041 c-0.492,0.684-0.987,1.369-1.51,2.049c-0.268,0.338-0.529,0.676-0.838,1.015C121.007,67.406,120.842,67.578,120.635,67.76z"/><path fill="#F2808C" d="M112.837,69.965c-0.01-0.003,0.003-0.005,0.031-0.016C112.838,69.941,112.823,69.943,112.837,69.965z"/><path fill="#F2808C" d="M121.906,98.028c0.121-0.041,0.234-0.079,0.342-0.116c-0.114-0.001-0.226-0.007-0.335-0.013 C121.912,97.942,121.91,97.986,121.906,98.028z"/><path fill="#F8BFC8" d="M120.478,95.636c-0.007,0.005-0.012,0.009-0.019,0.015c0.063,0.035,0.121,0.069,0.17,0.096 c0.418,0.252,1.775,1.533,2.134,1.997c0.379-0.116,0.709-0.187,1.118-0.191c0.387,0.021,1.455-0.191,2.114-1.062 c0.683-0.826,0.976-1.928,0.984-1.909c-0.002,0.002,0.339-1.031,0.473-2.263c0.153-1.225,0.127-2.59,0.104-3.037 c-0.019-0.435,0.039-0.771,0.158-1.11c-0.568-0.052-1.09-0.187-1.738-0.493c-0.273-0.15-0.839-0.404-1.537-0.7 c-0.002,0.051,0,0.101-0.007,0.153c0.082,0.845-1.119,4.56-1.216,4.53C123.345,91.697,121.422,95.218,120.478,95.636z"/><path fill="#FFF" d="M113.587,94.925c0.032,0.028,0.629-0.735,0.9-1.201c-0.936-0.649-1.612-1.12-1.612-1.101 c-0.005,0.012-1.407-0.945-3.033-1.761c-1.616-0.855-3.498-1.375-4.128-1.512c-0.76-0.156-1.286-0.353-1.853-0.632 c-0.243,0.114-0.575,0.245-0.963,0.385c0.762,0.01,1.495,0.18,2.403,0.633c0.782,0.354,2.97,1.778,4.558,3.455 c0.983,0.998,1.84,1.975,2.362,2.585C112.689,95.573,113.613,94.963,113.587,94.925z"/><path fill="#E54698" d="M115.915,94.712c-0.405,0.647-1.112,1.516-1.159,1.477c0.03,0.047-0.736,0.585-1.384,0.947 c0.52,0.627,1.31,1.532,2.144,2.201c1.329,1.024,3.824-0.111,4.123-0.438c0.469-0.388,0.823-0.751,1.173-1.195 c-0.334-0.104-0.68-0.258-1.061-0.477C119.118,96.899,117.449,95.771,115.915,94.712z"/><path fill="#F2808C" d="M113.183,70.1c0.006,0.006,0.011,0.016,0.015,0.021C113.222,70.128,113.213,70.116,113.183,70.1z"/><path fill="#FFF" d="M171.491,55.755c-0.155-0.342-1.259-0.362-2.104-0.215c-0.891,0.146-1.741,0.38-2.507,0.623 c-1.533,0.497-2.748,1.013-3.55,1.362c-5.042,2.392-6.873,4.047-10.407,6.648c-1.392,0.885-2.383-0.268-1.678-0.981 c1.45-2.086,3.36-4.207,4.361-6.321c0.306-0.674,0.601-1.574,0.48-1.952c0.08-0.095-0.488-0.177-1.287,0.209 c-1.498,0.718-3.057,1.938-4.64,3.394c-0.848,0.785-2.043,2.093-3.452,3.816c-0.709,0.861-1.464,1.824-2.324,2.855 c-0.438,0.517-0.877,1.043-1.479,1.594c-0.15,0.135-0.316,0.279-0.585,0.428c-0.078,0.061-0.29,0.158-0.584,0.188 c-0.194-0.021-0.109,0.101-0.583-0.088c-0.043-0.022-0.078-0.046-0.113-0.068c0.591,0.622,0.836,1.515,0.821,2.06 c0.045,0.603,0.018,1.152-0.019,1.65c0.456-0.576,0.847-1.125,1.14-1.484c1.446-1.914,3.285-3.6,5.313-3.783 c0.915-0.139,2.068-0.327,3.003,0.514c0.812,1.004,0.327,2.092-0.015,3.003c0.143-0.979,0.124-2.105-0.472-2.46 c-0.562-0.32-1.42-0.112-2.2,0.166c-1.68,0.45-2.755,1.698-4.271,3.621c-0.425,0.519-0.927,1.294-1.841,2.337 c-0.113,0.13-0.279,0.279-0.46,0.428c-0.14,0.091-0.276,0.174-0.439,0.245c-0.329,0.066-0.689,0.128-1.015-0.14 c-0.893-1.105-0.404-1.311-0.527-1.765c0.047-0.762,0.13-1.499,0.075-2.186c-0.066-0.741-0.252-1.084-0.644-1.172 c-0.556-0.082-1.289,0.021-1.789,0.462c-1.193,0.93-2.004,2.624-3.027,4.231c-0.153,0.216-0.277,0.42-0.51,0.661 c-0.199,0.104-0.496,0.84-1.68,0.361c-0.615-0.486-0.404-0.738-0.493-1.019c0.014-0.16,0.027-0.356,0.055-0.484 c0.054-0.26,0.111-0.502,0.174-0.716c0.244-0.872,0.483-1.66,0.533-2.338c0.014-0.757-0.05-0.892-0.395-0.957 c-0.47-0.087-0.992-0.046-1.384,0.204c-1.77,1.186-2.651,2.867-2.675,2.768c-0.003,0.002-0.238,0.325-0.69,0.932 c-0.264,0.315-0.446,0.657-1.029,1.165c-0.162,0.109-0.388,0.349-1.021,0.332c-1.063-0.321-0.861-1.182-0.873-1.286 c0.06-0.49,0.17-0.734,0.265-1.076c0.419-1.154,0.827-2.895,0.101-2.734c-0.939-0.365-2.278,1.055-3.504,2.334 c-0.322,0.333-0.647,0.674-1.032,1.019c-0.202,0.173-0.417,0.352-0.719,0.523c-0.251,0.173-1.068,0.401-1.627-0.103 c-0.791-0.98-0.503-1.483-0.575-1.991c0.012-0.499,0.052-0.956,0.064-1.376c0.073-0.34-0.086-0.62-0.025-0.792 c-0.097,0.058-0.11-0.116-0.266-0.013c-0.452,0.145-1.093,0.726-1.627,1.279c-0.579,0.563-1.038,1.156-1.856,1.694 c-0.192,0.129-0.481,0.271-0.839,0.322c-0.295,0.155-1.163-0.263-1.243-0.542c-0.304-0.449-0.391-0.732-0.531-1.037 c-0.46-1.157-0.894-1.974-1.179-2.18c-0.104-0.344-1.206,0.16-1.933,0.729c-0.859,0.561-1.329,1.145-2.537,1.713 c-0.838,0.18-1.03-0.348-1.225-0.549c-0.151-0.262-0.242-0.505-0.313-0.726c-0.146-0.446-0.249-0.86-0.425-1.218 c-0.27-0.793-1.262-0.939-2.261-0.582c0.441-0.259,0.896-0.512,1.44-0.54c0.555-0.043,1.108,0.308,1.423,0.713 c0.333,0.403,0.545,0.843,0.757,1.218c0.039,0.172,0.181,0.317,0.285,0.416c0.423-0.346,1.162-1.123,1.883-1.712 c0.418-0.34,0.865-0.692,1.481-0.985c0.486-0.295,1.781-0.538,2.532,0.207c0.766,0.651,1.187,1.699,1.658,2.816 c0.059,0.133,0.124,0.283,0.187,0.412c0.4-0.271,0.922-0.846,1.461-1.389c0.607-0.572,1.168-1.283,2.382-1.729 c0.559-0.143,1.19-0.119,1.745,0.293c-0.021-0.259,0.061-0.405,0.059-0.564c0.042-0.27,0.107-0.477,0.169-0.691 c0.123-0.43,0.263-0.82,0.401-1.211c0.278-0.779,0.562-1.523,0.823-2.261c0.492-1.382,1.04-3.097,0.876-3.899 c-0.001-0.005-0.001-0.008-0.002-0.012c-0.1,0.037-0.266,0.115-0.414,0.23c-0.467,0.33-0.931,0.799-1.354,1.257 c-0.852,0.935-1.6,1.899-2.28,2.78c-0.68,0.885-1.289,1.699-1.854,2.406c-0.284,0.355-0.555,0.683-0.84,0.988 c-0.148,0.154-0.284,0.297-0.489,0.457c-0.08,0.07-0.236,0.172-0.416,0.252c-0.116,0.051-0.356,0.092-0.523,0.079 c-0.302-0.015-0.701-0.329-0.734-0.476c-0.297-0.762-0.093-0.785-0.106-1.022c0.037-0.175,0.079-0.335,0.125-0.476 c0.089-0.289,0.184-0.552,0.28-0.807c0.191-0.51,0.386-0.988,0.572-1.453c0.37-0.928,0.723-1.803,0.976-2.631 c0.209-0.495,0.228-1.082,0.262-1.334c-0.436,0.062-1.183,0.467-1.673,0.867c-2.4,1.994-3.996,4.842-6.234,7.799 c1.104-1.996,1.943-3.886,3.006-5.631c-0.36-0.092-0.643-0.197-0.968-0.432c-0.415-0.643-4.175-1.688-4.228-1.563 c0.025-0.083-3.552-0.358-4.648-0.343c-0.578,2.673-2.071,5.84-4.837,7.515c-6.3,3.599-12.699,1.229-12.575,1.33 c0.013-0.009-1.532-0.353-3.6-1.561c-2.095-1.169-4.459-3.388-6.468-5.974c-3.989-5.27-6.915-11.69-8.33-13.369 c-2.157-2.584-4.769-2.853-7.524-4.154c-0.01,0.02-0.021,0.042-0.03,0.059c-0.561,1.08-1.195,1.533-2.184,2.049 c0.013-0.192,0.122,0.594,0.792-2.757c0.038-0.184-3.276-0.966-3.255-0.294c0.051,1.563,0.544,2.384,0.697,3.346 c-1.094-0.592-1.8-1.295-2.182-2.705c-0.843-1.635-0.028-9.083-0.024-8.994c0.111-0.789,1.198-6.297,3.659-7.999 c-0.129-0.023-0.262-0.037-0.4-0.043c-1.952-0.324-3.737,3.906-4.325,6.389c-0.36,1.523-0.312,2.575-0.331,4.662 c-0.07,2.198,0.038,3.724,0.318,5.216c0.325,1.727,0.69,2.699,1.259,3.963c-0.934-0.605-1.307-1.305-1.775-2.258 c-0.881,1.274-1.623,2.345-3.08,3.783c-0.922,0.922-4.182,4.107-8.156,4.967c-3.742,1.105-7.329,1.102-7.324,1.105 c-0.006-0.021-0.879,0.041-2.275-0.084c-0.501-0.054-1.096-0.127-1.732-0.271c-0.008,3.075-0.729,5.705-3.01,8.994 c-1.2,2.117-7.085,7.221-6.807,13.839c-0.037,3.163,0.729,6.267,1.381,8.387c0.738,2.09,1.616,3.25,1.594,3.258 c-0.13-0.064,3.229,5.203,9.588,6.925c3.044,0.929,6.461,1.011,9.206,0.413c2.747-0.564,4.886-1.672,5.713-2.282 c3.077-2.476,2.995-5.445,2.968-9.076c0.616,1.771,0.996,3.36,0.915,5.132c-0.042,0.842-0.241,1.778-0.669,2.688 c0.066-0.021,0.131-0.042,0.201-0.063c1.078-0.32,3.814-4.576,6.247-6.287c2.458-1.666,2.752,0.862,4.966-0.196 c2.214-1.057,2.104-1.716,3.846-4.133c1.798-2.382,3.129-5.4,3.537-6.408c0.775-1.864,1.407-2.857,2.439-4.346 c0.021,1.806-0.063,3.045-0.847,5.002c-0.353,0.9-1.424,3.347-2.927,5.628c0.066-0.011,0.128-0.022,0.196-0.03 c0.654-0.096,2.567-0.109,4.261,0.151c1.689,0.157,3.32,0.834,3.272,0.808c-0.006,0.006,1.515,0.595,2.949,1.638 c1.473,1.004,2.698,2.507,3.079,3.013c0.375,0.51,0.573,0.966,0.672,1.443c0.989-1.646,1.808-3.063,2.125-3.729 c1.078-1.953,1.92-2.934,3.259-4.358c-0.356,1.918-0.682,3.197-1.749,5.185c-1.029,2.23-7.557,12.581-7.673,12.505 c0.022,0.004-1.76,2.547-3.789,5.191c-0.433,0.558-0.841,1.116-1.241,1.669c0.176-0.019,0.358-0.03,0.557-0.023 c0.626,0.001,2.451,0.249,4.03,0.757c1.588,0.481,2.94,1.156,2.94,1.155c0-0.003,1.374,0.624,2.746,1.598 c1.114,0.742,2.134,1.821,2.662,2.526c1.208-4.034,2.559-8.465,2.54-8.456c-0.062,0.006,3.649-12.109,4.936-14.386 c0.981-2.148,1.889-3.213,3.313-4.631c-0.474,1.973-0.808,3.23-1.735,5.322c-0.201,0.361-0.47,0.993-0.779,1.795 c0.097-0.016,0.197-0.029,0.305-0.037c1.097-0.01,6.411-0.827,6.397-0.891c0.027,0.082,5.163-1.38,6.088-1.931 c0.892-0.401,1.501-0.395,2.524-0.285c-0.19,0.331-0.366,0.616-0.566,0.868c0.213,0.014,0.434,0.037,0.674,0.081 c0.711,0.135,2.823,0.725,4.556,1.647c1.749,0.887,3.187,1.88,3.193,1.869c0.039-0.017,3.139,2.166,5.205,3.544 c0.094-0.15,0.205-0.286,0.366-0.422c0.619-0.216,2.346-3.25,2.242-3.317c0.086,0.039,1.147-3.346,1.092-4.049 c0.033-0.233,0.093-0.419,0.182-0.593c-1.944-0.785-4.041-1.584-4.054-1.555c0.015-0.038-6.13-1.954-7.392-2.251 c-0.212-0.058-0.405-0.122-0.583-0.191c-2.515-0.271-4.516-0.688-5.662-1.16c-3.227-0.938-5.646-2.036-7.804-3.303 c-2.076-1.325-4.164-2.778-5.428-5.295c1.721,2.186,3.884,3.133,6.016,4.178c2.2,0.961,4.577,1.873,7.689,2.766 c3.239,1.327,13.954,2.254,23.528,0.204c9.605-1.872,17.926-5.046,17.864-5.141c0.047,0.159,8.194-3.4,15.925-9.406 c1.929-1.456,3.829-3.114,5.541-4.77c0.845-0.839,1.644-1.701,2.264-2.586C171.451,56.984,171.774,55.924,171.491,55.755z"/><path fill="#FFF" d="M64.671,102.289c-0.067,0.053,1.486,2.374,2.013,2.726c0.788-1.029,1.717-2.376,2.611-3.523 c2.045-2.663,3.759-5.098,3.748-5.118c0.074,0.049,2.721-4.111,4.896-7.694c-0.575-0.365-0.995-0.711-1.473-1.333 c-0.21-0.264-0.684-0.849-1.306-1.462c-0.153,1.201-0.557,2.294-1.476,3.628c-0.644,1.049-3.124,3.774-5.817,5.639 c-2.172,1.571-4.288,2.864-4.941,3.272c0.155,0.15,0.269,0.318,0.343,0.55C63.377,99.563,64.611,102.323,64.671,102.289z"/><path fill="#F8BFC8" d="M30.55,45.168c0.373-0.207,0.721-0.451,1.225-0.713c1.271-0.277,5.715-5.916,5.756-5.96 c0.002-0.012,1.207-1.42,2.771-2.763c1.553-1.396,3.738-2.371,4.488-2.537c0.879-0.264,1.556-0.269,2.229-0.124 c0.049-0.411,0.087-0.666,0.09-0.693c-0.039-0.016,0.469-2.232,1.517-4.267c0.043-0.089,0.087-0.184,0.132-0.279 c-0.647,0.184-1.277,0.379-2.141,0.576c-0.846,0.158-3.357,1.07-5.489,2.384c-2.147,1.26-3.966,2.663-3.968,2.657 c-0.063-0.015-1.622,1.288-3.146,3.387c-1.508,2.022-3.332,4.255-4.106,4.895c-1.043,0.944-2.079,1.424-3.209,1.405 c0.305,0.271,0.623,0.526,0.951,0.752C28.632,44.584,29.674,44.963,30.55,45.168z"/><path fill="#F8BFC8" d="M78.705,109.102c-1.221-0.872-2.486-1.463-2.485-1.457c0.001,0.003-1.246-0.612-2.705-1.052 c-1.454-0.464-3.085-0.681-3.613-0.694c-0.602-0.027-1.026-0.138-1.489-0.296c-0.225,0.302-0.45,0.599-0.681,0.89 c-0.991,1.186-1.854,2.051-2.265,2.491c-0.419,0.443-0.797,0.811-1.156,1.142c0.032-0.002,0.063-0.007,0.097-0.009 c0.797-0.093,3.041,0.063,5.009,0.475c1.964,0.297,3.843,1.128,3.776,1.126c-0.007,0.01,1.739,0.724,3.402,1.978 c1.716,1.179,3.154,3.095,3.462,3.854c0.052,0.108,0.095,0.217,0.136,0.321c0.092-0.495,0.215-1.026,0.413-1.61 c0.183-0.693,0.615-2.174,1.139-3.937c-0.177-0.21-0.348-0.435-0.523-0.729C80.98,111.166,79.962,109.948,78.705,109.102z"/><path fill="#F8BFC8" d="M46.904,34.178c-0.476,0.249-0.956,0.453-1.594,0.658c-0.647,0.162-2.474,0.961-3.892,2.22 c-1.441,1.235-2.596,2.563-2.58,2.557c0.035-0.077-3.202,4.159-5.271,5.772c1.002-0.081,2.65-0.345,4.281-1.122 c2.607-1.182,5.114-3.345,5.994-3.996c1.099-0.856,1.971-1.364,2.965-1.763c-0.043-0.563-0.061-1.137-0.039-1.697 C46.781,35.833,46.841,34.92,46.904,34.178z"/><path fill="#FFF" d="M28.173,40.992c0.167-0.163,0.349-0.334,0.554-0.516c0.567-0.477,1.912-2.083,3.261-3.836 c-0.503-0.331-0.934-0.713-1.412-1.304c-0.432-0.512-1.734-2.186-3.12-3.233c-0.72-0.563-1.331-0.626-1.321-0.506 c-0.172,0.1-0.314,0.543-0.307,0.507c-0.072-0.005-0.359,1.206,0.235,3.103c0.474,1.784,1.309,3.678,1.594,4.284 C27.95,40.049,28.071,40.523,28.173,40.992z"/><path fill="#E54698" d="M29.719,51.878c-0.017-0.005,3.343-0.007,6.868-1.048c3.583-0.767,6.471-3.61,7.436-4.537 c1.452-1.405,2.538-2.268,3.955-3.045c-0.119-0.208-0.23-0.432-0.333-0.68c-0.239-0.482-0.527-1.582-0.709-2.879 c-0.548,0.631-1.147,1.227-2.024,1.928c-0.868,0.65-3.411,2.883-6.348,4.225c-2.938,1.4-6.002,1.323-5.967,1.282 c0.084,0.003-3.168,0.163-5.932-1.812c-1.361-0.934-2.502-2.198-3.326-3.313c-0.767-1.11-1.436-1.577-1.857-1.783 c-0.083-0.038-0.166-0.075-0.248-0.11c0.322,0.59,0.534,1.283,0.616,2.029c0.444,1.439-0.86,6.021,1.643,8.181 C26.047,52.342,29.855,51.746,29.719,51.878z"/><path fill="#E54698" d="M65.575,106.333c-0.778-0.51-2.497-3.187-2.414-3.217c-0.068,0.029-1.444-2.967-1.541-3.647 c-0.014-0.052-0.021-0.104-0.03-0.153c-0.945,0.657-2.352,1.665-3.722,2.72c-0.941,0.568-0.518,2.248-0.298,3.58 c0.295,1.303,0.748,2.267,1.007,2.718c0.935,1.607,1.584,2.468,2.97,3.594c0.066-0.078,0.139-0.151,0.214-0.22 c0.451-1.44,1.189-2.54,2.453-3.906C64.499,107.49,64.996,106.978,65.575,106.333z"/><path fill="#E54698" d="M75.564,115.085c-1.488-1.127-3.086-1.79-3.075-1.796c-0.048-0.031-1.456-0.694-3.404-0.998 c-1.889-0.39-3.948-0.522-4.578-0.455c-1.063,0.156-1.629-0.189-2.412,0.289c0.041,0.898,0.356,1.377,0.815,2.192 c0.26,0.58,1.896,2.104,3.797,3.091c1.855,1.027,3.698,1.736,3.693,1.743c0.018,0.004,1.762,0.782,3.847,1.213 c2.049,0.538,4.406,0.417,4.566,0.061c0.217-0.087,0.337-0.39,0.389-0.832c-0.222-0.384-0.444-0.759-0.681-1.264 C78.281,117.762,77.109,116.162,75.564,115.085z"/></g><path fill="#FFF" d="M81.131,49.791c0,0,6.085-1.498,6.639,0.066c0.606,1.711-3.477,3.421-3.441,4.78 c0.009,0.296-3.001-1.262-3.001-1.262s0.277-1.396,0.112-2.17C81.274,50.434,81.131,49.791,81.131,49.791z"/><path fill="#D9C9DE" d="M68.668,80.844c0,0,0.419-2.296,0.303-4.291c-0.209-3.596-1.114-6.402-1.114-6.402 s0.058,2.401-1.065,5.451c-0.649,1.764-2.716,5.117-2.716,5.117C66.024,80.449,68.668,80.844,68.668,80.844z"/><path fill="#D9C9DE" d="M114.487,93.724c0,0-2.183-1.792-4.995-3.034c-2.575-1.137-5.631-1.971-5.631-1.971l-0.963,0.385 c0,0,2.547,0.482,4.533,2.028C109.419,92.676,114.487,93.724,114.487,93.724z"/><path fill="#D9C9DE" d="M95.612,89.253c0,0-0.936-0.725-1.606-2.646c-0.842-2.403-0.846-3.864-0.846-3.864l-2.515,7.117 L95.612,89.253z"/><path fill="#D9C9DE" d="M71.602,94.883c0.907-1.813,2.084-5.371,2.084-5.371s0.865-1.414,1.058-2.058 c0.279-0.933,0.465-1.678,0.465-1.678s0.467,0.652,1.259,1.569c0.675,0.781,1.473,1.333,1.473,1.333s-2.806,4.659-4.682,7.198 c-1.877,2.539-6.574,9.138-6.574,9.138l-0.71-0.86C65.974,104.154,68.732,100.623,71.602,94.883z"/><path fill="#D9C9DE" d="M74.754,83.285c0,0,0.71,0.452,2.146,2.107c1.434,1.656,1.605,2.349,1.605,2.349s2.177-3.985,3.692-5.88 c1.766-2.208,1.691-2.208,1.691-2.208s-1.691,1.324-4.672,2.649C77.228,83.187,74.754,83.285,74.754,83.285z"/><path fill="#D9C9DE" d="M75.134,64.203c0,0-5.949-2.615-9.491-9.159c-5.077-9.38-11.773-9.825-11.773-9.825 s0.744-0.305,1.363-1.008c0.548-0.625,0.82-1.041,0.82-1.041s5.616,1.391,7.555,4.096c1.731,2.415,2.874,4.891,6.339,10.537 C71.779,60.791,75.134,64.203,75.134,64.203z"/><path fill="#D9C9DE" d="M36.985,52.523c0,0,5.261-0.68,8.461-2.666c3.928-2.438,4.817-3.621,4.817-3.621 s-0.77-0.539-1.157-1.199c-0.551-0.938-0.805-1.293-0.805-1.293s-1.773,2.646-4.4,5.01 C40.591,51.732,36.985,52.523,36.985,52.523z"/><path fill="#D9C9DE" d="M24.368,59.439c0,0,0.717-1.453,1.049-3.329c0.33-1.876,0.316-2.866,0.316-2.866 s1.451,0.313,3.221,0.313c2.658,0,4.291-0.233,4.291-0.233s-3.359,0.728-5.455,2.161C25.981,56.723,24.368,59.439,24.368,59.439 z"/><path fill="#D9C9DE" d="M28.173,40.992c0,0,0.576-0.888,1.051-3.496c0.441-2.428,0.552-3.09,0.552-3.09s0.31,0.351,1.081,1.233 c0.773,0.883,1.131,1.001,1.131,1.001s-1.439,1.738-1.992,2.512C29.444,39.924,28.173,40.992,28.173,40.992z"/><path fill="#D9C9DE" d="M54.864,41.635c0,0,1.784-2.097,1.895-7.008c0.11-4.911-0.866-7.471-1.932-7.634 c-1.065-0.162-3.035,3.458-3.421,8.148c-0.346,4.2-0.021,6.355-0.021,6.355s0.517-0.303,1.069-0.082 c0.551,0.221,0.666,0.561,0.666,0.561s0.328-0.561,1.1-0.506C54.993,41.525,54.864,41.635,54.864,41.635z"/><path fill="#D9C9DE" d="M96.545,77.336c0,0,3.751,5.188,11.035,7.615c7.283,2.428,14.481,4.663,14.481,4.663 s0.394-0.912,0.526-1.794c0.134-0.882,0.315-1.475,0.315-1.475s-7.026-2.747-10.559-3.63c-3.531-0.883-6.973-1.738-10.062-2.62 C99.192,79.212,96.545,77.336,96.545,77.336z"/><path fill="#D9C9DE" d="M58.445,32.757c0,0,1.259,2.777,1.164,6.137c-0.058,2.064-0.313,4.304-0.313,4.304 s-0.557-0.111-1.519-0.186c-1.297-0.1-1.529-0.235-1.529-0.235s1.301-2.854,1.743-4.913 C58.433,35.805,58.445,32.757,58.445,32.757z"/><path fill="#D9C9DE" d="M46.005,44.529c0,0,0.049-1.295,0.049-2.122s0.275-1.985,0.275-1.985l0.606-0.732 c0,0-0.054,0.896,0.388,1.945s0.654,1.613,0.654,1.613L46.005,44.529z"/><path fill="#D9C9DE" d="M44.784,39.645c0,0,0.053-1.311,0.332-2.777c0.333-1.741,0.661-2.185,0.661-2.185l1.127-0.504 c0,0-0.112,1.332-0.167,2.16c-0.056,0.828,0.07,2.167,0.07,2.167L44.784,39.645z"/><path fill="#D9C9DE" d="M47.019,33.071c0,0,0.138-1.259,0.635-2.693c0.496-1.436,1.104-2.546,1.104-2.546l-1.544,0.504 c0,0-0.911,0.571-1.873,2.311c-0.636,1.148-1.186,2.666-1.186,2.666L47.019,33.071z"/><path fill="#D9C9DE" d="M92.319,67.85c0,0,5.295-0.4,7.91-3.083c2.796-2.868,3.537-5.188,3.537-5.188s-0.907-0.071-2.031-0.166 c-1.229-0.105-2.318-0.089-2.318-0.089s-0.598,2.598-2.008,4.797C95.473,67.143,92.319,67.85,92.319,67.85z"/><g><ellipse cx="50.55" cy="59.348" fill="#602976" rx="1.968" ry="2.317"/><path fill="#602976" d="M50.896,57.065c0,0,1.429,0.428,2.589,0c1.426-0.524,1.92-1.294,1.92-1.294s0.162,2.008-1.895,2.605 c-1.719,0.5-2.589-0.029-2.589-0.029L50.896,57.065z"/></g><path fill="#D9C9DE" d="M49.144,89.256c0,0,1.515-5.139,3.605-6.31c0.949-0.531,2.238-0.294,2.979,0.773 c1.085,1.563,3.384,0.698,3.384,0.698s-1.613,1.981-5.443,0.588C51.848,86.192,49.144,89.256,49.144,89.256z"/><path fill="#602976" d="M172.853,54.683c-1.372-1.4-2.758-0.892-3.73-0.854c-1.038,0.17-1.949,0.428-2.768,0.686 c-1.631,0.532-2.886,1.068-3.718,1.436c-3.475,1.658-6.032,3.115-8.255,4.877c0.854-1.066,1.64-2.174,2.357-3.393 c0.366-0.799,0.914-1.502,0.761-2.863c-0.137-0.811-1.089-1.32-1.699-1.268c-0.636,0-1.144,0.171-1.625,0.356 c-1.869,0.808-3.492,2.063-5.191,3.604c-0.926,0.854-2.179,2.226-3.613,3.978c-0.412,0.498-0.841,1.032-1.284,1.582 c0.93-1.731,1.893-3.607,2.414-5.903c0.047-0.481,0.148-1.075-0.294-1.805c-0.486-0.751-1.438-0.882-2.016-0.728 c-1.15,0.313-1.819,0.918-2.512,1.484c-1.335,1.169-2.457,2.452-3.552,3.727c-0.825,0.969-1.619,1.942-2.396,2.895 c0.561-0.996,1.08-1.983,1.429-2.943c0.206-0.609,0.43-1.205,0.338-2.062c-0.048-0.426-0.341-0.993-0.822-1.251 c-0.452-0.22-0.812-0.266-1.178-0.242c-1.448,0.189-2.055,0.928-2.625,1.375c-1.052,1.002-1.492,1.631-1.506,1.625 c-0.025-0.027-0.844,1.051-2.12,2.865c0.059-0.141,0.119-0.277,0.179-0.42c0.288-0.714,0.576-1.445,0.803-2.257 c0.115-0.403,0.211-0.831,0.255-1.319c0.002-0.446,0.126-1.171-0.646-1.86c-0.443-0.269-0.705-0.369-1.303-0.272 c-0.392,0.117-0.637,0.285-0.835,0.434c-0.405,0.31-0.711,0.623-1.008,0.943c-0.589,0.641-1.111,1.303-1.624,1.974 c-1.023,1.343-1.991,2.724-2.966,4.081c-0.324,0.449-0.648,0.894-0.974,1.332l0.592-1.627c0.453-1.584,1.222-2.867,0.896-5.001 c-0.019-0.121-0.068-0.252-0.143-0.379c1.189-0.14,2.205-0.417,3.58-1.171c0.933-0.509,3.827-2.268,5.643-4.826 c1.891-2.51,2.37-5.373,2.396-5.336c0.322-0.065,0.722-8.887,2.849-11.756c2.128-2.869,2.875-2.905,3.156-3.158 c-1.137,0.083-3.054,0.573-6.585,2.28c-0.69,0.333-1.903,1.322-3.171,2.671c-1.239,1.333-2.542,2.897-4.005,4.133 c-2.856,2.55-6.461,3.042-6.432,3.074c0.046,0.021-3.715,0.648-7.394,2.572c-3.792,1.771-6.934,5.289-7.661,6.639 c-1.228,1.945-1.597,3.479-1.595,5.207c-1.066-0.103-2.653-0.214-3.515-0.223c0.47-2.403,0.957-4.284,1.287-5.245 c0.649-1.974,1.28-3.452,2.129-4.657c0.832-1.188,1.985-2.164,3.834-2.323c-0.308-0.075-0.617-0.114-0.923-0.125 c0.026-0.007,0.051-0.014,0.077-0.021c-2.157-0.456-4.141-0.731-6.56,1.185c-0.175,0.14-0.384,0.337-0.608,0.586 c-0.006,0.002-0.012,0.004-0.018,0.006c0.148-0.624,0.336-1.227,0.376-1.209c-0.07-0.064,1.078-1.607,1.49-1.986 c0.411-0.379,0.908-0.863,1.237-1.119c-0.447-0.117-0.853-0.203-1.254-0.237c-0.304-0.111-1.682,0.169-2.15,0.36 c-0.721,0.254-2.803,1.321-4.345,2.784c-1.563,1.435-2.576,3.103-2.566,3.065c-0.018-0.014-0.975,1.557-2.143,3.057 c-0.802,1.082-1.832,1.939-2.588,2.422c0.479-0.471,1.163-1.237,1.758-2.059c1.025-1.154,0.592-3.053,0.521-2.943 c-0.073-0.023,0.011-0.295-0.596-0.924c-0.576-0.508-1.331-0.646-2.01-0.691c-0.666-0.039-1.323,0.021-1.876,0.107 c0.26-0.292,0.522-0.611,0.76-0.951c0.42-0.598,0.767-1.281,0.868-1.934c0.127-0.646-0.076-1.162-0.066-1.149 c0.004,0.018-0.125-0.521-0.64-1.009c-0.46-0.467-1.286-0.802-2.134-0.863c-0.751-0.02-1.448,0.102-2.028,0.254 c0.356-0.53,0.753-1.197,1.043-1.927c0.693-1.406,0.218-3.195,0.123-3.127c0.014,0.048-0.121-0.46-0.684-0.962 c-0.593-0.543-1.63-0.653-2.387-0.498c-0.128,0.025-0.254,0.054-0.377,0.083c0.305-0.376,0.616-0.796,0.897-1.245 c1.021-1.312,0.788-3.386,0.623-3.342c-0.035,0.004-0.06-0.442-0.64-1.051c-0.618-0.642-1.793-0.767-2.598-0.536 c-0.021,0.005-0.04,0.011-0.062,0.016c0.141-0.457,0.23-0.971,0.207-1.522c-0.06-1.839-1.636-2.731-1.594-2.682 c0.041-0.028-0.352-0.24-0.936-0.377c0.117-0.127,0.224-0.277,0.322-0.465c0.06-0.375,1.132-1.542,0.322-3.391 c-0.563-0.732-1.172-1.033-1.651-1.165c0.779-0.646,1.347-1.324,1.93-2.476c0.336-0.851,1.737-3.173,1.788-6.087 c-0.021-0.721-0.317-1.687-1.093-2.195c-0.59-0.391-1.176-0.471-1.684-0.449c0.36-0.608,0.689-1.315,0.988-2.198 c0.214-0.725,0.637-2.354,0.196-4.305c-0.103-0.495-0.294-1.063-0.721-1.603c-0.416-0.564-1.236-0.929-1.918-0.912 c-1.375,0.025-2.339,0.629-3.247,1.163c-3.458,2.329-5.859,5.13-5.867,5.139c-0.008-0.014-2.5,2.748-4.523,6.266 c-2.101,3.477-3.582,7.668-3.965,9.086c-0.46,1.648-0.66,2.896-0.653,4.164c-0.358-0.665-1.028-1.203-2.222-1.323 c-0.549-0.046-1.686,0.184-2.609,0.996c-0.586,0.467-0.998,1.118-1.335,1.765c-0.891-0.308-1.834-0.345-3.038-0.076 c-0.984,0.171-3.741,1.185-5.963,2.564c-2.257,1.329-4.116,2.776-4.119,2.77c-0.008-0.079-1.941,1.572-3.4,3.589 c-0.174-0.454-0.42-0.896-0.811-1.397c-0.459-0.553-1.74-2.259-3.439-3.555c-0.748-0.583-2.176-1.347-3.357-0.506 c-0.902,0.773-0.852,1.338-0.916,1.323c0.012,0.003-0.217,0.48-0.249,1.37c-0.021,0.825,0.171,1.786,0.431,2.762 c0.518,1.95,1.392,3.919,1.713,4.571c0.365,0.679,0.724,1.217,1.218,1.609c-0.319,0.307-0.646,0.594-1.071,0.879 c-0.572-0.564-1.091-1.175-1.526-1.765c-0.747-1.127-1.872-2.034-2.463-2.271c-1.585-0.662-2.647-0.573-3.725-0.328 c-0.508,0.045-0.956,0.216-1.45,0.359c0.652,0.267,1.227,0.155,1.817,0.618c0.772,0.6,1.001,1.602,1.239,3.003 c0.092,0.62,0.066,1.894,0.033,3.624c-0.037,1.729,0.431,4.16,2.173,5.659c0.954,0.814,2.013,1.267,2.998,1.532 c-0.836,2.924-1.877,5.004-4.024,8.095c-0.65,0.979-2.209,2.763-3.98,5.235c-1.801,2.441-3.207,6.075-3.154,9.575 c-0.025,3.499,0.763,6.636,1.479,8.972c0.829,2.338,1.81,3.63,1.784,3.64c0.011-0.016,0.809,1.397,2.591,3.101 c1.76,1.709,4.604,3.577,7.946,4.544c3.32,1.014,7.043,1.104,10.051,0.452c3.028-0.64,5.275-1.787,6.383-2.596 c0.241-0.177,0.464-0.362,0.669-0.554c0.663-0.102,1.364-0.25,2.224-0.506c1.045-0.292,3.588-3.47,5.873-5.755 c1.916-1.916,3.369,0.661,5.418-0.594c2.261-1.386,2.505-2.064,4.293-4.387c0.483,0.05,0.916,0.101,1.539,0.033 c0.542-0.066,2.269-0.087,3.864,0.155c1.639,0.161,2.814,0.693,2.865,0.688c-0.007,0.006,1.314,0.526,2.573,1.442 c0.295,0.2,0.577,0.427,0.846,0.659c-0.741,1.038-1.388,1.866-2.299,3.166c-0.588,0.932-2.847,3.435-5.439,5.239 c-2.556,1.854-5.031,3.314-5.049,3.354c-0.071,0.02-2.407,1.57-5.089,3.645c-0.796,0.543-1.288,1.982-1.147,2.818 c0.017,0.881,0.178,1.688,0.318,2.419c0.33,1.478,0.874,2.642,1.199,3.192c1.153,1.983,2.648,2.688,4.405,2.83 c-0.632,0.812-0.775,2.027-0.034,3.216c0.436,0.904,2.409,2.663,4.418,3.697c1.99,1.096,3.888,1.813,3.883,1.82 c-0.063,0.114,7.714,3.009,10.08,1.07c0.537-0.396,0.756-0.922,0.803-1.407c0.767-0.988,1.112-2.191,1.629-3.67 c0.669-2.434,4.316-14.449,4.3-14.479c-0.037-0.025,1.953-6.497,3.49-10.792c0.31,0.068,0.642,0.097,1.037,0.073 c1.112,0.021,6.625-0.854,6.619-0.921c0.012,0.057,2.272-0.553,4.14-1.158c0.898,0.721,1.523,1.215,2.652,1.799 c0.688,0.331,2.63,1.581,4.136,3.157c1.524,1.541,2.809,3.119,2.816,3.111c0.097-0.021,1.064,1.582,3.098,3.246 c1.155,0.868,2.831,0.825,3.81,0.533c1.105-0.247,1.949-0.716,2.343-1.054c0.806-0.706,1.129-1.427,1.198-2.14 c0.494,0.701,1.008,1.145,2.025,1.16c0.53,0.087,2.465-0.363,3.41-1.685c0.973-1.215,1.258-2.489,1.281-2.477 c0.002,0.003,0.406-1.225,0.555-2.585c0.175-1.36,0.145-2.841,0.104-3.333c-0.066-0.907-0.426-1.416-1.096-2.036 c-0.006,0.013-0.013,0.024-0.019,0.038c-0.376-0.416-0.807-0.754-1.447-1.075c-1.15-0.665-7.283-3.01-7.3-2.959 c0.003-0.013-0.612-0.215-1.495-0.496c3.717-0.041,7.773-0.396,11.623-1.225c9.744-1.9,18.224-5.144,18.186-5.248 c0.052,0.159,8.468-3.511,16.336-9.631c1.997-1.51,3.897-3.165,5.701-4.907c0.889-0.884,1.74-1.793,2.469-2.831 c0.359-0.522,0.694-1.076,0.922-1.75C173.383,56.452,173.467,55.417,172.853,54.683z M136.329,64.494 c1.025-1.244,2.05-2.521,3.117-3.773c1.065-1.244,2.173-2.494,3.364-3.535c0.579-0.51,1.264-0.99,1.744-1.104 c0.339,0.02,0.211-0.216,0.228,0.601c-0.631,2.852-2.532,5.647-3.785,8.363c-0.136,0.456-0.383,0.504-0.381,1.556 c0.04,0.143,0.077,0.281,0.176,0.415c-0.25-0.198-0.548-0.349-0.898-0.422c-1.152-0.233-2.328,0.058-3.248,0.771 c-0.979,0.79-1.649,1.741-2.227,2.683c0.024-0.158,0.044-0.319,0.057-0.482c0.048-0.477,0.015-1.041-0.234-1.625 c-0.116-0.241-0.296-0.461-0.499-0.643c0.032-0.025,0.066-0.051,0.106-0.076c0.356-0.3,0.624-0.594,0.908-0.895 C135.303,65.729,135.814,65.115,136.329,64.494z M141.485,65.699C141.441,65.742,141.443,65.724,141.485,65.699L141.485,65.699z M132.696,60.086c0.004,0.014,0.448-0.6,1.341-1.447c0.422-0.395,1.093-0.901,1.551-0.923c0.126,0.042,0.197,0.017,0.233-0.007 c-0.01,0.01-0.019,0.021-0.027,0.042c0.035,0.206-0.065,0.72-0.255,1.202c-0.755,2.128-2.364,4.115-3.746,7.262 c-0.028,0.107-0.069,0.262-0.06,0.502c-0.591,0.029-1.139,0.199-1.596,0.46c-1.924,1.328-2.721,2.558-3.04,3.036 c0.02-0.115,0.038-0.234,0.054-0.356c0.047-0.443,0.065-0.978-0.185-1.591c-0.073-0.164-0.175-0.313-0.293-0.447 c0.027-0.006,0.058-0.015,0.094-0.02c0.259-0.095,0.374-0.195,0.474-0.271c0.191-0.161,0.311-0.297,0.432-0.432 c0.231-0.268,0.416-0.518,0.599-0.764C130.934,62.365,132.649,60.064,132.696,60.086z M133.729,72.956 C133.746,72.986,133.737,72.98,133.729,72.956L133.729,72.956z M132.895,72.47C132.854,72.554,132.802,72.495,132.895,72.47 L132.895,72.47z M121.161,67.237c0.309-0.339,0.57-0.677,0.838-1.015c0.522-0.68,1.018-1.365,1.51-2.049 c0.982-1.367,1.944-2.738,2.935-4.041c0.495-0.648,1-1.285,1.52-1.849c0.284-0.271,0.588-0.567,0.784-0.781 c-0.033,0.301,0.024,0.773-0.187,1.216c-0.189,0.69-0.461,1.387-0.735,2.066c-0.558,1.359-1.173,2.65-1.725,3.918 c-0.137,0.32-0.271,0.635-0.396,0.969c-0.073,0.439-0.332,0.42-0.215,1.443c-0.021-0.004-0.046-0.012-0.066-0.016 c-0.512-0.1-1.117-0.129-1.716,0.086c-0.563,0.19-0.962,0.493-1.368,0.786c-0.768,0.608-1.411,1.294-2.043,1.95 c-0.313,0.325-0.626,0.647-0.929,0.918c-0.015,0.021-0.032,0.041-0.051,0.059c-0.005-0.096-0.005-0.197,0.01-0.291 c0.01-0.42,0.049-0.878,0.063-1.365c-0.016-0.354,0.038-0.697-0.078-1.158c0.063,0.029,0.129,0.051,0.197,0.062 c0.314,0.048,0.57-0.038,0.637-0.08c0.289-0.124,0.339-0.204,0.488-0.306C120.842,67.578,121.007,67.406,121.161,67.237z M121.054,58.177C121.059,58.146,121.063,58.141,121.054,58.177L121.054,58.177z M130.297,50.468 c-1.578,2.232-4.222,3.862-5.1,4.354c-1.343,0.76-2.162,1.369-3.128,2.188c-0.3-0.252-0.689-0.427-1.081-0.393 c-0.705,0.059-1.087,0.338-1.435,0.566c-0.677,0.484-1.165,1.002-1.639,1.508c-0.054,0.059-0.105,0.115-0.157,0.174 c0.711-1.025,1.183-1.56,1.818-2.581c0.306-0.585,1.66-2.122,3.365-3.162c1.656-1.07,3.332-1.92,3.321-1.933 c-0.005-0.015,1.656-0.847,3.442-2.007c0.794-0.484,1.556-1.106,2.197-1.716C131.579,48.344,131.071,49.445,130.297,50.468z M128.798,40.564c0.151-0.203,0.288-0.396,0.414-0.582c0.877-0.91,1.676-1.833,2.394-2.604c1.156-1.231,2.257-2.063,2.841-2.412 c0.042-0.025,0.079-0.049,0.119-0.074c-0.688,1.442-1.32,3.545-1.43,5.479c-0.114,1.227-0.255,2.369-0.381,3.286 c-0.2,0.27-0.402,0.557-0.626,0.9c-0.323,0.583-1.687,2.13-3.381,3.18c-1.649,1.077-3.32,1.93-3.311,1.941 c0.006,0.016-1.653,0.842-3.444,1.993c-1.826,1.093-3.501,2.943-3.875,3.695c-0.787,1.306-0.755,2.329-0.39,3.53 c-0.841,0.943-1.546,1.855-2.189,2.691c-0.304,0.396-0.593,0.773-0.866,1.133c0.288-0.777,0.559-1.543,0.765-2.331 c0.119-0.478,0.229-0.955,0.246-1.517c-0.001-0.283,0.006-0.598-0.198-1.012c-0.177-0.439-0.813-0.752-1.182-0.704 c-1.332,0.167-1.917,0.791-2.638,1.378c-0.661,0.662-1.223,1.357-1.725,2.08c-0.12-0.281-0.316-0.533-0.616-0.766 c-0.18-0.163-0.576-0.42-1.079-0.679c0.562-1.105,1.055-1.926,1.701-3.281c0.392-0.893,1.961-3.505,4.06-5.308 c2.023-1.889,4.39-2.74,4.325-2.693c-0.026-0.041,2.588-0.641,5.239-2.172C126.347,44.209,128.201,41.328,128.798,40.564z M106.29,53.553c0.657-1.188,3.47-4.371,7.014-6.041c3.443-1.805,6.968-2.402,6.972-2.433c-0.035-0.009,0.6-0.103,1.583-0.399 c-2.076,1.053-4.061,1.538-4.045,1.569c-0.055-0.017-2.731,0.968-4.96,3.044c-2.304,1.973-4.022,4.832-4.454,5.844 c-0.672,1.443-0.84,2.557-0.703,3.771c-0.357-0.16-0.738-0.308-1.115-0.419c-1.166-0.365-2.238-0.52-2.237-0.521 c-0.001-0.021-0.194-0.053-0.508-0.091C104.53,56.4,105.2,55.253,106.29,53.553z M98.782,50.613 c0.597-1.549,1.452-2.512,1.933-2.908c0.689-0.564,1.328-0.968,1.98-1.288c-0.174,0.139-0.338,0.288-0.493,0.445 c-1.245,1.224-2.106,2.849-2.812,4.95c-0.397,1.137-1.736,6.845-1.629,6.928c-0.51,2.536-1.779,5.207-4.125,6.645 c-1.586,1.04-3.282,1.44-4.966,1.596c-1.796,0.01-2.772-0.365-4.295-1.158c-0.641-0.396-1.433-0.821-2.596-1.914 c1.33,0.6,2.89,0.941,4.274,1.068c2.051,0.266,4.118,0.15,5.613-0.34c1.508-0.477,2.311-1.25,2.313-1.225 c0.021-0.05,0.873-0.67,1.628-2.049c0.788-1.344,1.33-3.289,1.741-5.25C97.771,54.15,98.159,52.141,98.782,50.613z M58.4,32.117 c-0.047-0.85-0.204-1.718-0.383-2.472c1.774,0.893,3.42,1.372,5.457,2.512c1.459,0.571,4.817,4.48,6.315,8.947 c1.548,4.371,2.494,8.701,2.558,8.668c0.057-0.021,0.991,4.264,3.063,8.738c1.048,2.219,2.521,4.444,4.245,5.939 c1.388,1.199,2.738,1.871,3.638,2.279c-0.521-0.12-0.806-0.223-0.808-0.213c0.01-0.008-1.354-0.311-3.203-1.393 c-1.871-1.043-4.056-3.078-5.981-5.558c-3.784-4.978-6.726-11.415-8.324-13.344c-1.521-1.948-3.464-2.575-5.03-2.913 c-1.242-0.258-2.414-0.344-3.697-0.531c0.384-0.796,1.017-2.292,1.412-3.756c0.501-1.751,0.67-3.412,0.674-3.409 C58.32,35.613,58.555,33.958,58.4,32.117z M90.962,52.789c1.276-1.65,2.199-3.189,2.216-3.178 c0.024-0.012,0.924-1.478,2.311-2.745c0.683-0.645,1.481-1.202,2.19-1.63c-0.196,0.498-0.607,1.999-0.633,2.709 c-0.306,0.213-0.619,0.465-0.952,0.775c-1.279,0.994-2.154,4.851-4.744,6.219c-1.103,0.574-2.333,0.68-3.36,0.627 C88.934,54.957,90.134,53.934,90.962,52.789z M87.375,57.236c1.201,0.117,3.082,0.189,4.812-0.779 c1.762-1.002,2.746-2.523,3.566-3.942c0.549-1.144,0.991-1.909,1.344-2.345c-0.661,1.711-1.04,3.725-1.439,5.576 c-0.4,1.93-0.908,3.684-1.553,4.771c-0.597,1.106-1.282,1.586-1.214,1.56c-0.012-0.019-0.558,0.536-1.749,0.915 c-1.18,0.389-2.983,0.513-4.879,0.264c-4.021-0.039-6.904-3.126-7.737-4.24c-0.88-1.114-1.562-1.963-2.234-2.812 c-1.502-3.644-2.241-6.919-2.284-6.896c-0.015,0.003-0.06-0.152-0.134-0.434c1.029,1.352,3.075,3.634,5.449,5.239 c2.802,2.085,6.047,2.847,6.047,2.811C85.399,56.937,86.134,57.1,87.375,57.236z M86.584,49.248 c1.194,0.086,0.995,0.408,1.098,0.487c-0.02,0.014,0.282,0.517-0.327,1.345c-0.565,0.801-1.603,1.548-1.927,1.789 c-0.552,0.408-0.907,1.174-1.164,1.93c-0.804-0.295-1.854-0.754-2.937-1.423c0.02-0.054,0.039-0.11,0.054-0.171 c0.056-0.299,0.206-1.215,0.083-2.083c-0.049-0.536-0.214-1.032-0.333-1.331c0.548,0.025,2.304-0.068,2.835-0.221 C84.337,49.473,85.563,49.182,86.584,49.248z M79.952,37.167c1.154-0.171,1.123,0.332,1.194,0.407 c0.03-0.025,0.329,0.728-0.144,1.84c-0.423,1.08-1.305,2.209-1.582,2.578c-0.381,0.504-0.853,1.854-0.979,2.051 c0.105,0.03,1.621,0.266,2.278,0.025c0.423-0.146,1.755-0.664,2.78-0.62c0.47,0.034,0.845,0.194,1.058,0.395 c0.159,0.163,0.169,0.254,0.173,0.261c0.021-0.077,0.177,0.541-0.577,1.579c-0.673,0.962-1.726,1.886-2.065,2.179 c-0.58,0.499-0.785,0.97-1.058,1.693c-0.017-0.037-0.027-0.059-0.027-0.059c0.007,0.01-0.332-0.788-1.069-1.415 c-0.201-0.183-0.425-0.331-0.653-0.45c0.059-0.162,0.077-0.338,0.048-0.538c0.099-0.683-1.345-3.468-1.498-3.382 c-0.005,0.008-0.479-0.632-1.18-1.161c-0.205-0.165-0.429-0.312-0.65-0.439c0.124-0.184,0.191-0.386,0.191-0.634 c-0.05-0.287-0.078-1.177-0.399-1.968c-0.124-0.417-0.315-0.786-0.469-1.048c0.629,0.13,1.169,0.066,1.795-0.216 C77.552,38.06,78.873,37.36,79.952,37.167z M75.22,26.64c-0.033-0.019,0.777,0.419,0.771,1.301 c0.07,0.924-0.621,2.027-0.851,2.309c-0.075,0.098-0.135,0.192-0.191,0.284c-0.376,0.237-0.661,0.445-0.829,0.56 c-0.812,0.608-1.103,1.238-1.268,2.206c0.953-0.197,1.519-0.27,2.268-0.805c0.389-0.269,1.683-1.165,2.838-1.44 c1.211-0.292,1.141,0.419,1.231,0.471c0.028-0.058,0.27,0.723-0.478,1.866c-0.673,1.093-1.793,2.204-2.136,2.588 c-0.296,0.324-0.501,0.636-0.644,0.972c-0.387,0.275-0.622,0.596-0.917,1.007c-0.151-0.207-0.51-0.688-0.979-1.098 c-0.127-0.124-0.262-0.237-0.396-0.343c0.056-0.176,0.071-0.364,0.038-0.581c-0.058-0.32-0.238-1.297-0.655-2.159 c-0.386-0.876-1.025-1.543-1.02-1.541c0.003,0.006-0.42-0.483-1.078-0.904c0.104-0.212,0.156-0.447,0.136-0.736 c-0.025-0.323-0.148-1.29-0.606-2.156c0.287-0.135,0.539-0.284,0.816-0.546c0.275-0.272,1.28-1.071,2.301-1.349 C74.623,26.219,75.24,26.639,75.22,26.64z M74.348,21.834c0.257,0.25-0.215,1.466-0.379,1.74 c-0.184,0.388-0.236,0.735-0.208,1.143c-0.219,0.028-0.439,0.076-0.657,0.157c-1.45,0.402-2.647,1.396-3.012,1.761 c-0.212,0.207-0.365,0.419-0.479,0.641c-0.383-0.4-0.711-0.622-0.702-0.626c0.001,0.003-0.168-0.124-0.442-0.292 c0.067-0.205,0.086-0.425,0.041-0.685c-0.058-0.332-0.264-1.348-0.796-2.237c0.726-0.029,1.174-0.06,1.702-0.435 c0.3-0.216,1.245-0.864,2.159-1.24c0.931-0.424,1.683-0.396,1.669-0.398c-0.012,0.015,0.19-0.009,0.396,0.071 C73.984,21.533,74.271,21.685,74.348,21.834z M76.173,11.307c0.002,2.017-1.29,4.518-1.608,5.248 c-0.581,1.195-0.795,2.041-1,3.125c-0.159-0.011-0.256-0.01-0.261-0.038c0-0.02-1.308-0.001-2.396,0.52 c-1.125,0.462-2.167,1.188-2.504,1.446c-0.56,0.427-0.752,0.909-0.828,1.603c-0.55-0.852-1.318-1.367-1.308-1.365 c0.003,0.002-0.187-0.137-0.492-0.312c0.867-0.89,1.477-1.56,2.162-2.839c0.412-0.76,1.675-3.06,3.09-4.943 c1.382-1.961,3.018-3.115,3.015-3.046C73.873,10.709,76.181,9.475,76.173,11.307z M57.718,21.708 c0.379-1.351,1.799-5.372,3.812-8.709c1.939-3.378,4.311-6.014,4.317-6C65.813,7.02,68.206,4.3,71.346,2.186 c0.765-0.482,1.664-0.911,2.287-0.895c0.545-0.023,0.796,0.399,0.987,1.162c0.344,1.516,0.021,2.808-0.157,3.437 c-0.408,1.268-0.796,2.26-1.166,3.258c-0.093,0.056-0.14,0.089-0.144,0.083c-0.064-0.05-2.086,1.424-3.513,3.483 c-1.511,2.008-2.807,4.375-3.221,5.171c-0.681,1.32-0.878,2.257-0.918,3.502c-0.289-0.149-0.638-0.301-1.014-0.406 c-0.967-0.31-2.005-0.38-2.347-0.405c-0.632-0.031-1.002,0.264-1.504,0.806c0.5,0.558,0.811,0.857,1.373,0.911 c0.301,0.034,1.226,0.104,1.968,0.343c0.762,0.215,1.28,0.616,1.285,0.608c-0.005,0.006,0.542,0.369,0.913,0.998 c0.272,0.423,0.447,0.966,0.549,1.357c-0.82-0.236-1.629-0.313-1.926-0.337c-0.646-0.03-1.029,0.269-1.514,0.828 c0.522,0.539,0.821,0.839,1.375,0.887c0.293,0.039,1.196,0.128,1.934,0.399c0.753,0.247,1.286,0.664,1.29,0.654 c-0.01,0.009,0.558,0.393,0.918,1.017c0.346,0.525,0.477,1.233,0.526,1.588c-0.479-0.126-0.886-0.178-1.07-0.198 c-0.621-0.055-0.992,0.251-1.44,0.802c0.483,0.549,0.746,0.841,1.237,0.907c0.261,0.041,1.06,0.152,1.657,0.483 c0.61,0.303,1.018,0.77,1.019,0.767c-0.004,0.004,0.428,0.446,0.718,1.109c0.173,0.354,0.299,0.762,0.387,1.104 c-0.271,0.026-0.554,0.148-0.898,0.339c0.15,0.684,0.24,1.059,0.644,1.268c0.521,0.169,2.173,1.732,2.079,1.8 c0.1-0.054,0.81,1.838,0.818,2.495c-0.435-0.025-0.79,0.206-1.186,0.617c0.367,0.602,0.524,0.93,0.931,1.064 c0.528-0.006,2.351,1.477,2.258,1.588c0.098-0.064,0.976,1.641,1.128,2.387c-0.468,0.038-0.773,0.353-1.08,0.848 c0.478,0.52,0.688,0.802,1.075,0.859c0.205,0.04,0.818,0.164,1.209,0.529c0.409,0.343,0.64,0.826,0.633,0.828 c0.132-0.07,0.35,1.244,0.33,2.08c-2.432-1.796-4.427-4.258-5.011-5.154c-0.847-1.232-1.486-2.045-2.164-2.973 c-0.339-1.144-0.736-2.404-1.191-3.699c-1.561-4.67-5.186-9.029-7.059-9.813c-2.626-1.404-4.397-1.408-6.489-1.631 c-0.166-0.606-0.333-1.09-0.438-1.346c-0.314-0.765-0.699-1.243-1.204-1.636C56.716,24.719,57.197,23.509,57.718,21.708z M54.734,27.119c0.028-0.135,0.571-0.07,1.083,1.197c0.222,0.549,0.759,2.271,0.856,3.933c0.143,1.653-0.063,3.172-0.051,3.171 c-0.003-0.002-0.164,1.516-0.63,3.132c-0.284,1.044-0.699,2.109-1.034,2.883c-0.009-0.015-0.043,0.063-0.095,0.199 c-0.433-0.27-1.018-0.345-1.551,0.062c-0.071,0.097-0.134,0.188-0.193,0.278c-0.03-0.072-0.068-0.149-0.115-0.229 c-0.6-0.576-1.188-0.516-1.62-0.25c-0.045-0.527-0.054-1.184-0.037-1.186c-0.029-0.48-0.026-1.336-0.068-1.31 c0.049-2.353,0.317-5.016,0.335-5.05c-0.033-0.082,0.142-1.575,0.908-3.44C53.146,28.704,54.523,26.959,54.734,27.119z M26.063,35.207c-0.595-1.897-0.308-3.107-0.235-3.103c-0.008,0.037,0.135-0.407,0.307-0.507 c-0.01-0.12,0.602-0.058,1.321,0.506c1.386,1.047,2.688,2.722,3.12,3.233c0.479,0.591,0.909,0.974,1.412,1.304 c-1.349,1.753-2.693,3.359-3.261,3.836c-0.205,0.182-0.387,0.353-0.554,0.516c-0.102-0.469-0.223-0.943-0.517-1.502 C27.371,38.884,26.536,36.991,26.063,35.207z M29.907,41.73c0.774-0.64,2.599-2.872,4.106-4.895 c1.523-2.099,3.083-3.401,3.146-3.387c0.002,0.006,1.82-1.396,3.968-2.657c2.132-1.314,4.644-2.226,5.489-2.384 c0.863-0.197,1.493-0.393,2.141-0.576c-0.045,0.095-0.089,0.19-0.132,0.279c-1.048,2.035-1.556,4.251-1.517,4.267 c-0.003,0.027-0.041,0.282-0.09,0.693c-0.673-0.145-1.35-0.14-2.229,0.124c-0.75,0.166-2.936,1.14-4.488,2.537 c-1.564,1.343-2.77,2.751-2.771,2.763c-0.041,0.044-4.484,5.683-5.756,5.96c-0.504,0.262-0.852,0.506-1.225,0.713 c-0.876-0.205-1.918-0.584-2.9-1.28c-0.328-0.226-0.646-0.48-0.951-0.752C27.828,43.154,28.864,42.675,29.907,41.73z M46.808,38.505c-0.994,0.398-1.866,0.906-2.965,1.763c-0.88,0.651-3.387,2.814-5.994,3.996 c-1.631,0.777-3.279,1.041-4.281,1.122c2.069-1.613,5.307-5.85,5.271-5.772c-0.016,0.006,1.139-1.322,2.58-2.557 c1.418-1.259,3.244-2.059,3.892-2.22c0.638-0.206,1.118-0.409,1.594-0.658c-0.063,0.742-0.123,1.655-0.136,2.63 C46.747,37.368,46.765,37.942,46.808,38.505z M23.492,50.315c-2.503-2.159-1.198-6.741-1.643-8.181 c-0.082-0.746-0.294-1.439-0.616-2.029c0.082,0.035,0.165,0.072,0.248,0.11c0.422,0.206,1.091,0.673,1.857,1.783 c0.824,1.115,1.965,2.38,3.326,3.313c2.764,1.975,6.016,1.814,5.932,1.812c-0.035,0.041,3.029,0.118,5.967-1.282 c2.937-1.342,5.479-3.574,6.348-4.225c0.877-0.701,1.477-1.297,2.024-1.928c0.182,1.297,0.47,2.396,0.709,2.879 c0.103,0.248,0.214,0.472,0.333,0.68c-1.417,0.777-2.503,1.64-3.955,3.045c-0.965,0.927-3.853,3.771-7.436,4.537 c-3.525,1.041-6.885,1.043-6.868,1.048C29.855,51.746,26.047,52.342,23.492,50.315z M67.868,95.15 c2.693-1.864,5.174-4.59,5.817-5.639c0.919-1.334,1.322-2.427,1.476-3.628c0.622,0.613,1.096,1.198,1.306,1.462 c0.478,0.622,0.897,0.968,1.473,1.333c-2.176,3.583-4.822,7.743-4.896,7.694c0.011,0.021-1.703,2.455-3.748,5.118 c-0.895,1.147-1.823,2.494-2.611,3.523c-0.526-0.352-2.08-2.673-2.013-2.726c-0.06,0.034-1.294-2.727-1.401-3.316 c-0.074-0.231-0.188-0.399-0.343-0.55C63.58,98.015,65.696,96.722,67.868,95.15z M61.547,111.927 c-1.386-1.126-2.035-1.986-2.97-3.594c-0.259-0.451-0.712-1.415-1.007-2.718c-0.22-1.332-0.644-3.012,0.298-3.58 c1.37-1.055,2.776-2.063,3.722-2.72c0.009,0.05,0.017,0.102,0.03,0.153c0.097,0.681,1.473,3.677,1.541,3.647 c-0.083,0.03,1.636,2.707,2.414,3.217c-0.579,0.645-1.076,1.157-1.361,1.468c-1.264,1.366-2.002,2.466-2.453,3.906 C61.686,111.775,61.613,111.849,61.547,111.927z M78.813,120.425c-0.16,0.356-2.518,0.478-4.566-0.061 c-2.085-0.431-3.829-1.209-3.847-1.213c0.005-0.007-1.838-0.716-3.693-1.743c-1.901-0.987-3.537-2.511-3.797-3.091 c-0.459-0.815-0.774-1.294-0.815-2.192c0.783-0.479,1.35-0.133,2.412-0.289c0.63-0.067,2.689,0.065,4.578,0.455 c1.948,0.304,3.356,0.967,3.404,0.998c-0.011,0.006,1.587,0.669,3.075,1.796c1.545,1.077,2.717,2.677,2.957,3.244 c0.236,0.505,0.459,0.88,0.681,1.264C79.15,120.035,79.03,120.338,78.813,120.425z M80.605,116.26 c-0.198,0.584-0.321,1.115-0.413,1.61c-0.041-0.104-0.084-0.213-0.136-0.321c-0.308-0.76-1.746-2.676-3.462-3.854 c-1.663-1.254-3.409-1.968-3.402-1.978c0.066,0.002-1.813-0.829-3.776-1.126c-1.968-0.412-4.212-0.567-5.009-0.475 c-0.033,0.002-0.064,0.007-0.097,0.009c0.359-0.331,0.737-0.698,1.156-1.142c0.411-0.44,1.273-1.306,2.265-2.491 c0.23-0.291,0.456-0.588,0.681-0.89c0.463,0.158,0.888,0.269,1.489,0.296c0.528,0.014,2.159,0.23,3.613,0.694 c1.459,0.439,2.706,1.055,2.705,1.052c-0.001-0.006,1.265,0.585,2.485,1.457c1.257,0.847,2.275,2.064,2.516,2.493 c0.176,0.294,0.347,0.519,0.523,0.729C81.221,114.086,80.788,115.566,80.605,116.26z M112.222,95.776 c-0.522-0.61-1.379-1.587-2.362-2.585c-1.588-1.677-3.775-3.101-4.558-3.455c-0.908-0.453-1.642-0.623-2.403-0.633 c0.388-0.14,0.72-0.271,0.963-0.385c0.566,0.279,1.093,0.476,1.853,0.632c0.63,0.137,2.512,0.656,4.128,1.512 c1.626,0.815,3.028,1.772,3.033,1.761c0-0.02,0.677,0.451,1.612,1.101c-0.271,0.466-0.868,1.229-0.9,1.201 C113.613,94.963,112.689,95.573,112.222,95.776z M119.639,98.898c-0.299,0.327-2.794,1.463-4.123,0.438 c-0.834-0.669-1.624-1.574-2.144-2.201c0.647-0.362,1.414-0.9,1.384-0.947c0.047,0.039,0.754-0.829,1.159-1.477 c1.534,1.06,3.203,2.188,3.836,2.515c0.381,0.219,0.727,0.372,1.061,0.477C120.462,98.147,120.107,98.511,119.639,98.898z M124.433,87.131c0.007-0.053,0.005-0.103,0.007-0.153c0.698,0.296,1.264,0.55,1.537,0.7c0.648,0.307,1.17,0.441,1.738,0.493 c-0.119,0.339-0.177,0.676-0.158,1.11c0.022,0.447,0.049,1.813-0.104,3.037c-0.134,1.231-0.475,2.265-0.473,2.263 c-0.009-0.019-0.302,1.083-0.984,1.909c-0.659,0.87-1.728,1.083-2.114,1.062c-0.409,0.005-0.739,0.075-1.118,0.191 c-0.358-0.464-1.716-1.745-2.134-1.997c-0.049-0.026-0.107-0.061-0.17-0.096c0.007-0.006,0.012-0.01,0.019-0.015 c0.944-0.418,2.867-3.938,2.739-3.975C123.313,91.69,124.515,87.976,124.433,87.131z M170.809,57.836 c-0.62,0.885-1.419,1.747-2.264,2.586c-1.712,1.655-3.612,3.313-5.541,4.77c-7.73,6.006-15.878,9.565-15.925,9.406 c0.062,0.095-8.259,3.269-17.864,5.141c-9.574,2.05-20.289,1.123-23.528-0.204c-3.112-0.893-5.489-1.805-7.689-2.766 c-2.132-1.045-4.295-1.992-6.016-4.178c1.264,2.517,3.352,3.97,5.428,5.295c2.158,1.267,4.577,2.365,7.804,3.303 c1.146,0.472,3.147,0.889,5.662,1.16c0.178,0.069,0.371,0.134,0.583,0.191c1.262,0.297,7.406,2.213,7.392,2.251 c0.013-0.029,2.109,0.77,4.054,1.555c-0.089,0.174-0.148,0.359-0.182,0.593c0.056,0.703-1.006,4.088-1.092,4.049 c0.104,0.067-1.456,2.57-2.608,3.739c-2.066-1.378-5.166-3.561-5.205-3.544c-0.007,0.011-1.444-0.982-3.193-1.869 c-1.732-0.923-3.845-1.513-4.556-1.647c-0.24-0.044-0.461-0.067-0.674-0.081c0.2-0.252,0.376-0.537,0.566-0.868 c-1.023-0.109-1.633-0.116-2.524,0.285c-0.925,0.551-6.061,2.013-6.088,1.931c0.014,0.063-5.301,0.881-6.397,0.891 c-0.107,0.008-0.208,0.021-0.305,0.037c0.31-0.802,0.578-1.434,0.779-1.795c0.928-2.092,1.262-3.35,1.735-5.322 c-1.424,1.418-2.331,2.482-3.313,4.631c-1.286,2.276-4.997,14.392-4.936,14.386c0.019-0.009-1.332,4.422-2.54,8.456 c-0.528-0.705-1.548-1.784-2.662-2.526c-1.372-0.974-2.746-1.601-2.746-1.598c0,0.001-1.353-0.674-2.94-1.155 c-1.579-0.508-3.404-0.756-4.03-0.757c-0.198-0.007-0.381,0.005-0.557,0.023c0.4-0.553,0.809-1.111,1.241-1.669 c2.029-2.645,3.812-5.188,3.789-5.191c0.116,0.076,6.644-10.274,7.673-12.505c1.067-1.987,1.393-3.267,1.749-5.185 c-1.339,1.425-2.181,2.405-3.259,4.358c-0.317,0.666-1.136,2.084-2.125,3.729c-0.099-0.478-0.297-0.934-0.672-1.443 c-0.381-0.506-1.606-2.009-3.079-3.013c-1.435-1.043-2.955-1.632-2.949-1.638c0.048,0.026-1.583-0.65-3.272-0.808 c-1.693-0.261-3.606-0.247-4.261-0.151c-0.068,0.008-0.13,0.02-0.196,0.03c1.503-2.281,2.574-4.728,2.927-5.628 c0.783-1.957,0.868-3.196,0.847-5.002c-1.032,1.488-1.664,2.481-2.439,4.346c-0.408,1.008-1.739,4.026-3.537,6.408 c-1.742,2.417-1.971,3.274-3.846,4.133c-1.874,0.858-2.508-1.47-4.966,0.196c-2.433,1.711-5.169,5.967-6.247,6.287 c-0.07,0.021-0.135,0.042-0.201,0.063c0.428-0.91,0.627-1.847,0.669-2.688c0.081-1.771-0.299-3.361-0.915-5.132 c0.027,3.631,0.109,6.601-2.968,9.076c-0.827,0.61-2.966,1.718-5.713,2.282c-2.745,0.598-6.162,0.516-9.206-0.413 c-6.359-1.722-9.718-6.989-9.588-6.925c0.022-0.008-0.855-1.168-1.594-3.258c-0.652-2.12-1.418-5.224-1.381-8.387 c-0.278-6.618,5.606-11.722,6.807-13.839c2.281-3.289,3.002-5.919,3.01-8.994c0.637,0.145,1.231,0.218,1.732,0.271 c1.396,0.125,2.27,0.063,2.275,0.084c-0.005-0.004,3.582,0,7.324-1.105c3.975-0.859,7.234-4.045,8.156-4.967 c1.457-1.438,2.199-2.509,3.08-3.783c0.563,0.748,1.056,2.194,1.962,2.492c-0.839-1.633-1.026-2.426-1.445-4.477 c-0.326-1.631-0.389-2.739-0.318-4.937c0.02-2.087,0.079-2.983,0.306-4.153c0.228-1.17,2.035-7.125,4.351-6.897 c2.314,0.228,0.271,0.02,0.4,0.043c-2.461,1.702-3.55,6.949-3.659,7.999c-0.111,1.051-0.818,7.359,0.024,8.994 c0.382,1.41,1.088,2.113,2.182,2.705c-0.095-0.596-0.32-1.791-0.479-2.616c0.011-0.096-0.07-0.38,0.148-0.669 c0.122-0.16,0.394-0.063,0.47,0.055c0.075,0.119,0.077,0.658,0.073,0.768c-0.003,0.109-0.014,0.47,0.223,0.681 c0.237,0.211,0.269,0.165,0.602,0.065c0.332-0.098,0.491-1.141,0.79-1.398c0.02-0.092,0.371-0.041,0.462,0.04 c0.062,0.042,0.08,0.205,0.061,0.31c-0.017,0.07-0.026,0.141-0.035,0.21c-0.271,0.851-0.537,1.738-0.507,1.722 c-0.015,0.17-0.028,0.347-0.041,0.539c0.988-0.516,1.623-0.969,2.184-2.049c0.009-0.017,0.021-0.039,0.03-0.059 c2.756,1.302,5.367,1.57,7.524,4.154c1.415,1.679,4.341,8.1,8.33,13.369c2.009,2.586,4.373,4.805,6.468,5.974 c2.067,1.208,3.612,1.552,3.6,1.561c-0.124-0.102,6.275,2.269,12.575-1.33c2.766-1.675,4.259-4.842,4.837-7.515 c1.097-0.016,4.674,0.26,4.648,0.343c0.053-0.124,3.813,0.921,4.228,1.563c0.325,0.234,0.607,0.34,0.968,0.432 c-1.063,1.745-1.902,3.635-3.006,5.631c2.238-2.957,3.834-5.805,6.234-7.799c0.49-0.4,1.237-0.806,1.673-0.867 c-0.034,0.252-0.053,0.839-0.262,1.334c-0.253,0.828-0.605,1.703-0.976,2.631c-0.187,0.465-0.381,0.943-0.572,1.453 c-0.097,0.255-0.191,0.518-0.28,0.807c-0.046,0.141-0.088,0.301-0.125,0.476c0.014,0.237-0.19,0.261,0.106,1.022 c0.033,0.146,0.433,0.461,0.734,0.476c0.167,0.013,0.407-0.028,0.523-0.079c0.18-0.08,0.336-0.182,0.416-0.252 c0.205-0.16,0.341-0.303,0.489-0.457c0.285-0.306,0.556-0.633,0.84-0.988c0.564-0.707,1.174-1.521,1.854-2.406 c0.681-0.881,1.429-1.846,2.28-2.78c0.424-0.458,0.888-0.927,1.354-1.257c0.148-0.115,0.314-0.193,0.414-0.23 c0.001,0.004,0.001,0.007,0.002,0.012c0.164,0.803-0.384,2.518-0.876,3.899c-0.262,0.737-0.545,1.481-0.823,2.261 c-0.139,0.391-0.278,0.781-0.401,1.211c-0.062,0.215-0.127,0.422-0.169,0.691c0.002,0.159-0.079,0.306-0.059,0.564 c-0.555-0.412-1.187-0.436-1.745-0.293c-1.214,0.445-1.774,1.156-2.382,1.729c-0.539,0.543-1.061,1.117-1.461,1.389 c-0.063-0.129-0.128-0.279-0.187-0.412c-0.472-1.117-0.893-2.165-1.658-2.816c-0.751-0.745-2.046-0.502-2.532-0.207 c-0.616,0.293-1.063,0.646-1.481,0.985c-0.721,0.589-1.46,1.366-1.883,1.712c-0.104-0.099-0.246-0.244-0.285-0.416 c-0.212-0.375-0.424-0.814-0.757-1.218c-0.314-0.405-0.868-0.756-1.423-0.713c-0.545,0.028-0.999,0.281-1.44,0.54 c0.999-0.357,1.991-0.211,2.261,0.582c0.176,0.357,0.279,0.771,0.425,1.218c0.07,0.221,0.161,0.464,0.313,0.726 c0.194,0.201,0.387,0.729,1.225,0.549c1.208-0.568,1.678-1.152,2.537-1.713c0.727-0.568,1.828-1.072,1.933-0.729 c0.285,0.206,0.719,1.022,1.179,2.18c0.141,0.305,0.228,0.588,0.531,1.037c0.08,0.279,0.948,0.697,1.243,0.542 c0.357-0.052,0.646-0.193,0.839-0.322c0.818-0.538,1.277-1.131,1.856-1.694c0.534-0.554,1.175-1.135,1.627-1.279 c0.155-0.104,0.169,0.07,0.266,0.013c-0.061,0.172,0.099,0.452,0.025,0.792c-0.013,0.42-0.053,0.877-0.064,1.376 c0.072,0.508-0.216,1.011,0.575,1.991c0.559,0.504,1.376,0.275,1.627,0.103c0.302-0.172,0.517-0.351,0.719-0.523 c0.385-0.345,0.71-0.686,1.032-1.019c1.226-1.279,2.564-2.699,3.504-2.334c0.727-0.16,0.318,1.58-0.101,2.734 c-0.095,0.342-0.205,0.586-0.265,1.076c0.012,0.104-0.189,0.965,0.873,1.286c0.633,0.017,0.858-0.223,1.021-0.332 c0.583-0.508,0.766-0.85,1.029-1.165c0.452-0.606,0.688-0.93,0.69-0.932c0.023,0.1,0.905-1.582,2.675-2.768 c0.392-0.25,0.914-0.291,1.384-0.204c0.345,0.065,0.408,0.2,0.395,0.957c-0.05,0.678-0.289,1.466-0.533,2.338 c-0.063,0.214-0.12,0.456-0.174,0.716c-0.027,0.128-0.041,0.324-0.055,0.484c0.089,0.28-0.122,0.532,0.493,1.019 c1.184,0.479,1.48-0.257,1.68-0.361c0.232-0.241,0.356-0.445,0.51-0.661c1.023-1.607,1.834-3.302,3.027-4.231 c0.5-0.441,1.233-0.544,1.789-0.462c0.392,0.088,0.577,0.431,0.644,1.172c0.055,0.687-0.028,1.424-0.075,2.186 c0.123,0.454-0.365,0.659,0.527,1.765c0.325,0.268,0.686,0.206,1.015,0.14c0.163-0.071,0.3-0.154,0.439-0.245 c0.181-0.148,0.347-0.298,0.46-0.428c0.914-1.043,1.416-1.818,1.841-2.337c1.517-1.923,2.592-3.171,4.271-3.621 c0.78-0.278,1.639-0.486,2.2-0.166c0.596,0.354,0.614,1.48,0.472,2.46c0.342-0.911,0.826-1.999,0.015-3.003 c-0.935-0.841-2.088-0.652-3.003-0.514c-2.027,0.184-3.866,1.869-5.313,3.783c-0.293,0.359-0.684,0.908-1.14,1.484 c0.036-0.498,0.063-1.048,0.019-1.65c0.015-0.545-0.23-1.438-0.821-2.06c0.035,0.022,0.07,0.046,0.113,0.068 c0.474,0.188,0.389,0.067,0.583,0.088c0.294-0.03,0.506-0.128,0.584-0.188c0.269-0.148,0.435-0.293,0.585-0.428 c0.603-0.551,1.041-1.077,1.479-1.594c0.86-1.031,1.615-1.994,2.324-2.855c1.409-1.724,2.604-3.031,3.452-3.816 c1.583-1.456,3.142-2.676,4.64-3.394c0.799-0.386,1.367-0.304,1.287-0.209c0.12,0.378-0.175,1.278-0.48,1.952 c-1.001,2.114-2.627,3.854-4.075,5.942c-1.393,1.423,0.348,2.468,2.014,0.948c3.534-2.601,4.743-3.845,9.785-6.236 c0.802-0.35,2.017-0.865,3.55-1.362c0.766-0.243,1.616-0.478,2.507-0.623c0.846-0.147,1.949-0.127,2.104,0.215 C171.774,55.924,171.451,56.984,170.809,57.836z M113.197,70.121c-0.004-0.006-0.009-0.016-0.015-0.021 C113.213,70.116,113.222,70.128,113.197,70.121z M112.868,69.949c-0.028,0.011-0.041,0.013-0.031,0.016 C112.823,69.943,112.838,69.941,112.868,69.949z"/><ellipse cx="41.394" cy="73.197" fill="#602976" rx="2.176" ry="2.429"/><path fill="#D9C9DE" d="M41.074,73.892c-0.575-0.496-0.716-1.334-0.333-1.903c-0.107,0.071-0.464,0.443-0.523,0.521 c-0.43,0.568-0.297,1.445,0.297,1.958c0.592,0.512,1.422,0.465,1.852-0.104c0.01-0.014,0.018-0.027,0.027-0.041 c0.075-0.058,0.146-0.129,0.208-0.21c0.013-0.017,0.023-0.035,0.034-0.054C42.185,74.355,41.553,74.307,41.074,73.892z"/><path fill="#602976" d="M19.702,72.093c0,1.343-0.975,2.431-2.178,2.431c-1.201,0-2.176-1.088-2.176-2.431 c0-1.339,0.975-2.427,2.176-2.427C18.728,69.666,19.702,70.754,19.702,72.093z"/><path fill="#D9C9DE" d="M17.284,72.654c-0.576-0.497-0.717-1.336-0.334-1.904c-0.107,0.072-0.464,0.443-0.523,0.521 c-0.43,0.568-0.297,1.444,0.296,1.957c0.593,0.512,1.423,0.467,1.853-0.103c0.01-0.013,0.018-0.026,0.025-0.04 c0.077-0.061,0.148-0.13,0.209-0.211c0.014-0.019,0.024-0.035,0.035-0.053C18.394,73.116,17.761,73.067,17.284,72.654z"/><ellipse cx="50.125" cy="59.054" fill="#FFF" rx=".59" ry=".704"/><path fill="#602976" d="M19.855,90.027c0,0,5.516,3.146,11.439,3.187c13.155,0.091,10.238-8.016,10.238-8.016 s0.116,6.62-10,6.25c-10.542-0.386-14.538-7.141-14.538-7.141L19.855,90.027z"/></g></g><g><path fill="#602976" d="M55.42,10.832l46.099,26.599v53.201l-46.099,26.6L9.319,90.631v-53.2L55.42,10.832z M110.92,32.032 l-55.5-32l-55.401,32v63.999l55.401,32l55.5-31.999V32.032z"/><g><g opacity=".13"><g><path d="M99.119,89.231l-43.7,25.2l-43.6-25.201v-50.4l43.6-25.2l43.7,25.2V89.231z M101.42,90.631V37.43l-46-26.6l-46,26.6 v53.101l46,26.6L101.42,90.631z"/></g></g></g></g></g></switch></svg>