<svg xmlns="http://www.w3.org/2000/svg" xmlns:xlink="http://www.w3.org/1999/xlink" id="Layer_1" width="730.667" height="844.667" x="0" y="0" enable-background="new 55.445 173.108 730.667 844.667" version="1.1" viewBox="55.445 173.108 730.667 844.667" xml:space="preserve"><g><linearGradient id="SVGID_1_" x1="46.9" x2="46.9" y1="1179.657" y2="1201.42" gradientTransform="matrix(-2.875013e-007 -6.5773 -6.5773 2.875013e-007 8087.4463 904.0817)" gradientUnits="userSpaceOnUse"><stop offset="0" style="stop-color:#65aae1"/><stop offset="1" style="stop-color:#1c75bc"/></linearGradient><polygon fill="url(#SVGID_1_)" points="117.733 420.649 117.733 770.559 420.945 945.514 724.156 770.559 724.156 420.649 420.945 245.694"/></g><linearGradient id="SVGID_2_" x1="420.944" x2="420.944" y1="756.793" y2="881.449" gradientUnits="userSpaceOnUse"><stop offset="0" style="stop-color:#2b3990"/><stop offset="1" style="stop-color:#1c75bc"/></linearGradient><polygon fill="url(#SVGID_2_)" points="785.655 491.575 785.655 669.085 667.385 874.065 551.935 940.745 290.375 940.745 174.405 873.875 56.235 669.085 56.235 491.575 101.974 412.265 739.914 412.265"/><path fill="#8FCAF7" d="M247.963,674.531l-57.88,34.202c0,0,74.322,61.168,103.92,71.034s72.351-1.973,116.418,4.604	s113.129,28.282,113.129,28.282s42.752-24.994,60.511-37.49c17.759-12.497,44.726-48.015,59.195-96.687s54.592-64.457,54.592-64.457	s-80.9-7.893-107.21-7.893c-26.309,0-255.198-16.443-279.533-3.289C286.769,615.994,247.963,674.531,247.963,674.531z"/><linearGradient id="SVGID_3_" x1="10.731" x2="39.722" y1="1154.466" y2="1134.575" gradientTransform="matrix(6.5773 0 0 -6.5773 112.4658 8262.1094)" gradientUnits="userSpaceOnUse"><stop offset="0" style="stop-color:#fff"/><stop offset="1" style="stop-color:#1c75bc"/></linearGradient><path fill="url(#SVGID_3_)" d="M189.425,708.075v26.967c50.646,35.518,56.564,67.746,56.564,67.746s64.457,1.974,90.108,3.946	c25.651,2.631,97.344,16.443,117.075,18.416c19.731,2.631,60.511,16.443,60.511,16.443l9.208-30.255	c0,0-119.048-35.518-138.78-32.229c-48.672,10.523-88.135-19.074-102.604-26.967C267.036,744.25,189.425,708.075,189.425,708.075z"/><linearGradient id="SVGID_4_" x1="19.721" x2="31.253" y1="1155.382" y2="1147.47" gradientTransform="matrix(6.5773 0 0 -6.5773 112.4658 8262.1094)" gradientUnits="userSpaceOnUse"><stop offset="0" style="stop-color:#fff"/><stop offset="1" style="stop-color:#1c75bc"/></linearGradient><path fill="url(#SVGID_4_)" d="M246.648,677.162l17.101,3.946c0,0,21.047,29.598,23.021,32.887	c1.973,3.288,86.819,18.416,86.819,18.416s-88.135-40.778-88.793-44.726c-1.973-3.946-8.55-17.758-8.55-17.758l-17.759-9.866	l-10.523,14.47"/><g><path fill="#73B7E5" d="M421.275,174.335l-365.04,210.47v420.94l118.17,68.13l115.97,66.87l130.9,75.471l130.66-75.471 l115.45-66.68l118.27-68.32v-420.94L421.275,174.335z M428.975,940.745l-7.7,4.44l-7.7-4.44l-295.51-170.51v-349.92l13.95-8.05 l289.26-166.9l289.26,166.9l13.95,8.05v349.92L428.975,940.745z"/><g><g opacity=".13"><g><path d="M708.765,412.265l-287.49-166.24l-288.59,166.24l-13.97,8.05v349.92l294.88,170.51l7.68,4.44l7.68-4.44l294.87-170.51 v-349.26L708.765,412.265z M708.044,761.025l-286.77,165.74l-287.43-165.74v-331.5l29.93-17.26l257.5-148.48l256.91,148.48 l29.859,17.26V761.025z"/></g></g></g></g><linearGradient id="SVGID_5_" x1="50.886" x2="83.273" y1="1129.049" y2="1156.919" gradientTransform="matrix(6.5773 0 0 -6.5773 112.4658 8262.1094)" gradientUnits="userSpaceOnUse"><stop offset="0" style="stop-color:#fff"/><stop offset="1" style="stop-color:#1c75bc"/></linearGradient><path fill="url(#SVGID_5_)" d="M513.684,842.252l9.208-30.256c0,0,62.484-32.886,82.874-66.431	c15.128-24.993,18.416-68.403,26.967-86.819c5.919-12.497-65.115-18.416-65.115-18.416c3.289-1.974,73.008,3.946,76.296,1.973	c24.994-14.47,53.276-28.282,53.276-28.282l-0.658,22.363c0,0-23.678,53.275-36.175,78.927s-32.886,50.645-67.745,87.478	C571.564,823.835,513.684,842.252,513.684,842.252z"/><linearGradient id="SVGID_6_" x1="2.601" x2="27.054" y1="1172.711" y2="1172.711" gradientTransform="matrix(6.5773 0 0 -6.5773 112.4658 8262.1094)" gradientUnits="userSpaceOnUse"><stop offset="0" style="stop-color:#fff"/><stop offset="1" style="stop-color:#27aae1"/></linearGradient><path fill="url(#SVGID_6_)" d="M129.573,550.22c0,0,44.725-0.657,56.564-1.973c11.839-1.315,42.094-3.289,42.094-3.289	s19.074,3.289,31.571,4.604s30.255,1.315,30.255,1.315s-16.442,3.289-32.886,1.315c-15.785-1.974-27.625-3.289-27.625-3.289	s-30.913,2.632-44.067,3.289C172.982,552.194,129.573,550.22,129.573,550.22z"/><linearGradient id="SVGID_7_" x1="7.101" x2="35.361" y1="1177.093" y2="1177.093" gradientTransform="matrix(6.5773 0 0 -6.5773 112.4658 8262.1094)" gradientUnits="userSpaceOnUse"><stop offset="0" style="stop-color:#fff"/><stop offset="1" style="stop-color:#27aae1"/></linearGradient><path fill="url(#SVGID_7_)" d="M159.17,521.938c0,0,40.778-0.657,56.564-1.315c15.785-0.657,47.355-3.288,47.355-3.288	s25.651,1.973,42.095,2.631c16.443,0.657,40.121,0.657,40.121,0.657s-21.705,1.974-43.409,0.658	c-21.048-1.315-36.833-1.974-36.833-1.974s-32.887,2.631-49.987,3.289C197.976,523.254,159.17,521.938,159.17,521.938z"/><linearGradient id="SVGID_8_" x1="21.401" x2="37.298" y1="1181.896" y2="1181.896" gradientTransform="matrix(6.5773 0 0 -6.5773 112.4658 8262.1094)" gradientUnits="userSpaceOnUse"><stop offset="0" style="stop-color:#fff"/><stop offset="1" style="stop-color:#27aae1"/></linearGradient><path fill="url(#SVGID_8_)" d="M253.225,489.71c0,0,23.021,0,31.57-0.657c9.208,0,26.31-1.974,26.31-1.974s14.47,0.658,23.678,1.315	c9.208,0.658,22.362,0,22.362,0s-12.496,0.658-24.336,0c-11.839-0.657-20.389-1.315-20.389-1.315s-18.417,1.315-28.282,1.974	C274.93,490.368,253.225,489.71,253.225,489.71z"/><linearGradient id="SVGID_9_" x1="4.377" x2="20.919" y1="1179.396" y2="1179.396" gradientTransform="matrix(6.5773 0 0 -6.5773 112.4658 8262.1094)" gradientUnits="userSpaceOnUse"><stop offset="0" style="stop-color:#fff"/><stop offset="1" style="stop-color:#27aae1"/></linearGradient><path fill="url(#SVGID_9_)" d="M141.411,506.153c0,0,23.678,0,32.886-0.657c9.208,0,27.625-1.974,27.625-1.974	s15.128,0.658,24.336,1.315c9.865,0.658,23.678,0,23.678,0s-13.154,0.658-25.651,0c-12.497-0.657-21.705-1.315-21.705-1.315	s-19.074,1.315-28.939,1.974C163.774,506.811,141.411,506.153,141.411,506.153z"/><linearGradient id="SVGID_10_" x1="76.635" x2="86.062" y1="1181.595" y2="1181.595" gradientTransform="matrix(6.5773 0 0 -6.5773 112.4658 8262.1094)" gradientUnits="userSpaceOnUse"><stop offset="0" style="stop-color:#fff"/><stop offset="1" style="stop-color:#27aae1"/></linearGradient><path fill="url(#SVGID_10_)" d="M616.289,491.683c0,0,13.813,0,19.074-0.658c5.262,0,15.785-1.973,15.785-1.973	s8.551,0.657,13.813,1.315c5.262,0.657,13.154,0,13.154,0s-7.235,0.657-14.47,0c-7.235-0.658-12.497-1.315-12.497-1.315	s-11.182,1.315-16.443,1.973C629.444,492.341,616.289,491.683,616.289,491.683z"/><linearGradient id="SVGID_11_" x1="65.175" x2="85.049" y1="1168.308" y2="1168.308" gradientTransform="matrix(6.5773 0 0 -6.5773 112.4658 8262.1094)" gradientUnits="userSpaceOnUse"><stop offset="0" style="stop-color:#fff"/><stop offset="1" style="stop-color:#27aae1"/></linearGradient><path fill="url(#SVGID_11_)" d="M541.309,579.818c0,0,28.282-0.657,40.121-1.315c11.182-0.657,33.544-3.288,33.544-3.288	s17.759,1.973,29.598,2.631c11.839,0.657,28.282,0.657,28.282,0.657s-15.785,1.974-30.256,0.658	c-15.127-1.315-25.65-1.974-25.65-1.974s-23.021,2.631-34.86,3.289C568.276,580.476,541.309,579.818,541.309,579.818z"/><linearGradient id="SVGID_12_" x1="69.82" x2="83.484" y1="1173.008" y2="1173.008" gradientTransform="matrix(6.5773 0 0 -6.5773 112.4658 8262.1094)" gradientUnits="userSpaceOnUse"><stop offset="0" style="stop-color:#fff"/><stop offset="1" style="stop-color:#27aae1"/></linearGradient><path fill="url(#SVGID_12_)" d="M571.564,547.59c0,0,19.732-0.657,27.625-0.657c7.893-0.658,23.021-1.974,23.021-1.974	s12.496,1.315,20.389,1.974c7.894,0.657,19.074,0.657,19.074,0.657s-10.523,1.315-21.047,0.658	c-10.523-0.658-17.759-1.315-17.759-1.315s-15.785,1.973-24.336,1.973C590.638,548.248,571.564,547.59,571.564,547.59z"/><linearGradient id="SVGID_13_" x1="57.435" x2="88.135" y1="1176.608" y2="1176.608" gradientTransform="matrix(6.5773 0 0 -6.5773 112.4658 8262.1094)" gradientUnits="userSpaceOnUse"><stop offset="0" style="stop-color:#fff"/><stop offset="1" style="stop-color:#27aae1"/></linearGradient><path fill="url(#SVGID_13_)" d="M490.006,523.912c0,0,44.067-0.658,61.826-0.658c17.101-0.657,51.303-1.973,51.303-1.973	s27.624,1.315,45.383,1.973c18.416,0.658,43.41,0.658,43.41,0.658s-23.679,1.315-47.356,0.657	c-23.021-0.657-40.121-1.315-40.121-1.315s-35.518,1.974-53.934,1.974C532.1,524.57,490.006,523.912,490.006,523.912z"/><linearGradient id="SVGID_14_" x1="-.999" x2="26.81" y1="1165.347" y2="1165.347" gradientTransform="matrix(6.5773 0 0 -6.5773 112.4658 8262.1094)" gradientUnits="userSpaceOnUse"><stop offset="0" style="stop-color:#fff"/><stop offset="1" style="stop-color:#27aae1"/></linearGradient><path fill="url(#SVGID_14_)" d="M105.894,601.523c0,0,40.121-1.315,55.907-2.631c15.785-1.315,46.698-7.234,46.698-7.234	s24.993,3.946,41.437,5.919c16.443,1.974,39.464,1.315,39.464,1.315s-21.705,3.946-42.752,1.315	c-21.048-2.631-36.176-4.604-36.176-4.604s-32.229,6.577-49.329,7.234C144.042,603.497,105.894,601.523,105.894,601.523z"/><linearGradient id="SVGID_15_" x1="20.382" x2="59.271" y1="1124.614" y2="1124.614" gradientTransform="matrix(6.5713 0.2855 0.2855 -6.5713 -195.5984 8240.1133)" gradientUnits="userSpaceOnUse"><stop offset="0" style="stop-color:#fff"/><stop offset="1" style="stop-color:#27aae1"/></linearGradient><path fill="url(#SVGID_15_)" d="M514.999,873.822c0,0-62.483-6.577-80.9-9.208c-30.913-3.946-50.645-10.523-50.645-10.523	s-17.759,6.577-48.015,7.893c-17.758,0.657-76.296-1.315-76.296-1.315s55.907,4.604,74.98,5.262c19.074,0,49.33-1.973,49.33-1.973	s25.651,3.946,45.383,4.604L514.999,873.822z"/><linearGradient id="SVGID_16_" x1="15.601" x2="66.826" y1="1130.607" y2="1130.607" gradientTransform="matrix(6.5773 0 0 -6.5773 112.4658 8262.1094)" gradientUnits="userSpaceOnUse"><stop offset="0" style="stop-color:#fff"/><stop offset="1" style="stop-color:#27aae1"/></linearGradient><path fill="url(#SVGID_16_)" d="M215.076,803.445c0,0,16.443-1.973,42.095-0.657c59.853,3.288,74.322-2.631,74.322-2.631	s14.471,7.893,72.351,16.443c98.658,13.812,115.102,26.309,148.646,34.859c0,0-102.604-24.336-136.807-26.967	S326.89,810.68,326.89,810.68s-36.175-2.631-63.8-3.946C229.546,804.103,215.076,803.445,215.076,803.445z"/><linearGradient id="SVGID_17_" x1="77.773" x2="103.04" y1="1159.731" y2="1163.027" gradientTransform="matrix(6.5773 0 0 -6.5773 112.4658 8262.1094)" gradientUnits="userSpaceOnUse"><stop offset="0" style="stop-color:#fff"/><stop offset="1" style="stop-color:#1c75bc"/></linearGradient><path fill="url(#SVGID_17_)" d="M697.19,614.02c0,0-49.329,28.94-53.275,28.282c-3.289,0-67.746-4.604-67.746-4.604	s59.195,0,69.061-2.632C653.78,632.436,697.19,614.02,697.19,614.02z"/><linearGradient id="SVGID_18_" x1="71.35" x2="90.743" y1="1145.254" y2="1147.783" gradientTransform="matrix(6.5773 0 0 -6.5773 112.4658 8262.1094)" gradientUnits="userSpaceOnUse"><stop offset="0" style="stop-color:#fff"/><stop offset="1" style="stop-color:#1c75bc"/></linearGradient><path fill="url(#SVGID_18_)" d="M553.148,794.895c0,0,49.329-30.256,59.195-69.062c9.866-38.148,18.416-64.457,18.416-64.457	S613,684.397,607.739,713.995C605.766,730.438,589.323,759.378,553.148,794.895z"/><linearGradient id="SVGID_19_" x1="45.901" x2="45.901" y1="1129.759" y2="1147.306" gradientTransform="matrix(6.5773 0 0 -6.5773 112.4658 8262.1094)" gradientUnits="userSpaceOnUse"><stop offset="0" style="stop-color:#fff"/><stop offset="1" style="stop-color:#1c75bc"/></linearGradient><path fill="url(#SVGID_19_)" d="M276.245,734.385c0,0,2.631,8.55,11.839,11.839c9.208,3.288,65.114,25.651,73.665,25.651	c17.101,0,20.39-21.047,48.014-6.577c12.497,6.577,30.256-6.577,41.437-3.289c11.182,3.289,26.967,5.262,38.807,3.289	c24.336-3.289,32.229-17.759,35.517-20.39c3.289-2.631,26.967-26.967,26.967-26.967s-85.504-3.289-97.343-3.289	C443.307,713.995,289.4,728.465,276.245,734.385z"/><g><linearGradient id="SVGID_20_" x1="24.501" x2="24.501" y1="1197.371" y2="1182.278" gradientTransform="matrix(6.5773 0 0 -6.5773 112.4658 8262.1094)" gradientUnits="userSpaceOnUse"><stop offset="0" style="stop-color:#fff"/><stop offset="1" style="stop-color:#27aae1"/></linearGradient><path fill="url(#SVGID_20_)" d="M192.056,479.186c0,0,11.182-34.201,14.47-36.175c3.289-1.973,13.813-4.604,17.759-9.866 c3.289-5.262,17.102-26.309,17.102-26.309c3.946-1.315,11.839-1.974,11.839-1.974s11.839-18.416,18.416-31.57 c1.315-2.631,15.785,13.812,21.047,23.021c5.263,8.55,17.102,26.967,19.732,31.57c2.631,4.604,11.839-5.262,14.47-6.577 s14.47,24.994,14.47,24.994s11.839,26.309,13.813,31.57c0,0-59.195,0.658-90.767,2.631 C222.312,482.475,192.056,479.186,192.056,479.186z"/><linearGradient id="SVGID_21_" x1="32.32" x2="31.394" y1="1183.282" y2="1191.369" gradientTransform="matrix(6.5773 0 0 -6.5773 112.4658 8262.1094)" gradientUnits="userSpaceOnUse"><stop offset="0" style="stop-color:#1c75bc"/><stop offset="1" style="stop-color:#8ed3ef"/></linearGradient><path fill="url(#SVGID_21_)" d="M318.997,425.911l5.919,32.229l6.577,19.074l-8.55,0.657l-1.974-21.047 c0,0-9.208-30.256-8.55-29.598C313.736,429.857,318.997,425.911,318.997,425.911z"/><linearGradient id="SVGID_22_" x1="13.129" x2="12.622" y1="1183.019" y2="1187.448" gradientTransform="matrix(6.5773 0 0 -6.5773 112.4658 8262.1094)" gradientUnits="userSpaceOnUse"><stop offset="0" style="stop-color:#1c75bc"/><stop offset="1" style="stop-color:#8ed3ef"/></linearGradient><polygon fill="url(#SVGID_22_)" points="204.553 479.844 201.922 450.904 192.056 479.186"/><linearGradient id="SVGID_23_" x1="21.623" x2="20.551" y1="1182.665" y2="1192.026" gradientTransform="matrix(6.5773 0 0 -6.5773 112.4658 8262.1094)" gradientUnits="userSpaceOnUse"><stop offset="0" style="stop-color:#1c75bc"/><stop offset="1" style="stop-color:#8ed3ef"/></linearGradient><path fill="url(#SVGID_23_)" d="M236.781,480.502c0,0,2.631-26.967,1.973-35.517l7.894-9.209 c-1.974,19.732,8.55,41.438,8.55,41.438l5.262-56.564c0,0,5.262,23.678,7.235,25.651c1.974,1.973-1.315,25.651-1.315,25.651 l1.315,8.55H236.781z"/><linearGradient id="SVGID_24_" x1="26.386" x2="26.386" y1="1185.207" y2="1199.297" gradientTransform="matrix(6.5773 0 0 -6.5773 112.4658 8262.1094)" gradientUnits="userSpaceOnUse"><stop offset="0" style="stop-color:#1c75bc"/><stop offset="1" style="stop-color:#8ed3ef"/></linearGradient><path fill="url(#SVGID_24_)" d="M275.587,385.132c0,0,3.289,6.577,1.974,17.101c-0.658,5.262-5.262,12.497-3.946,14.471 c1.315,1.973,7.234,10.523,7.893,12.496c0.657,1.974,4.604,21.705,5.262,23.679c0.657,3.288,5.262,25.651,5.262,25.651l5.262-0.658 c0,0,0.658-30.255,1.315-32.229c0.658-1.973-7.235-17.101-8.551-19.731s-7.893-5.92-9.208-7.893 c-1.315-1.974,11.182-10.524,10.523-12.497C289.4,400.917,275.587,385.132,275.587,385.132z"/><linearGradient id="SVGID_25_" x1="17.493" x2="14.371" y1="1193.07" y2="1185.844" gradientTransform="matrix(6.5773 0 0 -6.5773 112.4658 8262.1094)" gradientUnits="userSpaceOnUse"><stop offset="0" style="stop-color:#fff"/><stop offset="1" style="stop-color:#27aae1"/></linearGradient><path fill="url(#SVGID_25_)" d="M208.499,441.696c0,0,0,8.551-0.658,10.523c-1.315,23.021,4.604,0.658,4.604,0.658l7.893-3.946 l13.154-30.913c-9.208,12.496-13.812,19.073-13.812,19.073L208.499,441.696z"/><linearGradient id="SVGID_26_" x1="23.064" x2="24.124" y1="1194.925" y2="1182.264" gradientTransform="matrix(6.5773 0 0 -6.5773 112.4658 8262.1094)" gradientUnits="userSpaceOnUse"><stop offset="0" style="stop-color:#fff"/><stop offset="1" style="stop-color:#27aae1"/></linearGradient><path fill="url(#SVGID_26_)" d="M263.748,401.575l-3.946,19.074c0,0,4.604,23.678,6.577,25.651 c1.974,1.973,1.315,9.208,1.315,9.865c0,0.658-1.315,14.471-1.315,14.471l5.92-22.363c0,0,1.315-7.893,0.657-9.208 c-0.657-1.315-8.551-18.416-9.208-21.047C263.09,415.386,263.748,401.575,263.748,401.575z"/><linearGradient id="SVGID_27_" x1="18.649" x2="19.599" y1="1192.678" y2="1181.336" gradientTransform="matrix(6.5773 0 0 -6.5773 112.4658 8262.1094)" gradientUnits="userSpaceOnUse"><stop offset="0" style="stop-color:#fff"/><stop offset="1" style="stop-color:#27aae1"/></linearGradient><path fill="url(#SVGID_27_)" d="M240.071,416.045l-3.289,9.208l-1.974,10.523c0,0-5.919,10.524-5.919,11.84 s7.893,30.913,7.893,30.913l1.315-34.202c0,0,7.893-7.893,7.235-9.208c-0.658-1.315-4.604-8.551-4.604-11.182 S240.071,416.045,240.071,416.045z"/><linearGradient id="SVGID_28_" x1="30.169" x2="31.009" y1="1193.076" y2="1183.033" gradientTransform="matrix(6.5773 0 0 -6.5773 112.4658 8262.1094)" gradientUnits="userSpaceOnUse"><stop offset="0" style="stop-color:#fff"/><stop offset="1" style="stop-color:#27aae1"/></linearGradient><path fill="url(#SVGID_28_)" d="M303.869,414.072l5.92,17.101l2.631,34.201c0,0,1.973-23.021,1.973-21.704 c0,1.315,7.893,24.336,7.893,24.336l-7.234-29.598c0,0-1.315-8.551-3.946-13.155C309.131,422.622,303.869,414.072,303.869,414.072z"/><linearGradient id="SVGID_29_" x1="21.204" x2="20.425" y1="1194.199" y2="1183.83" gradientTransform="matrix(6.5773 0 0 -6.5773 112.4658 8262.1094)" gradientUnits="userSpaceOnUse"><stop offset="0" style="stop-color:#fff"/><stop offset="1" style="stop-color:#27aae1"/></linearGradient><polygon fill="url(#SVGID_29_)" points="254.54 402.232 251.909 420.649 249.936 404.863 252.567 404.206"/><linearGradient id="SVGID_30_" x1="8.601" x2="38.501" y1="1183.372" y2="1183.372" gradientTransform="matrix(6.5773 0 0 -6.5773 112.4658 8262.1094)" gradientUnits="userSpaceOnUse"><stop offset="0" style="stop-color:#fff"/><stop offset="1" style="stop-color:#27aae1"/></linearGradient><path fill="url(#SVGID_30_)" d="M169.035,479.186c0,0,48.015,0,65.115,0c17.759,0,51.96-1.973,51.96-1.973 s42.095-1.315,59.854-0.658c18.416,0.658,19.731,1.315,19.731,1.315s-9.208,0-34.859,0.658c-23.021,0-46.698,1.315-46.698,1.315 s-35.518,1.315-54.592,1.315C211.13,481.16,169.035,479.186,169.035,479.186z"/><linearGradient id="SVGID_31_" x1="16.664" x2="14.539" y1="1189.984" y2="1184.234" gradientTransform="matrix(6.5773 0 0 -6.5773 112.4658 8262.1094)" gradientUnits="userSpaceOnUse"><stop offset="0" style="stop-color:#fff"/><stop offset="1" style="stop-color:#27aae1"/></linearGradient><path fill="url(#SVGID_31_)" d="M212.446,452.219l-4.604,9.866l3.289,14.47l0.657-13.813c0,0,1.974-8.55,3.289-9.865 s7.235-7.893,7.235-7.893L212.446,452.219z"/><linearGradient id="SVGID_32_" x1="15.302" x2="14.239" y1="1189.763" y2="1186.826" gradientTransform="matrix(6.5773 0 0 -6.5773 112.4658 8262.1094)" gradientUnits="userSpaceOnUse"><stop offset="0" style="stop-color:#fff"/><stop offset="1" style="stop-color:#27aae1"/></linearGradient><path fill="url(#SVGID_32_)" d="M209.815,444.327c0.657-1.974,5.262-5.262,5.262-5.262l-6.577,2.631v12.497L209.815,444.327z"/></g><g><linearGradient id="SVGID_33_" x1="63.751" x2="63.907" y1="1158.333" y2="1153.574" gradientTransform="matrix(6.5773 0 0 -6.5773 112.4658 8262.1094)" gradientUnits="userSpaceOnUse"><stop offset="0" style="stop-color:#271ce1"/><stop offset="1" style="stop-color:#b7b3f5"/></linearGradient><path fill="url(#SVGID_33_)" d="M522.892,663.349c0,0,7.893-0.657,13.813-7.234c5.262-5.262,4.604-9.208,4.604-12.497 c0-3.946-18.417-6.577-15.128-0.657C526.181,642.961,524.207,660.719,522.892,663.349z"/><linearGradient id="SVGID_34_" x1="29.694" x2="28.716" y1="1159.487" y2="1155.632" gradientTransform="matrix(6.5773 0 0 -6.5773 112.4658 8262.1094)" gradientUnits="userSpaceOnUse"><stop offset="0" style="stop-color:#271ce1"/><stop offset="1" style="stop-color:#b7b3f5"/></linearGradient><path fill="url(#SVGID_34_)" d="M313.077,658.088c0,0-14.47-9.865-15.785-15.127c-1.315-3.946-1.315-9.209,2.631-10.524 c4.604-1.315,16.443,3.946,16.443,3.946s-5.92,5.263-5.262,11.84C311.762,654.8,313.077,658.088,313.077,658.088z"/><linearGradient id="SVGID_35_" x1="46.139" x2="46.139" y1="1187.189" y2="1172.737" gradientTransform="matrix(6.5773 0 0 -6.5773 112.4658 8262.1094)" gradientUnits="userSpaceOnUse"><stop offset="0" style="stop-color:#271c38"/><stop offset="1" style="stop-color:#271ce1"/></linearGradient><path fill="url(#SVGID_35_)" d="M346.621,475.24c13.813-32.229,119.049-57.88,139.438,23.679 c20.39,80.899-86.162,69.719-124.311,48.671C350.568,541.012,336.756,500.234,346.621,475.24z"/><path fill="#F5C021" d="M468.958,758.062c-13.812-8.551-15.127-17.101-8.55-42.752c3.946-17.101,2.631-19.074,2.631-48.014 c0-15.786,26.967-2.632,33.544-1.974c15.785,1.974,19.074-5.262,28.939-0.658c7.894,3.289,3.946,20.39,10.524,26.31 c5.919,5.92,17.758,8.551,19.073,19.074c1.315,13.154-22.362,17.101-33.544,24.993c-10.523,7.893-20.389,19.732-32.886,23.679 C476.194,763.324,468.958,758.062,468.958,758.062z"/><path d="M367.669,711.364c0,0,17.758,19.074,39.463,17.101c21.705-1.973,55.907-31.57,55.907-31.57s0,7.893-5.92,37.49 c-1.315,9.208,1.315,15.127,1.315,15.127s-25.651-9.208-50.645-7.893c-24.994,1.315-28.94,1.974-28.94,1.974 s0.658-3.946-0.657-9.866C377.534,727.807,367.669,711.364,367.669,711.364z"/><path d="M497.24,683.082c0,0-14.47,2.631-15.785-11.182c-0.657-8.551,1.315-10.523,1.315-10.523l-4.604-0.658 c0,0,5.263-36.175-1.314-52.617c-5.92-16.443-17.102-29.598-17.102-29.598s0-10.524-7.234-24.994 c-7.235-14.47-11.84-26.309-11.84-26.309s-32.229,11.181-39.463,12.496c-7.235,1.315-24.994-15.785-24.994-15.785 s1.974,13.154,0.658,18.416c-1.974,5.262-14.471,20.39-16.443,28.94c-1.974,9.208-1.315,14.47-1.315,14.47 s-12.497,18.416-16.443,33.544s-5.262,37.49-5.262,37.49s26.309,23.679,34.859,28.94c7.893,5.92,7.235,17.101,3.289,20.39 c-3.946,3.288-12.497,0-13.155-0.658c-11.839-15.785-22.362-44.726-37.49-50.645c-7.234-2.631-11.839,3.946-11.839,3.946 s-5.262-8.551-1.315-20.39c4.604-11.839,15.128-24.993,17.101-37.49c1.974-13.154,7.235-21.705,19.074-36.833 c11.839-15.127,17.759-17.759,18.417-24.993c0.657-6.577,0-60.511,0-69.719c0-16.443,10.523-46.041,47.355-46.041 c36.833,0,53.276,37.49,53.276,52.618c0,15.127-1.974,29.598,1.973,40.778c3.946,11.182,15.786,34.86,23.021,43.41 c7.235,8.551,23.679,24.336,30.913,57.223C530.784,646.907,527.496,676.505,497.24,683.082z"/><path fill="#FFF" d="M442.65,491.683c0,11.839-7.235,21.705-15.785,21.705c-8.551,0-15.786-9.866-15.786-21.705 s7.235-21.705,15.786-21.705C435.414,469.978,442.65,479.844,442.65,491.683z"/><path d="M434.757,494.314c0,5.92-3.946,11.182-8.551,11.182s-8.551-5.262-8.551-11.182s3.946-11.182,8.551-11.182 C431.468,483.133,434.757,488.394,434.757,494.314z"/><path fill="#FFF" d="M397.267,491.025c-6.578,10.524-5.263,19.732-12.497,20.39c-6.577,0.658-11.839-8.55-12.497-19.074 c-0.657-10.523,4.604-19.073,11.182-19.073C390.689,472.609,396.609,480.502,397.267,491.025z"/><path d="M390.689,492.999c0.658,5.262-1.315,9.866-5.262,10.523c-3.288,0.658-7.234-3.288-7.893-8.551 c-0.657-5.262,1.315-9.865,5.262-10.523C386.085,483.791,390.031,487.737,390.689,492.999z"/><path fill="#FFF" d="M431.468,491.683c0,1.973-1.315,3.288-1.973,3.288c-0.658,0-1.974-1.315-1.974-3.288 c0-1.974,1.315-3.289,1.974-3.289C430.153,488.394,431.468,489.71,431.468,491.683z"/><path fill="#FFF" d="M387.401,491.025c0,1.315-0.658,2.631-1.315,2.631c-0.658,0-1.974-0.657-1.974-2.631 c0-1.315,0.658-2.631,1.315-2.631C386.742,488.394,387.401,489.71,387.401,491.025z"/><path fill="#FFF" d="M378.193,527.858c0,0,1.315,10.523-1.974,17.101c-3.288,6.577-15.785,19.074-16.443,28.282 c-0.657,9.209-0.657,11.182-0.657,11.182s-19.731,28.282-20.39,45.383c-0.657,17.759-1.315,26.31-1.315,26.31 s22.362,19.731,30.913,26.309s13.154,16.443,7.235,23.021c-4.604,4.604-11.839,0.658-11.839,0.658s11.181,22.362,40.121,22.362 c28.939-0.657,59.853-31.57,59.853-31.57s0.658-9.209,0-17.102c0-8.55-0.657-15.785,1.974-17.759 c3.946-3.288,13.813-1.315,13.813-1.315s5.262-37.49-2.631-57.222c-8.551-20.39-15.786-25.651-15.786-25.651s0-11.182-7.893-25.651 s-11.182-25.651-11.182-25.651S380.165,524.57,378.193,527.858z"/><path fill="#F5C021" d="M375.562,751.485c-10.524,12.497-19.074,11.839-44.068,1.974c-16.442-6.578-26.309-5.263-51.96-13.813 c-15.128-5.262-4.604-19.074-2.631-25.651c4.604-15.128-3.288-27.625,2.631-36.833c4.604-7.234,18.417-0.657,24.994-5.919 c6.576-5.263,6.576-17.102,17.101-16.443c13.154,0.657,28.282,30.255,34.201,42.095c6.577,11.839,20.39,23.02,23.021,36.175 C381.481,745.565,375.562,751.485,375.562,751.485z"/><radialGradient id="SVGID_36_" cx="40.6" cy="1166.991" r="19.149" gradientTransform="matrix(6.5773 0 0 -6.5773 112.4658 8262.1094)" gradientUnits="userSpaceOnUse"><stop offset="0" style="stop-color:#b7b3f5"/><stop offset="1" style="stop-color:#271ce1"/></radialGradient><path fill="url(#SVGID_36_)" d="M514.342,585.738c-7.893-13.813-15.128-29.598-19.732-35.518 c-7.893-11.181-22.362-11.839-32.886-12.496c-24.994-1.315-46.699,40.778-58.538,41.437c-11.839,0.657-16.443-40.779-44.067-34.202 c-11.182,2.631-30.256,31.571-32.887,51.961c-2.631,17.101-28.281,29.598-29.598,40.779c0,0,14.47-3.947,30.913,1.973 c20.39,7.235,23.021,19.731,23.021,19.731s0.658,9.866,1.974,10.524c25.651,19.731,33.544,40.778,9.865,36.175 c24.336,30.255,31.571,46.04,49.33,47.356c22.362,1.314,38.806-28.283,50.645-56.564c0.658-34.202,7.235-37.491,15.785-36.176 c0,0,5.92-24.336,26.31-22.362c26.967,2.631,36.175,5.92,36.175,5.92C539.993,623.886,522.235,599.551,514.342,585.738z"/><path fill="#E6E6E6" d="M377.534,542.328c0,0,4.604,4.604,7.235,7.893c1.973,1.974,7.234,6.578,17.759,5.263 c14.47-1.974,18.416-9.209,25.651-12.497c7.234-3.289,15.785-7.235,15.785-7.235l-2.631-9.208c0,0-10.523,1.974-19.732,9.866 c-5.919,5.262-11.181,6.577-19.073,6.577c-10.524,0.657-13.155-2.631-15.786-6.577c-3.946-5.92-9.208-10.523-9.208-10.523 s1.315,7.893,0.658,11.839C377.534,542.328,377.534,542.328,377.534,542.328z"/><path fill="#F5C021" d="M402.529,542.986c-7.235,0-12.497,0-16.443-6.577c-4.604-6.577-5.262-8.551-7.893-9.866 s-4.604-3.289-4.604-3.289s-0.657-7.234,3.289-11.181s15.127-13.154,21.047-15.128s13.813-0.658,18.416,0.658 c4.604,1.315,11.182,6.577,17.759,9.208s3.289-0.658,6.577,2.631c3.289,3.288,1.315,16.443,1.315,16.443s-7.893,1.973-13.812,5.919 C420.945,535.751,415.025,542.986,402.529,542.986z"/><path fill="#8C5E0B" d="M372.931,523.254c0,0,5.262,0.658,7.234,1.974c1.974,1.315,3.946,6.577,17.102,5.262 c13.154-0.657,18.416-3.946,22.362-6.577s13.154-9.866,13.154-9.866h1.974c0,0-10.523,9.208-14.47,12.497 c-4.604,3.946-13.813,11.839-24.994,10.523c-11.182-0.657-13.154-8.55-15.128-9.865c-1.973-1.974-5.919-3.289-5.919-3.289 L372.931,523.254z"/><path fill="#8C5E0B" d="M411.737,500.891c0,0.658-1.315,0.658-1.974,0.658c-1.315,0-1.973-0.658-1.973-0.658 c0-0.657,1.315-0.657,1.973-0.657C410.421,500.234,411.737,500.891,411.737,500.891z"/><linearGradient id="SVGID_37_" x1="45.544" x2="52.876" y1="1177.266" y2="1206.208" gradientTransform="matrix(6.5773 0 0 -6.5773 112.4658 8262.1094)" gradientUnits="userSpaceOnUse"><stop offset="0" style="stop-color:#271ce1"/><stop offset="1" style="stop-color:#d0cdf8"/></linearGradient><path fill="url(#SVGID_37_)" d="M358.46,545.617c0,0-55.248-111.156,69.062-94.055c78.27,10.523,54.592,90.108,54.592,90.108 s36.175-36.833-23.679-117.733c-20.39-28.282-1.315-40.779-3.946-46.698c-1.973-4.604-23.021,5.919-53.934,28.282 C392.662,410.125,301.239,473.267,358.46,545.617z"/><linearGradient id="SVGID_38_" x1="47.344" x2="42.241" y1="1174.083" y2="1196.28" gradientTransform="matrix(6.5773 0 0 -6.5773 112.4658 8262.1094)" gradientUnits="userSpaceOnUse"><stop offset="0" style="stop-color:#271ce1"/><stop offset="1" style="stop-color:#fff"/></linearGradient><path fill="url(#SVGID_38_)" d="M358.46,544.302c0,0-49.987-100.632,47.356-97.344c74.323,2.631,78.27,51.961,78.27,51.961 s-9.208-47.356-83.531-46.699C321.628,452.878,358.46,544.302,358.46,544.302z"/><g><path fill="#CCC" d="M367.669,607.443c-1.315-19.731,13.812-24.993,13.812-24.993s-15.785-5.263-16.443-1.315 c-1.315,5.262-0.657,19.073-1.315,30.255c0,11.182-7.893,61.826-7.893,61.826C357.803,671.9,368.985,631.779,367.669,607.443z"/><path fill="#CCC" d="M470.932,615.994c-1.974-13.155-7.235-41.438-11.839-42.095c-10.524-1.974-30.913,7.234-30.913,7.234 s12.496-1.315,17.758,0.658c21.048,7.893,17.102,18.416,19.074,37.49c0.658,6.577,11.182,39.464,11.182,39.464 S472.905,625.859,470.932,615.994z"/></g><path fill="#CCC" d="M355.172,671.9c0,0,19.074,20.39,60.511,20.39c24.336,0,44.726-13.813,44.726-13.813 s-15.128,15.786-26.31,17.759c-12.497,2.631-17.101,3.946-34.859,0.658C370.3,691.632,355.172,671.9,355.172,671.9z"/><linearGradient id="SVGID_39_" x1="35.746" x2="34.903" y1="1157.519" y2="1154.191" gradientTransform="matrix(6.5773 0 0 -6.5773 112.4658 8262.1094)" gradientUnits="userSpaceOnUse"><stop offset="0" style="stop-color:#271ce1"/><stop offset="1" style="stop-color:#b7b3f5"/></linearGradient><path fill="url(#SVGID_39_)" d="M338.729,642.961c0,0,6.577,3.946,9.866,9.865c3.946,5.92,3.946,17.102,3.946,17.102 s-14.471-12.497-15.128-13.155C336.756,655.457,338.729,642.961,338.729,642.961z"/><linearGradient id="SVGID_40_" x1="66.713" x2="54.738" y1="1157.575" y2="1157.848" gradientTransform="matrix(6.5773 0 0 -6.5773 112.4658 8262.1094)" gradientUnits="userSpaceOnUse"><stop offset="0" style="stop-color:#4f46e7"/><stop offset="1" style="stop-color:#b7b3f5"/></linearGradient><path fill="url(#SVGID_40_)" d="M476.852,660.061c0,0,2.631-21.705,17.101-24.994c15.785-3.288,25.651-0.657,33.544,1.315 c10.523,2.632,13.154,8.551,13.154,8.551l-0.657,5.92c0,0-0.658-5.92-14.471-9.866c-7.893-1.973-15.785-3.946-28.939-1.315 c-11.839,2.631-18.417,21.047-18.417,21.047L476.852,660.061z"/><linearGradient id="SVGID_41_" x1="38.46" x2="27.281" y1="1156.806" y2="1157.062" gradientTransform="matrix(6.5773 0 0 -6.5773 112.4658 8262.1094)" gradientUnits="userSpaceOnUse"><stop offset="0" style="stop-color:#271ce1"/><stop offset="1" style="stop-color:#b7b3f5"/></linearGradient><path fill="url(#SVGID_41_)" d="M297.292,634.41c0,0,11.181-5.92,36.175,5.262c24.336,11.182,21.705,32.887,21.705,32.887 l-2.631-1.974c0,0,1.315-17.759-18.417-26.967c-23.02-11.182-37.489-3.946-37.489-3.946 C296.635,635.725,297.292,634.41,297.292,634.41z"/><path fill="#CCC" d="M382.139,713.337c0,0,14.47,30.256,33.544,28.94c19.074-1.974,34.859-32.229,34.859-32.229 s-13.813,24.336-35.518,22.362C393.321,730.438,382.139,713.337,382.139,713.337z"/><path fill="#CCC" d="M490.663,547.59c0,0,7.235,15.128,11.182,26.31c2.631,6.577,9.208,24.336,9.866,32.229 c0.657,9.208,7.234,24.336,11.839,24.993c11.181,1.974,16.443,7.894,15.785,5.92c-1.973-7.235-2.631-13.813-10.523-26.967 c-11.839-19.731-16.443-26.967-21.047-34.859C503.819,568.637,495.268,545.617,490.663,547.59z"/><path fill="#CCC" d="M302.554,629.148c0,0,20.39-17.101,23.678-28.282c4.604-24.336,9.208-28.94,9.208-28.94 s-6.577,28.94-6.577,35.518c0,3.289-5.262,13.154-9.865,17.101C314.393,628.49,302.554,629.148,302.554,629.148z"/><path fill="#CCC" d="M405.159,446.301c0,0,37.49,5.262,49.329,12.496c20.39,11.84,28.94,19.074,37.49,55.249 c0,0,3.289-24.993-8.55-44.067C464.355,439.065,405.159,446.301,405.159,446.301z"/><path fill="#CCC" d="M467.643,437.092c0,0-22.362-13.154-24.993-23.678s7.235-25.651,7.235-25.651s-4.604,9.208-0.658,21.047 C452.516,416.703,467.643,437.092,467.643,437.092z"/><path fill="#666" d="M482.771,661.377c0,0,0.658-4.604,5.262-7.235c4.604-2.631,26.967,1.974,26.967,1.974 s-20.39-1.974-25.651,0.657S482.771,661.377,482.771,661.377z"/><polygon fill="#F5C021" points="466.327 539.697 468.958 542.986 476.194 543.643 470.932 546.274 472.247 550.22 466.327 548.248 459.75 550.22 461.066 546.274 455.804 543.643 463.039 542.986"/><polygon fill="#F5C021" points="443.307 600.208 446.596 606.785 453.173 608.101 448.569 612.705 449.227 619.94 443.307 616.651 436.73 619.94 438.045 612.705 432.783 608.101 440.019 606.785"/><polygon fill="#F5C021" points="416.34 413.414 420.287 420.649 430.811 422.622 422.26 426.568 422.918 433.803 414.367 429.199 404.501 431.173 407.132 424.595 400.555 418.676 411.078 419.334"/><polygon fill="#F5C021" points="485.402 604.812 490.006 608.759 496.583 608.101 492.637 612.705 495.268 617.967 488.691 617.309 483.429 621.256 482.771 615.336 476.852 613.363 483.429 610.732"/><polygon fill="#F5C021" points="499.214 567.322 501.845 571.268 505.133 571.268 503.819 575.872 505.791 581.135 502.502 579.161 500.53 582.45 499.214 577.187 495.925 573.899 499.214 571.926"/><polygon fill="#F5C021" points="448.569 645.592 451.199 651.51 458.435 652.826 453.173 658.088 454.489 664.666 448.569 661.377 441.991 664.666 443.307 658.088 438.045 652.826 445.281 651.51"/><polygon fill="#F5C021" points="396.609 705.444 399.898 709.39 406.475 710.049 401.87 713.995 402.529 718.598 396.609 715.968 390.031 718.598 391.347 713.995 386.085 710.049 393.321 709.39"/><polygon fill="#F5C021" points="456.462 696.894 453.831 702.813 455.804 705.444 451.199 708.075 447.254 713.995 446.596 709.39 441.991 710.049 446.596 704.787 447.254 699.525 451.199 700.841"/><polygon fill="#F5C021" points="382.139 614.678 385.427 620.597 392.662 621.256 387.401 625.859 388.716 631.779 382.139 629.148 376.219 631.779 377.534 625.859 372.273 621.256 379.508 620.597"/><polygon fill="#F5C021" points="390.031 669.927 393.321 673.874 399.898 674.531 395.293 677.82 396.609 683.082 390.031 680.451 384.112 683.082 384.77 677.82 380.165 674.531 386.742 673.874"/><polygon fill="#F5C021" points="342.675 613.363 345.964 617.967 352.541 619.282 347.28 622.571 348.595 628.49 342.675 625.859 336.098 628.49 337.413 622.571 332.152 619.282 339.387 617.967"/><polygon fill="#F5C021" points="357.145 554.825 360.434 559.429 367.669 560.087 362.406 563.376 363.722 567.979 357.145 565.348 351.226 567.979 351.883 563.376 347.28 560.087 353.857 559.429"/></g><g><rect width="123" height="7.893" x="459.499" y="589.554" transform="matrix(-0.2157 0.9765 -0.9765 -0.2157 1212.9053 212.78)"/><rect width="124.309" height="1.973" x="456.105" y="592.931" fill="#666" transform="matrix(-0.2173 0.9761 -0.9761 -0.2173 1210.6042 217.102)"/><rect width="21.047" height="7.892" x="526.162" y="519.599" fill="#F5C021" transform="matrix(-0.215 0.9766 -0.9766 -0.215 1163.3801 111.982)"/><rect width="21.046" height="2.631" x="523.429" y="521.612" fill="#FFDE8A" transform="matrix(-0.2144 0.9768 -0.9768 -0.2144 1159.1891 113.4919)"/><polygon fill="#FFF" points="541.309 519.966 533.416 518.65 534.732 512.73 542.624 514.046"/><polygon fill="#F5C021" points="551.174 465.374 552.49 471.952 559.725 474.583 553.148 478.529 553.148 485.763 547.886 481.16 540.651 482.475 543.281 475.898 539.335 469.978 546.571 470.636"/><polygon fill="#F5C021" points="570.248 413.414 572.222 419.991 578.799 422.622 572.222 426.568 572.222 433.145 566.96 428.542 559.725 430.514 562.356 423.937 558.409 418.018 565.645 418.676"/><polygon fill="#F5C021" points="618.92 436.434 620.236 443.011 626.813 445.642 620.894 449.589 620.894 456.824 614.974 452.219 608.397 454.193 611.028 447.616 607.081 441.696 614.316 441.696"/><polygon fill="#F5C021" points="538.678 367.373 539.993 374.608 547.228 377.239 540.651 380.527 540.651 387.762 535.389 383.158 528.154 385.132 530.784 378.554 526.838 372.635 534.073 373.293"/><polygon fill="#F5C021" points="523.55 441.039 526.181 450.904 536.047 454.85 526.838 460.112 526.181 470.636 518.288 464.058 508.422 466.689 512.368 456.824 506.449 448.273 516.973 448.931"/><polygon fill="#FFF" points="522.235 448.273 523.55 453.535 528.812 455.509 524.207 458.139 524.207 464.058 519.604 460.112 514.342 461.427 516.315 456.824 513.684 452.219 518.946 452.219"/><polygon fill="#F5C021" points="590.638 348.957 593.269 359.48 602.477 362.768 593.927 368.688 593.269 378.554 585.376 371.977 575.51 374.608 579.456 365.399 573.537 356.191 584.061 357.507"/><polygon fill="#FFF" points="589.323 356.191 590.638 361.453 595.9 363.427 591.296 366.057 590.638 371.977 586.692 368.03 581.43 370.004 583.403 364.742 580.115 360.137 586.033 360.137"/><polygon fill="#F5C021" points="586.033 446.301 587.35 450.247 590.638 451.562 587.35 453.535 587.35 457.481 584.061 454.85 580.772 455.509 582.087 452.219 580.115 448.931 584.061 449.589"/><polygon fill="#F5C021" points="540.651 423.937 541.309 427.884 545.255 429.199 541.966 431.173 541.966 434.461 538.678 432.488 535.389 433.145 536.704 429.857 534.732 426.568 538.02 426.568"/><polygon fill="#F5C021" points="590.638 473.267 591.296 477.214 594.584 478.529 591.953 480.502 591.296 483.791 588.664 481.817 584.718 482.475 586.692 479.186 584.061 475.898 588.007 476.555"/><polygon fill="#F5C021" points="553.148 325.278 554.463 328.567 557.751 329.883 554.463 331.855 554.463 335.802 551.832 333.171 547.886 334.486 549.201 330.54 547.228 327.909 551.174 327.909"/><polygon fill="#F5C021" points="509.08 400.26 509.738 404.206 513.684 405.521 510.396 407.494 510.396 411.441 507.107 408.809 503.819 410.125 505.133 406.178 503.16 403.548 506.449 403.548"/><polygon fill="#F5C021" points="624.84 391.709 626.156 395.655 629.444 396.97 626.156 398.944 626.156 402.232 622.866 400.26 619.578 400.917 620.894 397.629 618.92 394.34 622.866 394.34"/><polygon fill="#F5C021" points="600.504 397.629 601.161 401.575 605.108 402.89 601.82 404.863 601.161 408.152 598.531 406.178 595.242 406.837 596.558 403.548 594.584 400.26 597.873 400.917"/></g></svg>