<svg xmlns="http://www.w3.org/2000/svg" xmlns:svg="http://www.w3.org/2000/svg" id="svg415" x="0" y="0" enable-background="new 0 0 110.979 128.417" version="1.1" viewBox="0 0 110.979 128.417" xml:space="preserve"><metadata id="metadata421"/><defs id="defs419"><clipPath id="clipPath1065" clipPathUnits="userSpaceOnUse"><rect style="opacity:1;fill:#f4eec1;fill-opacity:1;fill-rule:nonzero;stroke:#1c1c1c;stroke-width:7.42399979;stroke-miterlimit:4;stroke-dasharray:none;stroke-dashoffset:0;stroke-opacity:1" id="rect1067" width="254.746" height="225.254" x="-90.508" y="330.508"/></clipPath><clipPath id="clipPath1069" clipPathUnits="userSpaceOnUse"><rect id="rect1071" width="254.746" height="225.254" x="-90.508" y="330.508" style="opacity:1;fill:#f4eec1;fill-opacity:1;fill-rule:nonzero;stroke:#1c1c1c;stroke-width:7.42399979;stroke-miterlimit:4;stroke-dasharray:none;stroke-dashoffset:0;stroke-opacity:1"/></clipPath></defs><g id="g5" transform="translate(0.15372898,0.37381641)" style="fill:#9de9f2;fill-opacity:1;stroke:#32939b;stroke-opacity:1;stroke-width:1.8;stroke-miterlimit:4;stroke-dasharray:none"><polygon style="fill:#9de9f2;fill-opacity:1;stroke:#32939b;stroke-opacity:1;stroke-width:1.8;stroke-miterlimit:4;stroke-dasharray:none" id="polygon3" points="55.556 127.881 .417 96.047 .417 32.377 55.556 .542 110.696 32.377 110.696 96.046"/></g><g id="g9" transform="translate(0.15372898,0.37381641)" style="fill:#000;fill-opacity:.29523811"><polygon style="fill:#000;fill-opacity:.29523811" id="polygon7" points="55.422 116.822 10.109 90.66 10.109 38.337 55.422 12.175 100.736 38.337 100.736 90.66"/></g><g id="g13" transform="translate(0.15372898,0.37381641)" style="fill:#246f74;fill-opacity:1"><path style="fill:#246f74;fill-opacity:1" id="path11" d="M 55.555,10.618 9.073,37.416 V 91.01 L 55.555,117.805 102.04,91.01 V 37.416 Z M 100.158,89.93 55.555,115.646 10.951,89.93 V 38.506 L 55.555,12.79 100.158,38.506 Z"/></g><g id="g3202"><g id="g6" transform="matrix(0.11985098,0,0,0.11985098,26.796837,34.940485)"><path id="path2" d="m 144,104 c 0,-2.248 0.944,-4.392 2.6,-5.904 1.664,-1.512 3.912,-2.256 6.128,-2.064 l 87.272,7.936 87.272,-7.936 c 2.216,-0.2 4.464,0.544 6.128,2.064 1.656,1.512 2.6,3.656 2.6,5.904 v 52.688 l 8,8 8,-8 V 104 C 352,73.128 326.872,48 296,48 h -5.464 c -3.088,0 -5.896,-1.776 -7.224,-4.56 C 275.392,26.768 258.384,16 240,16 h -47.328 c 1.168,6.944 3.864,13.544 7.968,19.424 1.704,2.448 1.904,5.632 0.528,8.28 C 199.792,46.344 197.064,48 194.08,48 H 184 c -30.872,0 -56,25.128 -56,56 v 52.688 l 8,8 8,-8 z" style="fill:#abd4d8"/><path id="path4" d="m 352,223.6 c 9.12,-1.856 16,-9.944 16,-19.6 0,-9.656 -6.88,-17.744 -16,-19.6 z" style="fill:#abd4d8"/></g><path id="path8" d="m 58.999357,74.251606 8.067409,-8.067409 v -3.438285 -6.314708 l -1.636685,-1.636685 c -0.179297,-0.179297 -0.28093,-0.422834 -0.28093,-0.677877 v -5.66176 l -9.500827,0.863885 c -0.05849,0.0058 -0.116016,0.0058 -0.174503,0 l -9.500827,-0.863885 v 5.66176 c 0,0.255043 -0.100675,0.49858 -0.280931,0.677877 l -1.636685,1.636685 v 6.314708 3.438285 l 8.067409,8.067409 z M 56.51988,67.539952 h -1.917616 v -1.917616 h 1.917616 z m 3.157354,-10.827817 1.355755,-1.355755 2.876423,2.876424 c 0.374894,0.374894 0.374894,0.98086 0,1.355754 l -2.876423,2.876424 -1.355755,-1.355755 2.198547,-2.198546 z m -1.239738,8.910201 h 1.917615 v 1.917616 h -1.917615 z m -1.815982,-10.975473 1.715307,0.858133 -3.835231,7.670462 -1.715308,-0.858133 z m -9.408782,4.941695 c -0.374894,-0.374894 -0.374894,-0.98086 0,-1.355754 l 2.876424,-2.876424 1.355754,1.355755 -2.198546,2.198546 2.198546,2.198546 -1.355754,1.355755 z m 3.554301,6.033778 h 1.917616 v 1.917616 h -1.917616 z" style="fill:#f08843;stroke-width:.11985098"/><path style="fill:#abd4d8;stroke-width:.11985098" id="path10" d="m 40.220147,59.390085 c 0,1.157281 0.824575,2.126636 1.917615,2.349079 v -4.698158 c -1.09304,0.222443 -1.917615,1.191798 -1.917615,2.349079 z"/><path id="path20" d="m 51.725841,76.169222 c -0.255043,0 -0.49858,-0.100675 -0.677877,-0.280931 l -1.239739,-1.239738 v 2.944499 l 5.752847,4.10945 5.752847,-4.10945 v -2.944499 l -1.239738,1.239738 c -0.179297,0.180256 -0.422835,0.280931 -0.677877,0.280931 z" style="fill:#f08843;stroke-width:.11985098"/><rect style="fill:#203c51;stroke-width:.11985098" id="rect22" width="1.918" height="1.918" x="26.797" y="34.94"/><rect style="fill:#203c51;stroke-width:.11985098" id="rect24" width="1.918" height="1.918" x="30.632" y="34.94"/><rect style="fill:#203c51;stroke-width:.11985098" id="rect26" width="1.918" height="1.918" x="32.55" y="42.611"/><rect style="fill:#203c51;stroke-width:.11985098" id="rect28" width="1.918" height="1.918" x="36.385" y="42.611"/><rect style="fill:#203c51;stroke-width:.11985098" id="rect30" width="2.876" height="1.918" x="34.467" y="38.776"/><rect style="fill:#203c51;stroke-width:.11985098" id="rect32" width="4.794" height="1.918" x="34.467" y="34.94"/><rect style="fill:#203c51;stroke-width:.11985098" id="rect34" width="5.753" height="1.918" x="26.797" y="38.776"/><rect style="fill:#203c51;stroke-width:.11985098" id="rect38" width="1.918" height="1.918" x="33.508" y="59.869"/><rect style="fill:#203c51;stroke-width:.11985098" id="rect40" width="1.918" height="1.918" x="31.591" y="52.199"/><rect style="fill:#203c51;stroke-width:.11985098" id="rect42" width="1.918" height="1.918" x="27.756" y="52.199"/><rect style="fill:#203c51;stroke-width:.11985098" id="rect44" width="2.876" height="1.918" x="28.714" y="56.034"/><rect style="fill:#203c51;stroke-width:.11985098" id="rect46" width="4.794" height="1.918" x="26.797" y="59.869"/><rect style="fill:#203c51;stroke-width:.11985098" id="rect48" width="2.876" height="1.918" x="33.508" y="56.034"/><rect style="fill:#203c51;stroke-width:.11985098" id="rect50" width="2.876" height="1.918" x="35.426" y="52.199"/><rect style="fill:#203c51;stroke-width:.11985098" id="rect52" width="1.918" height="1.918" x="71.861" y="34.94"/><rect style="fill:#203c51;stroke-width:.11985098" id="rect54" width="1.918" height="1.918" x="75.696" y="34.94"/><rect style="fill:#203c51;stroke-width:.11985098" id="rect56" width="1.918" height="1.918" x="78.572" y="42.611"/><rect style="fill:#203c51;stroke-width:.11985098" id="rect58" width="1.918" height="1.918" x="82.408" y="42.611"/><rect style="fill:#203c51;stroke-width:.11985098" id="rect60" width="2.876" height="1.918" x="79.531" y="38.776"/><rect style="fill:#203c51;stroke-width:.11985098" id="rect64" width="5.753" height="1.918" x="71.861" y="38.776"/><rect style="fill:#203c51;stroke-width:.11985098" id="rect66" width="2.876" height="1.918" x="73.778" y="42.611"/><rect style="fill:#203c51;stroke-width:.11985098" id="rect68" width="1.918" height="1.918" x="82.408" y="59.869"/><rect style="fill:#203c51;stroke-width:.11985098" id="rect70" width="1.918" height="1.918" x="77.614" y="52.199"/><rect style="fill:#203c51;stroke-width:.11985098" id="rect72" width="1.918" height="1.918" x="73.778" y="52.199"/><rect style="fill:#203c51;stroke-width:.11985098" id="rect74" width="2.876" height="1.918" x="74.737" y="56.034"/><rect style="fill:#203c51;stroke-width:.11985098" id="rect76" width="4.794" height="1.918" x="75.696" y="59.869"/><rect style="fill:#203c51;stroke-width:.11985098" id="rect78" width="2.876" height="1.918" x="79.531" y="56.034"/><rect style="fill:#203c51;stroke-width:.11985098" id="rect80" width="2.876" height="1.918" x="81.449" y="52.199"/><rect style="fill:#203c51;stroke-width:.11985098" id="rect88" width="1.918" height="1.918" x="-97.529" y="38.784" transform="scale(-1,1)"/><rect style="fill:#203c51;stroke-width:.09541414" id="rect92" width="3.038" height="1.918" x="-90.667" y="35.043" transform="scale(-1,1)"/><rect style="fill:#203c51;stroke-width:.11985098" id="rect94" width="5.753" height="1.918" x="-25.151" y="38.845" transform="scale(-1,1)"/><rect style="fill:#203c51;stroke-width:.11985098" id="rect96" width="3.835" height="1.918" x="-25.151" y="42.68" transform="scale(-1,1)"/><rect style="fill:#203c51;stroke-width:.11985098" id="rect100" width="1.918" height="1.918" x="-94.237" y="38.776" transform="scale(-1,1)"/><rect style="fill:#203c51;stroke-width:.11985098" id="rect104" width="1.918" height="1.918" x="-88.116" y="38.776" transform="scale(-1,1)"/><rect style="fill:#203c51;stroke-width:.11985098" id="rect106" width="3.835" height="1.918" x="-95.786" y="42.611" transform="scale(-1,1)"/><rect style="fill:#203c51;stroke-width:.11985098" id="rect108" width="3.835" height="1.918" x="-90.033" y="42.611" transform="scale(-1,1)"/><rect style="fill:#203c51;stroke-width:.11985098" id="rect110" width="3.835" height="1.918" x="-86.522" y="34.992" transform="scale(-1,1)"/><rect style="fill:#203c51;stroke-width:.11985098" id="rect112" width="1.918" height="1.918" x="54.602" y="85.757"/><path style="fill:#203c51;stroke-width:.11985098" id="path114" d="m 49.246364,58.910681 2.198546,-2.198546 -1.355754,-1.355755 -2.876424,2.876424 c -0.374894,0.374894 -0.374894,0.98086 0,1.355754 l 2.876424,2.876424 1.355754,-1.355755 z"/><path style="fill:#203c51;stroke-width:.11985098" id="path116" d="m 61.032989,62.464982 2.876423,-2.876424 c 0.374894,-0.374894 0.374894,-0.98086 0,-1.355754 l -2.876423,-2.876424 -1.355755,1.355755 2.198547,2.198546 -2.198547,2.198546 z"/><rect style="fill:#203c51;stroke-width:.11984734" id="rect118" width="8.575" height="1.918" x="23.556" y="-76.999" transform="rotate(116.56505)"/><rect style="fill:#203c51;stroke-width:.11985098" id="rect120" width="1.918" height="1.918" x="54.602" y="65.622"/><rect style="fill:#203c51;stroke-width:.11985098" id="rect122" width="1.918" height="1.918" x="58.437" y="65.622"/><rect style="fill:#203c51;stroke-width:.11985098" id="rect124" width="1.918" height="1.918" x="50.767" y="65.622"/><g id="g1087" transform="matrix(0.11985098,0,0,0.11985098,26.796837,34.940485)"><path style="fill:#203c51" id="path98" d="m 184,0 c -4.424,0 -8,3.576 -8,8 0,8.336 1.59912,16.480078 4.70312,24.080078 C 142.53512,33.808078 112,65.408 112,104 v 56 c 0,2.128 0.83975,4.16025 2.34375,5.65625 l 4.81641,4.81641 C 105.65616,175.66466 96,188.688 96,204 c 0,18.48 14.048,33.5758 32,35.5918 V 264 c 0,2.128 0.83975,4.16025 2.34375,5.65625 L 176,315.3125 v 39.31055 L 4.96875,424.5918 C 1.96075,425.8318 0,428.752 0,432 v 40 c 0,4.424 3.576,8 8,8 H 334.57617 V 464 H 16 v -26.63281 l 166.94336,-68.28711 52.4082,37.43164 C 236.74356,407.50372 238.368,408 240,408 c 1.632,0 3.25644,-0.49609 4.64844,-1.49609 l 52.4082,-37.43164 37.51953,15.35351 V 367.12305 L 304,354.62305 V 315.3125 l 45.65625,-45.65625 C 351.16025,268.16025 352,266.128 352,264 v -24.4082 c 17.952,-2.016 32,-17.1118 32,-35.5918 0,-15.312 -9.65616,-28.33534 -23.16016,-33.52734 l 4.81641,-4.81641 C 367.16025,164.16025 368,162.128 368,160 V 104 C 368,64.296 335.704,32 296,32 h -0.64062 C 283.99937,12.408 262.808,0 240,0 Z m 8.67969,16 H 240 c 18.384,0 35.3925,10.767453 43.3125,27.439453 1.328,2.784 4.14266,4.560547 7.22266,4.560547 H 296 c 30.872,0 56,25.128 56,56 v 52.6875 l -8,8 -8,-8 V 104 c 0,-2.248 -0.94361,-4.392297 -2.59961,-5.904297 -1.664,-1.512 -3.90491,-2.264453 -6.12891,-2.064453 L 240,103.96875 152.72852,96.03125 c -2.208,-0.192 -4.46491,0.544453 -6.12891,2.064453 C 144.94361,99.607703 144,101.752 144,104 v 52.6875 l -8,8 -8,-8 V 104 c 0,-30.872 25.128,-56 56,-56 h 10.08008 c 2.984,0 5.7117,-1.656875 7.0957,-4.296875 1.376,-2.648 1.17666,-5.839297 -0.52734,-8.279297 C 196.54444,29.551828 193.84769,22.944 192.67969,16 Z M 160,112.75977 l 79.27148,7.20898 c 0.488,0.048 0.96904,0.048 1.45704,0 L 320,112.75977 V 160 c 0,2.128 0.83975,4.16025 2.34375,5.65625 L 336,179.3125 V 232 260.6875 L 268.6875,328 h -57.375 L 144,260.6875 V 232 179.3125 l 13.65625,-13.65625 C 159.16025,164.16025 160,162.128 160,160 Z m -32,71.64062 v 39.19922 C 118.88,221.74361 112,213.656 112,204 c 0,-9.656 6.88,-17.74361 16,-19.59961 z m 224,0 c 9.12,1.856 16,9.94361 16,19.59961 0,9.656 -6.88,17.74361 -16,19.59961 z M 192,331.3125 202.34375,341.65625 C 203.84775,343.16025 205.872,344 208,344 h 64 c 2.128,0 4.16025,-0.83975 5.65625,-2.34375 L 288,331.3125 v 24.56836 l -48,34.28711 -48,-34.28711 z"/><path id="path1041" d="m 184,0 c -4.424,0 -8,3.576 -8,8 0,8.336 1.59912,16.480078 4.70312,24.080078 C 142.53512,33.808078 112,65.408 112,104 v 56 c 0,2.128 0.83975,4.16025 2.34375,5.65625 l 4.81641,4.81641 C 105.65616,175.66466 96,188.688 96,204 c 0,18.48 14.048,33.5758 32,35.5918 V 264 c 0,2.128 0.83975,4.16025 2.34375,5.65625 L 176,315.3125 v 39.31055 L 4.96875,424.5918 C 1.96075,425.8318 0,428.752 0,432 v 40 c 0,4.424 3.576,8 8,8 H 334.57617 V 464 H 16 v -26.63281 l 166.94336,-68.28711 52.4082,37.43164 C 236.74356,407.50372 238.368,408 240,408 c 1.632,0 3.25644,-0.49609 4.64844,-1.49609 l 52.4082,-37.43164 37.51953,15.35351 V 367.12305 L 304,354.62305 V 315.3125 l 45.65625,-45.65625 C 351.16025,268.16025 352,266.128 352,264 v -24.4082 c 17.952,-2.016 32,-17.1118 32,-35.5918 0,-15.312 -9.65616,-28.33534 -23.16016,-33.52734 l 4.81641,-4.81641 C 367.16025,164.16025 368,162.128 368,160 V 104 C 368,64.296 335.704,32 296,32 h -0.64062 C 283.99937,12.408 262.808,0 240,0 Z m 8.67969,16 H 240 c 18.384,0 35.3925,10.767453 43.3125,27.439453 1.328,2.784 4.14266,4.560547 7.22266,4.560547 H 296 c 30.872,0 56,25.128 56,56 v 52.6875 l -8,8 -8,-8 V 104 c 0,-2.248 -0.94361,-4.392297 -2.59961,-5.904297 -1.664,-1.512 -3.90491,-2.264453 -6.12891,-2.064453 L 240,103.96875 152.72852,96.03125 c -2.208,-0.192 -4.46491,0.544453 -6.12891,2.064453 C 144.94361,99.607703 144,101.752 144,104 v 52.6875 l -8,8 -8,-8 V 104 c 0,-30.872 25.128,-56 56,-56 h 10.08008 c 2.984,0 5.7117,-1.656875 7.0957,-4.296875 1.376,-2.648 1.17666,-5.839297 -0.52734,-8.279297 C 196.54444,29.551828 193.84769,22.944 192.67969,16 Z M 160,112.75977 l 79.27148,7.20898 c 0.488,0.048 0.96904,0.048 1.45704,0 L 320,112.75977 V 160 c 0,2.128 0.83975,4.16025 2.34375,5.65625 L 336,179.3125 V 232 260.6875 L 268.6875,328 h -57.375 L 144,260.6875 V 232 179.3125 l 13.65625,-13.65625 C 159.16025,164.16025 160,162.128 160,160 Z m -32,71.64062 v 39.19922 C 118.88,221.74361 112,213.656 112,204 c 0,-9.656 6.88,-17.74361 16,-19.59961 z m 224,0 c 9.12,1.856 16,9.94361 16,19.59961 0,9.656 -6.88,17.74361 -16,19.59961 z M 192,331.3125 202.34375,341.65625 C 203.84775,343.16025 205.872,344 208,344 h 64 c 2.128,0 4.16025,-0.83975 5.65625,-2.34375 L 288,331.3125 v 24.56836 l -48,34.28711 -48,-34.28711 z" clip-path="url(#clipPath1069)" transform="matrix(-1,0,0,1,480,0.008)" style="fill:#203c51"/></g><g id="g1091" transform="matrix(0.11985098,0,0,0.11985098,26.796837,34.940485)"><path id="path12" d="m 244.648,406.504 c -1.392,1 -3.016,1.496 -4.648,1.496 -1.632,0 -3.256,-0.496 -4.648,-1.496 L 182.944,369.072 16,437.368 V 464 H 336 V 385.008 L 297.056,369.08 Z M 248,440 h -16 v -16 h 16 z" style="fill:#abd4d8"/><path style="fill:#abd4d8" id="path1057" d="m 244.648,406.504 c -1.392,1 -3.016,1.496 -4.648,1.496 -1.632,0 -3.256,-0.496 -4.648,-1.496 L 182.944,369.072 16,437.368 V 464 H 336 V 385.008 L 297.056,369.08 Z M 248,440 h -16 v -16 h 16 z" clip-path="url(#clipPath1065)" transform="matrix(-1,0,0,1,480,0.008)"/></g><rect id="rect1101" width="1.918" height="1.918" x="-25.948" y="-58.062" transform="scale(-1)" style="fill:#203c51;stroke-width:.11985098"/><rect id="rect1103" width="1.918" height="1.918" x="-22.112" y="-58.062" transform="scale(-1)" style="fill:#203c51;stroke-width:.11985098"/><rect id="rect1109" width="3.835" height="1.918" x="-21.434" y="-53.917" transform="scale(-1)" style="fill:#203c51;stroke-width:.11985098"/><rect id="rect1111" width="3.835" height="1.918" x="-20.195" y="-61.897" transform="scale(-1)" style="fill:#203c51;stroke-width:.11985098"/><rect id="rect1127" width="1.918" height="1.918" x="-94.933" y="-61.6" transform="scale(-1)" style="fill:#203c51;stroke-width:.11985098"/><rect id="rect1129" width="1.918" height="1.918" x="-93.016" y="-53.93" transform="scale(-1)" style="fill:#203c51;stroke-width:.11985098"/><rect id="rect1131" width="1.918" height="1.918" x="-86.304" y="-57.765" transform="scale(-1)" style="fill:#203c51;stroke-width:.11985098"/><rect id="rect1133" width="2.876" height="1.918" x="-91.098" y="-57.765" transform="scale(-1)" style="fill:#203c51;stroke-width:.11985098"/><rect id="rect1135" width="4.794" height="1.918" x="-91.098" y="-61.6" transform="scale(-1)" style="fill:#203c51;stroke-width:.11985098"/><rect id="rect1137" width="5.753" height="1.918" x="-98.768" y="-57.765" transform="scale(-1)" style="fill:#203c51;stroke-width:.11985098"/><rect id="rect1175" width="1.918" height="1.918" x="12.069" y="59.735" style="fill:#203c51;stroke-width:.11985098"/><rect id="rect1177" width="2.876" height="1.918" x="13.25" y="56.003" style="fill:#203c51;stroke-width:.11985098"/><rect id="rect1179" width="3.142" height="1.918" x="12.63" y="52.065" style="fill:#203c51;stroke-width:.09702212"/><rect style="fill:#203c51;stroke-width:.11985098" id="rect1229" width="1.918" height="1.918" x="-18.269" y="-44.78" transform="scale(-1)"/><rect style="fill:#203c51;stroke-width:.11985098" id="rect1231" width="1.918" height="1.918" x="-24.152" y="-36.744" transform="scale(-1)"/><rect style="fill:#203c51;stroke-width:.11985098" id="rect1233" width="2.876" height="1.918" x="-17.237" y="-40.641" transform="scale(-1)"/><rect style="fill:#203c51;stroke-width:.11985098" id="rect1237" width="1.918" height="1.918" x="12.045" y="42.863"/><rect id="rect2730" width="3.835" height="1.918" x="-98.73" y="51.906" transform="scale(-1,1)" style="fill:#203c51;stroke-width:.11985098"/><rect id="rect2958" width="3.555" height="1.918" x="41.283" y="34.837" style="fill:#203c51;stroke-width:.10320384"/><rect id="rect2960" width="1.918" height="1.918" x="-41.089" y="-40.669" transform="scale(-1)" style="fill:#203c51;stroke-width:.11985098"/><rect id="rect2962" width="3.835" height="1.918" x="-70.205" y="34.889" transform="scale(-1,1)" style="fill:#203c51;stroke-width:.11985098"/><rect id="rect2964" width="1.918" height="1.918" x="62.754" y="34.832" style="fill:#203c51;stroke-width:.11985098"/></g></svg>