<svg xmlns="http://www.w3.org/2000/svg" xmlns:xlink="http://www.w3.org/1999/xlink" width="111" height="128" version="1.1" viewBox="0 0 111 128"><title>nyan</title><desc>Created with Sketch.</desc><defs><path id="path-1" d="M92.053,80.279 L90.953,80.91 L90.623,81.099 L89.613,81.679 L86.472,83.49 L84.342,84.718 L82.703,85.669 L82.232,85.939 L81.622,86.289 L81.352,86.43 L78.113,88.279 L77.293,88.75 L76.243,89.35 L75.022,90.059 L74.522,90.35 L74.101,90.591 L72.951,91.261 L72.081,91.781 L70.821,92.502 L70.471,92.711 L70.211,92.861 L69.241,93.422 L67.99,94.132 L67.7,94.302 L67.33,94.513 L67.08,94.654 L66.37,95.074 L61.75,97.744 L61.12,98.103 L57.559,100.163 L53.519,102.493 L53.079,102.753 L47.369,106.042 L46.808,106.362 L46.478,106.551 L45.999,106.832 L44.579,106.012 L43.728,105.522 L41.959,104.502 L38.43,102.461 L36.319,101.243 L30.96,98.132 L30.271,97.743 L25.553,95 L25.183,94.789 L24.793,94.57 L24.303,94.289 L23.973,94.09 L22.123,93.029 L21.553,92.699 L19.843,91.709 L17.333,90.25 L17.073,90.1 L16.623,89.84 L16.143,89.57 L15.243,89.049 L14.423,88.58 L13.833,88.24 L12.563,87.509 C12.5563333,87.5023333 11.9296667,87.139 10.683,86.419 L9.663,85.829 L8.333,85.058 L7.613,84.628 L7.263,84.428 C7.263,84.428 7.16966667,84.3746667 6.983,84.268 L3.663,82.358 L0.253,80.387 L0.053,27.137 L14.383,18.867 L16.373,17.707 L21.303,14.877 L22.883,13.957 L24.713,12.917 L25.492,12.467 L25.873,12.247 L26.312,11.987 L27.413,11.337 L27.934,11.037 L30.213,9.737 L30.902,9.327 L32.302,8.527 L38.083,5.197 L38.543,4.927 L44.613,1.417 L46.052,0.587 L47.113,1.207 L53.602,4.957 L56.203,6.457 L60.153,8.737 L61.493,9.507 L68.133,13.337 L69.173,13.947 L71.473,15.257 L72.343,15.757 L73.864,16.637 L75.233,17.427 L76.034,17.887 L77.934,18.987 L81.714,21.167 L82.014,21.347 L82.274,21.507 L82.674,21.737 L83.594,22.267 L84.134,22.577 L86.074,23.697 L86.853,24.137 L87.293,24.387 L89.232,25.507 L92.053,27.139 L92.053,80.279 Z"/></defs><g id="nyan" fill="none" fill-rule="evenodd" stroke="none" stroke-width="1"><g id="gitcoin_nyan"><polygon id="Shape" fill="#150066" fill-rule="nonzero" points="111 96 55.499 128 0 96 0 32 55.499 0 111 32"/><g id="nyan_cat" transform="translate(10.000000, 11.000000)"><mask id="mask-2" fill="#fff"><use xlink:href="#path-1"/></mask><use id="Mask" fill="#15003E" fill-rule="nonzero" xlink:href="#path-1"/><path id="Stroke-52" stroke="#25E899" stroke-linecap="round" stroke-linejoin="round" stroke-width="3" d="M66,41.161 L99.161,8" mask="url(#mask-2)"/><path id="Stroke-52-Copy" stroke="#25E899" stroke-linecap="round" stroke-linejoin="round" stroke-width="3" d="M30,102.161 L53.5,78.5" mask="url(#mask-2)"/><path id="Stroke-52-Copy-5" stroke="#FFCE08" stroke-linecap="round" stroke-linejoin="round" stroke-width="3" d="M31,23.161 L54.5,-0.5" mask="url(#mask-2)"/><path id="Stroke-52-Copy-6" stroke="#F9006C" stroke-linecap="round" stroke-linejoin="round" stroke-width="3" d="M32,45.161 L48.2603105,29.0727607" mask="url(#mask-2)"/><path id="Stroke-52-Copy-2" stroke="#F9006C" stroke-linecap="round" stroke-linejoin="round" stroke-width="3" d="M75,89.161 L93.5,70.5" mask="url(#mask-2)"/><path id="Stroke-52-Copy-3" stroke="#FFCE08" stroke-linecap="round" stroke-linejoin="round" stroke-width="3" d="M15,83.161 L48.161,50" mask="url(#mask-2)"/><path id="Stroke-52-Copy-4" stroke="#25E999" stroke-linecap="round" stroke-linejoin="round" stroke-width="3" d="M-3,41.161 L12.5,25.5" mask="url(#mask-2)"/><g mask="url(#mask-2)"><g transform="translate(-5.000000, 37.000000)"><g id="Rainbow" transform="translate(43.561018, 0.790167)"><g id="Group" fill="#63F" transform="translate(6.105795, 21.838367) scale(-1, 1) translate(-6.105795, -21.838367) translate(1.035558, 19.797103)"><rect id="Rectangle-path" width="10.015" height="3.934" x=".015" y=".091"/></g><g id="Group" fill="#09F" transform="translate(6.105795, 17.912818) scale(-1, 1) translate(-6.105795, -17.912818) translate(1.035558, 15.871554)"><rect id="Rectangle-path" width="10.015" height="3.942" x=".015" y=".074"/></g><g id="Group" fill="#3F0" transform="translate(6.128183, 13.959614) scale(-1, 1) translate(-6.128183, -13.959614) translate(1.057946, 11.918349)"><rect id="Rectangle-path" width="9.998" height="3.934" x=".034" y=".079"/></g><g id="Group" fill="#FF0" transform="translate(1.131694, 7.995303)"><rect id="Rectangle-path" width="10.03" height="3.94" x=".015" y=".063"/></g><g id="Group" fill="#F90" transform="translate(6.104478, 6.096795) scale(-1, 1) translate(-6.104478, -6.096795) translate(1.034241, 4.055531)"><rect id="Rectangle-path" width="10.014" height="3.951" x=".015" y=".051"/></g><g id="Group" fill="red" transform="translate(7.676032, 2.113652) scale(-1, 1) translate(-7.676032, -2.113652) translate(0.176032, 0.113652)"><rect id="Rectangle-path" width="14.03" height="3.942" x="0" y=".051"/></g></g><g id="Rainbow1" transform="translate(33.498683, 2.370500)"><g id="Group" fill="#63F" transform="translate(5.632572, 21.896049) scale(-1, 1) translate(-5.632572, -21.896049) translate(0.035558, 19.854785)"><rect id="Rectangle-path" width="11.056" height="3.94" x=".021" y=".059"/></g><g id="Group" fill="#09F" transform="translate(5.632572, 17.945478) scale(-1, 1) translate(-5.632572, -17.945478) translate(0.035558, 15.904214)"><rect id="Rectangle-path" width="11.057" height="3.962" x=".02" y=".048"/></g><g id="Group" fill="#3F0" transform="translate(5.632572, 13.994381) scale(-1, 1) translate(-5.632572, -13.994381) translate(0.035558, 11.953117)"><rect id="Rectangle-path" width="11.057" height="3.94" x=".02" y=".059"/></g><g id="Group" fill="#FF0" transform="translate(0.131694, 8.007682)"><rect id="Rectangle-path" width="11.057" height="3.956" x=".02" y=".048"/></g><g id="Group" fill="#F90" transform="translate(5.632572, 6.100878) scale(-1, 1) translate(-5.632572, -6.100878) translate(0.035558, 4.059614)"><rect id="Rectangle-path" width="11.057" height="3.943" x=".02" y=".054"/></g><g id="Group" fill="red" transform="translate(5.632572, 2.152019) scale(-1, 1) translate(-5.632572, -2.152019) translate(0.035558, 0.110755)"><rect id="Rectangle-path" width="11.057" height="3.957" x=".02" y=".045"/></g></g><g id="Rainbow2" transform="translate(22.436348, 3.950834)"><g id="Group" fill="#63F" transform="translate(5.637840, 21.887884) scale(-1, 1) translate(-5.637840, -21.887884) translate(0.040825, 19.846620)"><rect id="Rectangle-path" width="11.063" height="3.94" x=".02" y=".063"/></g><g id="Group" fill="#09F" transform="translate(5.637840, 17.937313) scale(-1, 1) translate(-5.637840, -17.937313) translate(0.040825, 15.896049)"><rect id="Rectangle-path" width="11.062" height="3.962" x=".02" y=".052"/></g><g id="Group" fill="#3F0" transform="translate(5.637840, 13.986216) scale(-1, 1) translate(-5.637840, -13.986216) translate(0.040825, 11.944952)"><rect id="Rectangle-path" width="11.062" height="3.94" x=".02" y=".063"/></g><g id="Group" fill="#FF0" transform="translate(0.131694, 7.999517)"><rect id="Rectangle-path" width="11.062" height="3.956" x=".02" y=".052"/></g><g id="Group" fill="#F90" transform="translate(5.637840, 6.076383) scale(-1, 1) translate(-5.637840, -6.076383) translate(0.040825, 4.035119)"><rect id="Rectangle-path" width="11.062" height="3.959" x=".02" y=".058"/></g><g id="Group" fill="red" transform="translate(5.637840, 2.131475) scale(-1, 1) translate(-5.637840, -2.131475) translate(0.040825, 0.090211)"><rect id="Rectangle-path" width="11.063" height="3.937" x=".02" y=".066"/></g></g><g id="Rainbow3" transform="translate(10.374012, 5.531168)"><g id="Group" fill="#63F" transform="translate(6.234855, 22.343196) scale(-1, 1) translate(-6.234855, -22.343196) translate(0.234855, 19.843196)"><rect id="Rectangle-path" width="11.062" height="3.94" x=".02" y=".065"/></g><g id="Group" fill="#09F" transform="translate(6.234855, 18.406058) scale(-1, 1) translate(-6.234855, -18.406058) translate(0.234855, 15.906058)"><rect id="Rectangle-path" width="11.062" height="3.948" x=".02" y=".054"/></g><g id="Group" fill="#3F0" transform="translate(6.234855, 14.455487) scale(-1, 1) translate(-6.234855, -14.455487) translate(0.234855, 11.955487)"><rect id="Rectangle-path" width="11.062" height="3.954" x=".02" y=".051"/></g><g id="Group" fill="#FF0" transform="translate(1.131694, 7.985162)"><rect id="Rectangle-path" width="11.062" height="3.967" x=".02" y=".054"/></g><g id="Group" fill="#F90" transform="translate(6.234855, 6.531694) scale(-1, 1) translate(-6.234855, -6.531694) translate(0.234855, 4.031694)"><rect id="Rectangle-path" width="11.062" height="3.959" x=".02" y=".059"/></g><g id="Group" fill="red" transform="translate(6.234855, 2.589289) scale(-1, 1) translate(-6.234855, -2.589289) translate(0.234855, 0.089289)"><rect id="Rectangle-path" width="11.062" height="3.934" x=".02" y=".067"/></g></g><g id="Rainbow4" transform="translate(0.311677, 3.950834)"><g id="Group" fill="#63F" transform="translate(5.637840, 21.868920) scale(-1, 1) translate(-5.637840, -21.868920) translate(0.040825, 19.827656)"><rect id="Rectangle-path" width="11.062" height="3.962" x=".02" y=".062"/></g><g id="Group" fill="#09F" transform="translate(5.637840, 17.918086) scale(-1, 1) translate(-5.637840, -17.918086) translate(0.040825, 15.876822)"><rect id="Rectangle-path" width="11.062" height="3.94" x=".02" y=".073"/></g><g id="Group" fill="#3F0" transform="translate(5.637840, 13.989113) scale(-1, 1) translate(-5.637840, -13.989113) translate(0.040825, 11.947849)"><rect id="Rectangle-path" width="11.062" height="3.94" x=".021" y=".062"/></g><g id="Group" fill="#FF0" transform="translate(0.131694, 7.986216)"><rect id="Rectangle-path" width="11.062" height="3.973" x=".021" y=".051"/></g><g id="Group" fill="#F90" transform="translate(5.637840, 6.065584) scale(-1, 1) translate(-5.637840, -6.065584) translate(0.040825, 4.024320)"><rect id="Rectangle-path" width="11.062" height="3.94" x=".021" y=".073"/></g><g id="Group" fill="red" transform="translate(5.637840, 2.136611) scale(-1, 1) translate(-5.637840, -2.136611) translate(0.040825, 0.095347)"><rect id="Rectangle-path" width="11.062" height="3.94" x=".021" y=".062"/></g></g><g id="Group" transform="translate(54.328797, 0.707068)"><g id="Pastry" fill="#FFCC9A" fill-rule="nonzero"><polygon id="Shape" points="30.948 26.183 15.714 26.864 2.558 26.291 .923 24.604 .075 13.812 1.155 2.475 2.733 .892 16.723 .109 29.578 .892 31.157 2.471 31.742 15.122"/></g></g><g id="Pop-Tart" transform="translate(56.808604, 3.028973)"><g id="Group" fill="#F9F" fill-rule="nonzero" transform="translate(0.119052, 0.041089)"><polygon id="Shape" points="3.292 22.191 3.292 20.636 1.713 20.66 1.696 19.047 .115 19.063 .134 3.266 1.728 3.277 1.713 1.687 3.292 1.68 3.292 .116 23.821 .108 23.821 1.687 25.4 1.687 25.4 3.266 26.979 3.266 26.979 22.215"/></g><g id="Group" fill="#FE339A" transform="translate(5.798507, 11.980641) scale(-1, 1) translate(-5.798507, -11.980641) translate(4.942493, 11.124627)"><rect id="Rectangle-path" width="1.58" height="1.581" x=".101" y=".073"/></g><g id="Group" fill="#FE3399" transform="translate(12.097059, 13.571247) scale(-1, 1) translate(-12.097059, -13.571247) translate(11.306892, 12.781080)"><rect id="Rectangle-path" width="1.579" height="1.58" x=".001" y="0"/></g><g id="Group" fill="#F39" transform="translate(10.452156, 8.768125) scale(-1, 1) rotate(-0.023883) translate(-10.452156, -8.768125) translate(9.596142, 7.912110)"><rect id="Rectangle-path" width="1.58" height="1.58" x="0" y=".131"/></g><g id="Group" fill="#F39" transform="translate(12.142230, 2.522739) scale(-1, 1) translate(-12.142230, -2.522739) translate(11.286216, 1.666725)"><rect id="Rectangle-path" width="1.579" height="1.579" x=".113" y=".061"/></g><g id="Group" fill="#F39" transform="translate(4.253731, 4.100702) scale(-1, 1) translate(-4.253731, -4.100702) translate(3.397717, 3.244688)"><rect id="Rectangle-path" width="1.579" height="1.579" x=".119" y=".062"/></g><g id="Group" fill="#FE339A" transform="translate(8.876678, 18.246584) scale(-1, 1) rotate(-0.129303) translate(-8.876678, -18.246584) translate(8.020664, 17.390570)"><rect id="Rectangle-path" width="1.579" height="1.576" x=".003" y=".13"/></g><g id="Group" fill="#FF339A" transform="translate(2.676032, 15.145391) scale(-1, 1) translate(-2.676032, -15.145391) translate(1.820018, 14.289377)"><rect id="Rectangle-path" width="1.579" height="1.579" x=".12" y=".071"/></g><g id="Group" fill="#F39" transform="translate(23.148953, 5.614069) scale(-1, 1) rotate(-0.023812) translate(-23.148953, -5.614069) translate(22.227091, 4.758054)"><rect id="Rectangle-path" width="1.585" height="1.576" x=".127" y=".131"/></g><g id="Group" fill="#F39" transform="translate(16.876646, 2.522739) scale(-1, 1) translate(-16.876646, -2.522739) translate(16.020632, 1.666725)"><rect id="Rectangle-path" width="1.579" height="1.579" x=".109" y=".061"/></g><g id="Group" fill="#F39" transform="translate(4.253731, 19.879017) scale(-1, 1) translate(-4.253731, -19.879017) translate(3.397717, 19.023003)"><rect id="Rectangle-path" width="1.579" height="1.579" x=".119" y=".075"/></g></g><g id="Fur" transform="translate(43.770852, 9.350307)"><g id="Group" fill="#999" fill-rule="nonzero" transform="translate(27.502809, 0.030817)"><polygon id="Shape" points="0 14.325 .003 6.431 1.579 .113 4.737 .113 6.316 1.692 7.895 3.271 10.829 4.077 14.215 3.276 15.581 1.709 17.37 .113 20.528 .113 22.107 6.429 22.107 14.325 20.528 15.904 18.949 17.483 11.192 18.163 3.158 17.499 1.578 15.904"/></g><g id="Group" fill="#999" fill-rule="nonzero" transform="translate(0.001844, 4.289289)"><polygon id="Shape" points=".658 .581 .106 2.397 1.456 2.738 2.238 3.749 8.271 5.58 10.675 5.778 10.754 3.243 8.381 1.981 5.209 .071"/></g><g id="Group" fill="#999" fill-rule="nonzero" transform="translate(6.429324, 17.288191)"><polygon id="Shape" points="5.399 .104 .545 .226 .077 3.687 3.704 3.384 5.283 1.805"/></g><g id="Group" fill="#999" fill-rule="nonzero" transform="translate(16.485164, 19.857403) scale(-1, 1) rotate(-86.892686) translate(-16.485164, -19.857403) translate(15.431608, 18.145374)"><polygon id="Shape" points=".326 3.37 2.046 3.37 1.793 .021 .072 .114"/></g><g id="Group" fill="#999" fill-rule="nonzero" transform="translate(32.260817, 19.861612) scale(-1, 1) rotate(-179.581382) translate(-32.260817, -19.861612) translate(30.548790, 18.873904)"><polygon id="Shape" points=".006 1.856 3.377 1.856 3.331 .103 .109 .188"/></g><g id="Group" fill="#999" fill-rule="nonzero" transform="translate(39.978474, 19.965975) scale(-1, 1) rotate(179.713915) translate(-39.978474, -19.965975) translate(37.937209, 18.912419)"><polygon id="Shape" points=".127 2.097 3.977 2.097 3.934 .109 .624 .344"/></g></g><g id="Nyan" transform="translate(42.848990, 0.000000)"><g id="Group" fill="#FFF" transform="translate(33.991659, 18.174363) scale(-1, 1) translate(-33.991659, -18.174363) translate(33.135645, 17.318349)"><rect id="Rectangle-path" width="1.579" height="1.579" x=".107" y=".071"/></g><g id="Group" fill="#FFF" transform="translate(45.005268, 18.179895) scale(-1, 1) translate(-45.005268, -18.179895) translate(44.215101, 17.389728)"><rect id="Rectangle-path" width="1.579" height="1.579" x=".001" y="0"/></g><g id="Group" fill="#000" transform="translate(27.569963, 19.695314) scale(-1, 1) rotate(0.009557) translate(-27.569963, -19.695314) translate(26.713949, 15.678632)"><rect id="Rectangle-path" width="1.58" height="7.896" x=".001" y=".131"/></g><g id="Group" fill="#000" transform="translate(31.625110, 8.707375) scale(-1, 1) translate(-31.625110, -8.707375) translate(29.978929, 7.851361)"><rect id="Rectangle-path" width="3.158" height="1.579" x=".109" y=".064"/></g><g id="Group" fill="#000" transform="translate(29.258560, 12.652019) scale(-1, 1) translate(-29.258560, -12.652019) translate(28.402546, 9.425505)"><rect id="Rectangle-path" width="1.579" height="6.316" x=".11" y=".069"/></g><g id="Group" fill="#000" transform="translate(33.161984, 9.493327)"><rect id="Rectangle-path" width="1.579" height="1.579" x="0" y=".001"/></g><g id="Group" fill="#000" transform="translate(35.530032, 11.798046) scale(-1, 1) rotate(-179.985671) translate(-35.530032, -11.798046) translate(34.739865, 10.942032)"><rect id="Rectangle-path" width="1.58" height="1.579" x="0" y=".001"/></g><g id="Group" fill="#000" transform="translate(36.215979, 12.584987)"><rect id="Rectangle-path" width="6.316" height="1.579" x=".104" y=".067"/></g><g id="Group" fill="#000" transform="translate(45.792801, 7.914574)"><rect id="Rectangle-path" width="3.161" height="1.58" x="0" y=".001"/></g><g id="Group" fill="#000" transform="translate(49.677761, 12.589689) scale(-1, 1) rotate(-179.976107) translate(-49.677761, -12.589689) translate(48.821747, 9.363174)"><rect id="Rectangle-path" width="1.582" height="6.316" x=".13" y=".005"/></g><g id="Group" fill="#000" transform="translate(50.438982, 15.735645)"><rect id="Rectangle-path" width="1.579" height="7.895" x=".094" y=".075"/></g><g id="Group" fill="#000" transform="translate(48.858648, 23.629939)"><rect id="Rectangle-path" width="1.579" height="1.579" x=".094" y=".076"/></g><g id="Group" fill="#000" transform="translate(47.278314, 25.207902)"><rect id="Rectangle-path" width="1.579" height="1.579" x=".096" y=".077"/></g><g id="Group" fill="#000" transform="translate(29.149670, 24.560908) scale(-1, 1) rotate(0.019121) translate(-29.149670, -24.560908) translate(28.293656, 23.704894)"><rect id="Rectangle-path" width="1.579" height="1.58" x=".002" y=".001"/></g><g id="Group" fill="#000" transform="translate(0.000527, 14.100000)"><polygon id="Shape" points="3.161 3.288 .001 3.288 .001 .132 1.58 .132 1.58 1.711 3.159 1.711"/></g><g id="Group" fill="#000" transform="translate(13.423881, 2.388806) scale(-1, 1) translate(-13.423881, -2.388806) translate(12.633714, 1.598639)"><rect id="Rectangle-path" width="1.579" height="1.579" x=".001" y="0"/></g><g id="Group" fill="#000" transform="translate(6.317384, 26.864223)"><polygon id="Shape" points="0 4.737 0 0 1.579 0 1.579 3.158 4.737 3.158 4.737 4.737"/></g><g id="Group" fill="#000" transform="translate(11.902546, 29.219315) scale(-1, 1) translate(-11.902546, -29.219315) translate(11.046532, 28.363301)"><rect id="Rectangle-path" width="1.579" height="1.579" x=".124" y=".08"/></g><g id="Group" fill="#000" transform="translate(27.645830, 0.809263) scale(-1, 1) translate(-27.645830, -0.809263) translate(14.212994, 0.019096)"><rect id="Rectangle-path" width="26.844" height="1.58" x=".021" y="0"/></g><g id="Group" fill="#000" transform="translate(41.847234, 2.387752) scale(-1, 1) translate(-41.847234, -2.387752) translate(41.057068, 1.597586)"><rect id="Rectangle-path" width="1.58" height="1.579" x="0" y=".001"/></g><g id="Group" fill="#000" transform="translate(33.159350, 17.389728)"><polygon id="Shape" points="3.161 3.158 .003 3.158 .003 1.579 1.582 1.579 1.582 0 3.161 0"/></g><g id="Group" fill="#000" transform="translate(44.212467, 17.387357)"><polygon id="Shape" points="3.161 .002 1.582 .002 1.582 1.582 .003 1.582 .003 3.161 3.161 3.161"/></g><g id="Group" fill="#000" transform="translate(40.956980, 18.894469)"><rect id="Rectangle-path" width="1.58" height="1.581" x=".1" y=".072"/></g><g id="Group" fill="#000" transform="translate(1.572695, 3.155531)"><polygon id="Shape" points="9.482 .022 11.061 .022 11.061 22.13 12.64 22.13 12.64 23.709 28.432 23.711 28.431 22.13 30.01 22.13 30.012 23.711 45.801 23.709 45.803 25.285 42.645 25.283 42.645 28.443 37.908 28.443 37.904 26.866 41.064 26.867 41.064 25.288 37.907 25.286 37.904 26.866 36.328 26.864 36.326 25.285 34.747 25.288 34.747 28.446 30.01 28.446 30.01 26.867 33.168 26.867 33.168 25.288 30.01 25.288 30.01 26.867 28.431 26.867 28.431 25.288 18.956 25.288 18.956 28.446 14.219 28.446 14.219 26.867 17.377 26.867 17.377 25.288 14.219 25.288 14.219 26.867 12.64 26.867 12.64 25.288 11.061 25.288 11.061 23.709 6.324 23.709 6.324 22.13 7.903 22.13 7.903 20.551 9.482 20.551 9.482 17.392 6.324 17.392 6.324 15.813 1.588 15.811 1.588 14.233 7.905 14.232 7.903 15.813 9.482 15.813 9.482 14.234 7.905 14.232 7.905 12.652 4.747 12.652 4.747 11.073 .009 11.073 .009 9.497 6.324 9.497 6.326 11.073 9.484 11.073"/></g><g id="Group" fill="#000" transform="translate(34.741001, 22.124539)"><polygon id="Shape" points="0 .003 0 3.161 11.054 3.161 11.054 .003 9.474 .003 9.474 1.582 6.316 1.582 6.316 .003 4.737 .003 4.737 1.582 1.579 1.582 1.579 .003"/></g><g id="Group" fill="#000" transform="translate(42.636084, 3.170413)"><polygon id="Shape" points="0 .008 1.579 .008 1.579 6.324 3.158 6.324 3.158 7.903 1.579 7.903 1.579 9.482 0 9.482"/></g><g id="Group" fill="#F99" transform="translate(31.584021, 22.127832) scale(-1, 1) rotate(-0.009555) translate(-31.584021, -22.127832) translate(30.003687, 20.547498)"><rect id="Rectangle-path" width="3.159" height="3.158" x=".002" y="0"/></g><g id="Group" fill="#F99" transform="translate(48.954722, 22.191637) scale(-1, 1) rotate(0.002390) translate(-48.954722, -22.191637) translate(47.374388, 20.545456)"><rect id="Rectangle-path" width="3.158" height="3.158" x=".002" y=".003"/></g></g></g></g></g><path id="Shape" fill="#000" fill-rule="nonzero" d="M56.024,11.579 L9.954,38.139 L9.954,91.259 L32.854,104.458 L34.504,105.419 L50.275,114.509 L55.795,117.689 L56.025,117.82 L56.714,117.42 L72.024,108.6 L77.615,105.379 L78.804,104.69 L102.104,91.26 L102.104,38.14 L56.024,11.579 Z M100.233,90.189 L78.803,102.539 L77.163,103.49 L70.583,107.279 L56.023,115.679 L51.333,112.978 L34.543,103.298 L32.633,102.198 L11.813,90.188 L11.813,39.218 L56.023,13.728 L100.232,39.218 L100.232,90.189 L100.233,90.189 Z" opacity=".13"/></g></g></svg>